<svg width="18" height="18" viewBox="0 0 18 18" fill="none" xmlns="http://www.w3.org/2000/svg">
<path d="M1.76758 5.7855L7.00258 9.276C7.72483 9.75675 8.08558 9.9975 8.47558 10.0912C8.82058 10.1737 9.17983 10.1737 9.52408 10.0912C9.91408 9.9975 10.2748 9.75675 10.9971 9.276L16.2321 5.7855M5.36758 14.625H12.6321C13.8921 14.625 14.5221 14.625 15.0036 14.3798C15.4266 14.1639 15.7706 13.8197 15.9861 13.3965C16.2321 12.915 16.2321 12.285 16.2321 11.025V6.975C16.2321 5.715 16.2321 5.085 15.9868 4.6035C15.7711 4.18015 15.4269 3.83596 15.0036 3.62025C14.5221 3.375 13.8921 3.375 12.6321 3.375H5.36758C4.10758 3.375 3.47758 3.375 2.99608 3.62025C2.57301 3.83609 2.22909 4.18027 2.01358 4.6035C1.76758 5.085 1.76758 5.715 1.76758 6.975V11.025C1.76758 12.285 1.76758 12.915 2.01283 13.3965C2.22854 13.8198 2.57273 14.164 2.99608 14.3798C3.47758 14.625 4.10758 14.625 5.36758 14.625Z" stroke="#FAFAFA" stroke-linecap="round" stroke-linejoin="round"/>
</svg>
