<svg width="36" height="36" viewBox="0 0 36 36" fill="none" xmlns="http://www.w3.org/2000/svg">
<path d="M15.717 31.6876C17.2251 31.9382 18.7641 31.9392 20.2725 31.6906M15.717 31.6876C12.4777 31.1468 9.53367 29.4746 7.41136 26.9683C5.28906 24.4621 4.12456 21.2842 4.125 18.0001C4.12555 15.3531 4.88322 12.7615 6.30863 10.5312C7.73403 8.30078 9.76768 6.52466 12.1696 5.41238C14.5715 4.30011 17.2415 3.89809 19.8644 4.25377C22.4874 4.60946 24.9539 5.70799 26.9728 7.41976C28.9918 9.13152 30.479 11.3851 31.259 13.9145C32.0389 16.444 32.0791 19.1437 31.3747 21.6952C30.6703 24.2468 29.2508 26.5435 27.2836 28.3146C25.3164 30.0856 22.8837 31.257 20.2725 31.6906M15.717 31.6876L15.7155 24.1801H12.87C12.6313 24.1801 12.4024 24.0853 12.2336 23.9165C12.0648 23.7477 11.97 23.5188 11.97 23.2801V20.5231C11.97 20.2844 12.0648 20.0555 12.2336 19.8867C12.4024 19.7179 12.6313 19.6231 12.87 19.6231H15.7155V14.9251C15.7155 13.7316 16.1896 12.587 17.0335 11.7431C17.8774 10.8992 19.022 10.4251 20.2155 10.4251H22.9305C23.3283 10.4251 23.7099 10.5831 23.9912 10.8644C24.2725 11.1457 24.4305 11.5272 24.4305 11.9251V13.4851C24.4305 13.8829 24.2725 14.2644 23.9912 14.5457C23.7099 14.827 23.3283 14.9851 22.9305 14.9851H21.7725C21.3747 14.9851 20.9931 15.1431 20.7118 15.4244C20.4305 15.7057 20.2725 16.0872 20.2725 16.4851V19.6231H23.718C23.8486 19.6231 23.9777 19.6515 24.0962 19.7064C24.2148 19.7613 24.32 19.8413 24.4045 19.9409C24.489 20.0406 24.5508 20.1574 24.5856 20.2833C24.6204 20.4092 24.6273 20.5412 24.606 20.6701L24.231 22.9261C24.1728 23.2763 23.9922 23.5946 23.7214 23.8242C23.4505 24.0538 23.1071 24.1799 22.752 24.1801H20.2725V31.6906" stroke="#F5F5F8" stroke-width="2" stroke-linecap="round"/>
</svg>
