<svg width="314" height="334" viewBox="0 0 314 334" fill="none" xmlns="http://www.w3.org/2000/svg">
<circle cx="151" cy="110" r="17" fill="white" fill-opacity="0.04"/>
<path d="M150 256C43.3752 256 47.2452 190.125 138.369 163C138.369 163 93.7776 190.125 95.7161 213.375C97.6547 236.625 150 256 150 256Z" fill="white" fill-opacity="0.04"/>
<path d="M267.438 56.0615C204.195 139.546 172.702 181.118 188.643 279H152.482C150.473 190.184 118.33 154.658 44 87.5526C88.1964 111.237 112.161 123.509 150.473 150.711C192.661 123.079 220.786 99.3947 269 54L267.438 56.0615Z" fill="white" fill-opacity="0.04"/>
<path d="M176 234C288.724 230.045 298.612 166.773 207.642 147L205.664 154.909C205.664 154.909 237.306 166.773 235.328 192.477C233.351 218.182 176 234 176 234Z" fill="white" fill-opacity="0.04"/>
</svg>
