<svg width="217" height="34" viewBox="0 0 217 34" fill="none" xmlns="http://www.w3.org/2000/svg">
<path fill-rule="evenodd" clip-rule="evenodd" d="M154.98 0C145.236 0 138.429 7.13622 138.429 16.614C138.429 26.0918 145.236 33.228 154.98 33.228C164.724 33.228 171.531 26.129 171.531 16.614C171.531 7.09905 164.724 0 154.98 0ZM154.98 29.5856C148.062 29.5856 143.711 23.8617 143.711 16.614C143.711 9.3663 148.1 3.64244 154.98 3.64244C161.861 3.64244 166.249 9.3663 166.249 16.614C166.249 23.8617 161.898 29.5856 154.98 29.5856ZM0.0371933 0.557509H34.8119C37.8618 0.557509 40.1304 2.86192 40.1304 5.87251V27.3555C40.1304 30.366 37.8989 32.6706 34.849 32.6706H5.31848C2.26873 32.6706 0 30.366 0 27.3555V16.6511C0 13.6406 2.26873 11.3362 5.31848 11.3362H29.419V16.614H6.91775C5.91357 16.614 5.28129 17.3202 5.28129 18.3237V25.7201C5.28129 26.7608 5.87638 27.4299 6.91775 27.4299H33.2499C34.254 27.4299 34.8863 26.7237 34.8863 25.7201V7.54507C34.8863 6.50437 34.2913 5.83534 33.2499 5.83534H0.0371933V0.557509ZM127.941 15.4618V15.6848L127.978 15.6476C133.334 15.9822 137.351 18.1007 137.351 23.7131C137.351 29.3255 132.999 32.6706 126.677 32.6706H112.06V32.4103C113.102 31.2954 113.697 29.8458 113.697 27.6529V5.57517C113.697 3.38227 113.102 1.93273 112.06 0.817699V0.557509H125.635C131.437 0.557509 135.64 3.71678 135.64 7.95391C135.64 12.191 132.776 14.9415 127.941 15.4618ZM118.717 29.2882H124.296V29.2511C128.462 29.2511 132.181 28.2476 132.181 23.267C132.181 18.2866 127.718 17.3202 124.036 17.3202H121.172V13.9379H123.924C127.235 13.9379 130.545 12.4512 130.545 8.69727C130.545 4.94332 127.346 3.93978 124.073 3.93978H118.717V29.2882ZM102.018 15.6848V15.4618C106.853 14.9415 109.717 12.191 109.717 7.95391C109.717 3.71678 105.514 0.557509 99.7123 0.557509H86.1372V0.817699C87.1786 1.93273 87.7737 3.38227 87.7737 5.57517V27.6529C87.7737 29.8458 87.1786 31.2954 86.1372 32.4103V32.6706H100.754C107.076 32.6706 111.428 29.3255 111.428 23.7131C111.428 18.1007 107.411 15.9822 102.056 15.6476L102.018 15.6848ZM98.3735 29.2882H92.7947V3.93978H98.1503C101.423 3.93978 104.622 4.94332 104.622 8.69727C104.622 12.4512 101.312 13.9379 98.0015 13.9379H95.2493V17.3202H98.1132C101.795 17.3202 106.258 18.2866 106.258 23.267C106.258 28.2476 102.539 29.2511 98.3735 29.2511V29.2882ZM170.192 6.24419V0.557509H216.198V6.24419H215.939C215.083 4.98049 213.521 3.93978 210.248 3.93978H205.376V27.6529C205.376 29.8086 205.97 31.2954 207.012 32.4103V32.6706H198.719V32.4103C199.722 31.2954 200.355 29.8086 200.355 27.6529V3.93978H186.073V27.6529C186.073 29.8086 186.667 31.2954 187.673 32.4103V32.6706H179.453V32.4103C180.493 31.2954 181.052 29.8086 181.052 27.6529V3.93978H176.105C172.832 3.93978 171.307 4.98049 170.452 6.24419H170.192ZM66.8345 0.557509H71.8555L71.9299 0.594679L82.195 27.5042C83.0132 29.6228 83.7198 31.0724 85.0588 32.4103V32.6706H76.5418V32.4103C76.9881 31.5555 77.2111 30.8121 77.2111 29.9573C77.2111 29.1024 76.9881 28.2476 76.6533 27.3183L74.9425 22.7096H62.2971L60.8094 26.5751C60.4003 27.69 59.954 29.0652 59.954 30.2546C59.954 31.0351 60.1028 31.8156 60.6235 32.4103V32.6706H53.5198V32.4103L53.5309 32.3982C54.4208 31.4351 55.4225 30.3504 56.867 26.5751L66.8345 0.557509ZM68.5827 6.09552L63.5616 19.3274H63.5989H73.6779L68.8057 6.09552H68.5827Z" fill="#000075"/>
</svg>
