<svg width="218" height="36" viewBox="0 0 218 36" fill="none" xmlns="http://www.w3.org/2000/svg">
<path fill-rule="evenodd" clip-rule="evenodd" d="M155.394 1.58398C145.65 1.58398 138.844 8.72021 138.844 18.198C138.844 27.6757 145.65 34.812 155.394 34.812C165.139 34.812 171.945 27.713 171.945 18.198C171.945 8.68304 165.139 1.58398 155.394 1.58398ZM155.394 31.1695C148.476 31.1695 144.125 25.4457 144.125 18.198C144.125 10.9503 148.514 5.22642 155.394 5.22642C162.275 5.22642 166.663 10.9503 166.663 18.198C166.663 25.4457 162.312 31.1695 155.394 31.1695ZM0.451256 2.14149H35.226C38.2758 2.14149 40.5445 4.44591 40.5445 7.4565V28.9395C40.5445 31.95 38.3129 34.2546 35.2631 34.2546H5.73254C2.68279 34.2546 0.414062 31.95 0.414062 28.9395V18.2351C0.414062 15.2246 2.68279 12.9202 5.73254 12.9202H29.8331V18.198H7.33182C6.32763 18.198 5.69536 18.9042 5.69536 19.9077V27.304C5.69536 28.3448 6.29044 29.0139 7.33182 29.0139H33.664C34.668 29.0139 35.3004 28.3077 35.3004 27.304V9.12906C35.3004 8.08835 34.7053 7.41933 33.664 7.41933H0.451256V2.14149ZM128.355 17.0458V17.2688L128.393 17.2316C133.748 17.5661 137.765 19.6846 137.765 25.297C137.765 30.9094 133.413 34.2546 127.091 34.2546H112.474V33.9943C113.516 32.8794 114.111 31.4298 114.111 29.2369V7.15916C114.111 4.96625 113.516 3.51671 112.474 2.40168V2.14149H126.049C131.851 2.14149 136.054 5.30076 136.054 9.53789C136.054 13.775 133.19 16.5255 128.355 17.0458ZM119.131 30.8722H124.71V30.8351C128.876 30.8351 132.595 29.8316 132.595 24.851C132.595 19.8706 128.132 18.9042 124.45 18.9042H121.586V15.5219H124.338C127.649 15.5219 130.959 14.0352 130.959 10.2813C130.959 6.5273 127.76 5.52377 124.487 5.52377H119.131V30.8722ZM102.432 17.2688V17.0458C107.267 16.5255 110.131 13.775 110.131 9.53789C110.131 5.30076 105.928 2.14149 100.126 2.14149H86.5513V2.40168C87.5927 3.51671 88.1877 4.96625 88.1877 7.15916V29.2369C88.1877 31.4298 87.5927 32.8794 86.5513 33.9943V34.2546H101.168C107.49 34.2546 111.842 30.9094 111.842 25.297C111.842 19.6846 107.825 17.5661 102.47 17.2316L102.432 17.2688ZM98.7876 30.8722H93.2088V5.52377H98.5644C101.837 5.52377 105.036 6.5273 105.036 10.2813C105.036 14.0352 101.726 15.5219 98.4156 15.5219H95.6633V18.9042H98.5273C102.209 18.9042 106.672 19.8706 106.672 24.851C106.672 29.8316 102.953 30.8351 98.7876 30.8351V30.8722ZM170.606 7.82818V2.14149H216.612V7.82818H216.353C215.497 6.56447 213.935 5.52377 210.662 5.52377H205.79V29.2369C205.79 31.3926 206.384 32.8794 207.426 33.9943V34.2546H199.133V33.9943C200.136 32.8794 200.769 31.3926 200.769 29.2369V5.52377H186.487V29.2369C186.487 31.3926 187.082 32.8794 188.087 33.9943V34.2546H179.867V33.9943C180.907 32.8794 181.466 31.3926 181.466 29.2369V5.52377H176.519C173.246 5.52377 171.722 6.56447 170.866 7.82818H170.606ZM67.2486 2.14149H72.2696L72.344 2.17866L82.6091 29.0882C83.4272 31.2068 84.1339 32.6563 85.4728 33.9943V34.2546H76.9559V33.9943C77.4021 33.1395 77.6252 32.3961 77.6252 31.5412C77.6252 30.6864 77.4022 29.8316 77.0674 28.9023L75.3566 24.2935H62.7111L61.2235 28.159C60.8143 29.274 60.3681 30.6492 60.3681 31.8386C60.3681 32.6191 60.5169 33.3996 61.0376 33.9943V34.2546H53.9338V33.9943L53.945 33.9822C54.8348 33.019 55.8365 31.9344 57.2811 28.159L67.2486 2.14149ZM68.9967 7.6795L63.9757 20.9113H64.013H74.092L69.2198 7.6795H68.9967Z" fill="#000075"/>
</svg>
