<svg width="159" height="36" viewBox="0 0 159 36" fill="none" xmlns="http://www.w3.org/2000/svg">
<path d="M68.6249 0.58252L66.0781 12.6339H68.2655L68.8421 9.55148H71.8434L72.4238 12.6339H74.6305L72.0474 0.58252H68.6249ZM69.1791 7.77067L70.2387 2.1129H70.4459L71.511 7.77067H69.1775H69.1791Z" fill="#CB2035"/>
<path d="M68.6249 0.58252L66.0781 12.6339H68.2655L68.8421 9.55148H71.8434L72.4238 12.6339H74.6305L72.0474 0.58252H68.6249ZM69.1791 7.77067L70.2387 2.1129H70.4459L71.511 7.77067H69.1775H69.1791Z" fill="#CB2035"/>
<path d="M79.4413 0.58226H75.8086V12.6336H79.4413C79.9929 12.679 80.548 12.6103 81.072 12.4319C81.5959 12.2534 82.0774 11.969 82.4867 11.5963C83.1946 10.771 83.5504 9.70089 83.4775 8.61599V4.59681C83.5154 4.05732 83.4466 3.51566 83.275 3.0028C83.1033 2.48994 82.8323 2.01594 82.4773 1.60793C82.0673 1.23997 81.5867 0.959282 81.0648 0.782955C80.5429 0.606628 79.9905 0.538342 79.4413 0.58226ZM81.2608 8.60594C81.3017 9.17783 81.1345 9.74524 80.79 10.2035C80.6024 10.3948 80.375 10.5425 80.1238 10.636C79.8727 10.7295 79.604 10.7666 79.3369 10.7446H77.9975V2.43881H79.3369C79.6045 2.41703 79.8735 2.45473 80.1248 2.54921C80.376 2.64369 80.6032 2.7926 80.79 2.98527C81.136 3.4526 81.303 4.02848 81.2608 4.6084V8.60594Z" fill="#CB2035"/>
<path d="M87.3251 0.58252H85.0898V12.6339H87.3251V0.58252Z" fill="#CB2035"/>
<path d="M88.6602 2.4839H91.2332V12.6308H93.4508V2.4839H96.0153V0.58252H88.661L88.6602 2.4839Z" fill="#CB2035"/>
<path d="M104.918 0.58252H102.655L101.418 4.53446L100.834 6.6082H100.711L100.136 4.53446L98.8626 0.58252H96.6211L99.7035 9.05913V12.6339H101.845V9.08386L104.918 0.58252Z" fill="#CB2035"/>
<path d="M106.617 0.58252L104.07 12.6339H106.258L106.834 9.55148H109.834L110.414 12.6339H112.621L110.037 0.58252H106.615H106.617ZM107.171 7.77067L108.232 2.1129H108.439L109.504 7.77067H107.174H107.171Z" fill="#CB2035"/>
<path d="M121.808 6.18379V6.09026C122.094 6.07613 122.373 6.00553 122.632 5.88255C122.89 5.75957 123.121 5.58664 123.312 5.37376C123.64 4.906 123.801 4.34124 123.769 3.77073V3.47007C123.795 3.07565 123.737 2.68012 123.598 2.31013C123.459 1.94013 123.242 1.60428 122.962 1.32521C122.201 0.762153 121.259 0.498863 120.316 0.58553H116.375V12.6369H120.486C120.958 12.6805 121.433 12.6305 121.886 12.4896C122.338 12.3487 122.758 12.1198 123.121 11.816C123.412 11.4851 123.634 11.0995 123.774 10.6817C123.914 10.2639 123.97 9.82237 123.937 9.3829V8.91915C123.974 8.26213 123.805 7.61002 123.456 7.05255C123.253 6.80402 123.003 6.59906 122.719 6.45001C122.435 6.30097 122.124 6.21093 121.805 6.18533L121.808 6.18379ZM120.158 2.38411C120.362 2.3619 120.567 2.38413 120.761 2.44926C120.955 2.51439 121.132 2.62086 121.281 2.7613C121.515 3.07891 121.629 3.46972 121.601 3.86348V4.14637C121.626 4.53889 121.508 4.92728 121.27 5.24005C121.121 5.38282 120.943 5.49137 120.747 5.55811C120.552 5.62486 120.344 5.6482 120.139 5.62651H118.527V2.38025H120.158V2.38411ZM121.742 9.29633C121.769 9.70077 121.648 10.1012 121.402 10.4232C121.247 10.5683 121.062 10.6783 120.86 10.7458C120.658 10.8132 120.444 10.8366 120.233 10.8143H118.525V7.33621H120.165C120.386 7.31163 120.609 7.33294 120.82 7.39879C121.032 7.46463 121.228 7.5736 121.395 7.71881C121.647 8.04169 121.769 8.44677 121.738 8.855V9.29711L121.742 9.29633Z" fill="#CB2035"/>
<path d="M127.614 0.58252H125.379V12.6339H127.614V0.58252Z" fill="#CB2035"/>
<path d="M136.069 8.2823C135.936 7.88571 135.682 7.5409 135.343 7.29683C135.081 7.12596 134.788 7.00758 134.481 6.94824V6.8524C134.784 6.84096 135.082 6.76629 135.355 6.6332C135.627 6.5001 135.869 6.3115 136.065 6.07948C136.416 5.56446 136.588 4.94824 136.555 4.32573V3.70276C136.581 3.28213 136.521 2.86054 136.379 2.464C136.236 2.06746 136.013 1.70438 135.725 1.39714C134.979 0.78817 134.024 0.495467 133.065 0.581709H129.172V12.6331H131.35V8.20192H132.679C132.99 8.18513 133.3 8.26097 133.568 8.41988C133.789 8.56816 133.958 8.78084 134.054 9.02895C134.169 9.32906 134.235 9.64549 134.252 9.9665L134.483 12.6354H136.708L136.399 9.82505C136.341 9.30103 136.229 8.78446 136.064 8.28385L136.069 8.2823ZM132.822 6.44739H131.341V2.41275H132.831C133.048 2.3898 133.267 2.41604 133.472 2.48951C133.677 2.56299 133.862 2.6818 134.015 2.83708C134.269 3.20725 134.39 3.65285 134.358 4.10081V4.76938C134.391 5.21357 134.267 5.65516 134.01 6.01842C133.855 6.17253 133.669 6.29078 133.464 6.36479C133.259 6.43879 133.04 6.4675 132.822 6.44739Z" fill="#CB2035"/>
<path d="M140.334 0.58252H138.109V12.6339H144.096V10.7194H140.334V0.58252Z" fill="#CB2035"/>
<path d="M151.307 12.6339H153.514L150.93 0.58252H147.508L144.961 12.6339H147.148L147.726 9.55148H150.727L151.307 12.6339ZM148.061 7.76449L149.121 2.10671H149.328L150.393 7.76449H148.061Z" fill="#CB2035"/>
<path d="M72.5394 31.8363C72.0853 31.8769 71.6279 31.8119 71.2029 31.6465C70.778 31.481 70.3971 31.2195 70.09 30.8825C69.5391 30.1118 69.2693 29.1755 69.3257 28.2298V23.2059C69.2671 22.2477 69.526 21.2969 70.0622 20.5006C70.3491 20.1651 70.712 19.9028 71.1207 19.7357C71.5294 19.5686 71.9721 19.5015 72.4119 19.5399C73.0207 19.5276 73.6268 19.6247 74.2012 19.8266C74.6878 20.0078 75.1555 20.2358 75.5979 20.5076L75.3444 17.4159C75.0425 17.2225 74.7231 17.0576 74.3906 16.9236C73.9934 16.7641 73.5823 16.6419 73.1624 16.5587C72.6658 16.4611 72.1606 16.4143 71.6545 16.4188C69.6794 16.4188 68.2059 16.9856 67.2341 18.1193C66.2623 19.2529 65.7756 20.8855 65.7741 23.0173V28.379C65.6571 30.1439 66.1722 31.8928 67.2272 33.3125C68.1954 34.459 69.6807 35.0318 71.6831 35.0307C72.2035 35.0344 72.723 34.9852 73.2335 34.8839C73.67 34.7968 74.0977 34.67 74.5112 34.5052C74.8418 34.3749 75.1589 34.2126 75.458 34.0205L75.7107 30.8516C75.2782 31.143 74.8108 31.3791 74.3195 31.5542C73.7462 31.7506 73.143 31.8453 72.5371 31.8339L72.5394 31.8363Z" fill="#CB2035"/>
<path d="M82.1804 16.7642L78.1953 34.6959H81.6618L82.5499 30.162H87.199L88.0909 34.6959H91.5436L87.5584 16.7642H82.1819H82.1804ZM83.094 27.3872L84.7079 19.1494H85.0317L86.6548 27.3872H83.0994H83.094Z" fill="#CB2035"/>
<path d="M100.494 16.7642H94.6562V34.6959H98.0803V29.3195H100.508C102.435 29.3195 103.843 28.8635 104.732 27.9514C105.206 27.4062 105.567 26.7729 105.796 26.0879C106.024 25.403 106.116 24.6796 106.065 23.9593V22.1043C106.159 20.6602 105.677 19.2374 104.725 18.1477C103.832 17.2259 102.421 16.7647 100.494 16.7642ZM102.614 23.8751C102.665 24.5565 102.477 25.2344 102.082 25.7919C101.853 26.0234 101.576 26.2009 101.27 26.3115C100.964 26.4221 100.638 26.463 100.314 26.4311H98.0679V19.6395H100.314C100.639 19.6057 100.967 19.6449 101.274 19.7542C101.582 19.8634 101.861 20.04 102.092 20.2709C102.484 20.8321 102.67 21.512 102.617 22.1947V23.8797L102.614 23.8751Z" fill="#CB2035"/>
<path d="M112.897 16.7642H109.402V34.6998H112.897V16.7642Z" fill="#CB2035"/>
<path d="M116 19.7531H119.987V34.6998H123.48V19.7531H127.467V16.7642H116V19.7531Z" fill="#CB2035"/>
<path d="M131.899 16.7642L127.914 34.6959H131.381L132.269 30.162H136.918L137.81 34.6959H141.262L137.277 16.7642H131.901H131.899ZM132.81 27.3872L134.424 19.1494H134.748L136.371 27.3872H132.816H132.81Z" fill="#CB2035"/>
<path d="M147.704 31.697V16.7642H144.211V34.6959H153.57V31.697H147.704Z" fill="#CB2035"/>
<path d="M61.2221 35.8613H4.63672V0.13623H61.2221V35.8636V35.8613Z" fill="white"/>
<path d="M54.0701 0.775391L44.9102 15.7004L53.1086 25.9169L60.5781 22.4712V0.776936H54.0708L54.0701 0.775391Z" fill="#AF2026"/>
<path d="M53.1094 25.9147L60.5773 35.2214V22.4683L53.1094 25.9147Z" fill="#F15C2E"/>
<path d="M32.9297 0.775391L44.9046 15.7004L54.0699 0.775391H32.9297Z" fill="#F15C2E"/>
<path d="M41.6228 21.0591L44.9093 15.7004L32.9336 0.775391V18.6507H33.0148C36.0507 18.647 39.0297 19.4804 41.6228 21.0591Z" fill="#FBD440"/>
<path d="M33.0109 18.6485H32.9297V35.223L41.622 21.0585C39.0279 19.4784 36.0483 18.6445 33.0109 18.6485Z" fill="#AF2026"/>
<path d="M48.0503 28.249L53.1098 25.9164L44.9091 15.6968L41.6211 21.0555C44.4266 22.7641 46.6632 25.2653 48.0487 28.2436" fill="#F15C2E"/>
<path d="M41.622 21.0582L32.9297 35.2228L48.048 28.2433C46.6628 25.2655 44.4271 22.7644 41.6228 21.0552" fill="#D91F27"/>
<path d="M53.1103 25.9165L48.0508 28.2491C49.066 30.4337 49.5902 32.8142 49.5865 35.2232H60.5775L53.1103 25.9165Z" fill="#FBD440"/>
<path d="M32.9297 35.2206H49.5838C49.5855 32.8121 49.0619 30.4321 48.0496 28.2466L32.9297 35.2206Z" fill="#AF2026"/>
<path d="M5.28516 0.774494V22.4688L12.7515 25.9145L20.9522 15.6981L11.79 0.772949H5.28516V0.774494Z" fill="#AF2026"/>
<path d="M5.28516 35.2246L12.7515 25.9148L5.28516 22.4692V35.2262V35.2246Z" fill="#F15C2E"/>
<path d="M11.793 0.775391L20.9529 15.7004L32.9331 0.775391H11.793Z" fill="#F15C2E"/>
<path d="M24.2411 21.0591L20.9531 15.7004L32.928 0.775391V18.6507H32.8507C29.8132 18.646 26.8334 19.48 24.2396 21.0606" fill="#D91F27"/>
<path d="M32.8533 18.6484H32.9306V35.2229L24.2422 21.0584C26.8364 19.4786 29.8159 18.6447 32.8533 18.6484Z" fill="#F15C2E"/>
<path d="M17.8174 28.249L12.7578 25.9164L20.9562 15.6968L24.2442 21.0555C21.4387 22.764 19.2021 25.2653 17.8166 28.2436" fill="#F15C2E"/>
<path d="M24.2393 21.0582L32.9285 35.2228L17.8086 28.2433C19.1953 25.2657 21.4316 22.7648 24.2362 21.0552" fill="#D91F27"/>
<path d="M12.7531 25.9165L17.8126 28.2491C16.797 30.4335 16.2732 32.8142 16.2783 35.2232H5.28516L12.7531 25.9165Z" fill="#FBD440"/>
<path d="M32.9315 35.2206H16.2774C16.274 32.8119 16.7977 30.4315 17.8116 28.2466L32.9315 35.2206Z" fill="#AF2026"/>
</svg>
