<svg width="159" height="36" viewBox="0 0 159 36" fill="none" xmlns="http://www.w3.org/2000/svg">
<path d="M68.6249 0.582458L66.0781 12.6338H68.2655L68.8421 9.55142H71.8434L72.4238 12.6338H74.6305L72.0474 0.582458H68.6249ZM69.1791 7.77061L70.2387 2.11284H70.4459L71.511 7.77061H69.1775H69.1791Z" fill="#CB2035"/>
<path d="M68.6249 0.582458L66.0781 12.6338H68.2655L68.8421 9.55142H71.8434L72.4238 12.6338H74.6305L72.0474 0.582458H68.6249ZM69.1791 7.77061L70.2387 2.11284H70.4459L71.511 7.77061H69.1775H69.1791Z" fill="#CB2035"/>
<path d="M79.4413 0.582321H75.8086V12.6337H79.4413C79.9929 12.6791 80.548 12.6104 81.072 12.432C81.5959 12.2535 82.0774 11.9691 82.4867 11.5964C83.1946 10.7711 83.5504 9.70095 83.4775 8.61605V4.59687C83.5154 4.05738 83.4466 3.51572 83.275 3.00286C83.1033 2.49 82.8323 2.016 82.4773 1.60799C82.0673 1.24003 81.5867 0.959343 81.0648 0.783016C80.5429 0.606689 79.9905 0.538403 79.4413 0.582321ZM81.2608 8.606C81.3017 9.17789 81.1345 9.7453 80.79 10.2036C80.6024 10.3949 80.375 10.5426 80.1238 10.6361C79.8727 10.7296 79.604 10.7667 79.3369 10.7447H77.9975V2.43887H79.3369C79.6045 2.41709 79.8735 2.45479 80.1248 2.54927C80.376 2.64375 80.6032 2.79266 80.79 2.98533C81.136 3.45266 81.303 4.02854 81.2608 4.60846V8.606Z" fill="#CB2035"/>
<path d="M87.3251 0.582336H85.0898V12.6337H87.3251V0.582336Z" fill="#CB2035"/>
<path d="M88.6602 2.48372H91.2332V12.6306H93.4508V2.48372H96.0153V0.582336H88.661L88.6602 2.48372Z" fill="#CB2035"/>
<path d="M104.918 0.582336H102.655L101.418 4.53428L100.834 6.60802H100.711L100.136 4.53428L98.8626 0.582336H96.6211L99.7035 9.05895V12.6337H101.845V9.08368L104.918 0.582336Z" fill="#CB2035"/>
<path d="M106.617 0.582336L104.07 12.6337H106.258L106.834 9.5513H109.834L110.414 12.6337H112.621L110.037 0.582336H106.615H106.617ZM107.171 7.77049L108.232 2.11272H108.439L109.504 7.77049H107.174H107.171Z" fill="#CB2035"/>
<path d="M121.808 6.18367V6.09014C122.094 6.07601 122.373 6.00541 122.632 5.88243C122.89 5.75945 123.121 5.58652 123.312 5.37364C123.64 4.90588 123.801 4.34112 123.769 3.77061V3.46995C123.795 3.07553 123.737 2.68 123.598 2.31001C123.459 1.94001 123.242 1.60416 122.962 1.32509C122.201 0.762031 121.259 0.498741 120.316 0.585408H116.375V12.6368H120.486C120.958 12.6804 121.433 12.6304 121.886 12.4895C122.338 12.3486 122.758 12.1197 123.121 11.8159C123.412 11.485 123.634 11.0994 123.774 10.6816C123.914 10.2638 123.97 9.82225 123.937 9.38278V8.91903C123.974 8.26201 123.805 7.6099 123.456 7.05243C123.253 6.8039 123.003 6.59894 122.719 6.44989C122.435 6.30085 122.124 6.21081 121.805 6.18521L121.808 6.18367ZM120.158 2.38399C120.362 2.36178 120.567 2.38401 120.761 2.44914C120.955 2.51427 121.132 2.62074 121.281 2.76118C121.515 3.07879 121.629 3.4696 121.601 3.86336V4.14625C121.626 4.53877 121.508 4.92716 121.27 5.23993C121.121 5.3827 120.943 5.49125 120.747 5.55799C120.552 5.62474 120.344 5.64808 120.139 5.62639H118.527V2.38013H120.158V2.38399ZM121.742 9.29621C121.769 9.70065 121.648 10.1011 121.402 10.4231C121.247 10.5682 121.062 10.6782 120.86 10.7457C120.658 10.8131 120.444 10.8365 120.233 10.8142H118.525V7.33609H120.165C120.386 7.31151 120.609 7.33282 120.82 7.39867C121.032 7.46451 121.228 7.57348 121.395 7.71869C121.647 8.04157 121.769 8.44665 121.738 8.85488V9.29699L121.742 9.29621Z" fill="#CB2035"/>
<path d="M127.614 0.582336H125.379V12.6337H127.614V0.582336Z" fill="#CB2035"/>
<path d="M136.069 8.28212C135.936 7.88553 135.682 7.54072 135.343 7.29665C135.081 7.12578 134.788 7.0074 134.481 6.94806V6.85222C134.784 6.84078 135.082 6.76611 135.355 6.63302C135.627 6.49992 135.869 6.31132 136.065 6.0793C136.416 5.56428 136.588 4.94806 136.555 4.32555V3.70258C136.581 3.28195 136.521 2.86036 136.379 2.46382C136.236 2.06728 136.013 1.7042 135.725 1.39696C134.979 0.787987 134.024 0.495284 133.065 0.581526H129.172V12.6329H131.35V8.20174H132.679C132.99 8.18495 133.3 8.26079 133.568 8.4197C133.789 8.56798 133.958 8.78066 134.054 9.02877C134.169 9.32888 134.235 9.64531 134.252 9.96632L134.483 12.6352H136.708L136.399 9.82487C136.341 9.30085 136.229 8.78428 136.064 8.28367L136.069 8.28212ZM132.822 6.44721H131.341V2.41257H132.831C133.048 2.38962 133.267 2.41586 133.472 2.48933C133.677 2.56281 133.862 2.68162 134.015 2.8369C134.269 3.20707 134.39 3.65267 134.358 4.10063V4.7692C134.391 5.21339 134.267 5.65498 134.01 6.01824C133.855 6.17235 133.669 6.2906 133.464 6.36461C133.259 6.43861 133.04 6.46732 132.822 6.44721Z" fill="#CB2035"/>
<path d="M140.334 0.582336H138.109V12.6337H144.096V10.7192H140.334V0.582336Z" fill="#CB2035"/>
<path d="M151.307 12.6337H153.514L150.93 0.582336H147.508L144.961 12.6337H147.148L147.726 9.5513H150.727L151.307 12.6337ZM148.061 7.76431L149.121 2.10653H149.328L150.393 7.76431H148.061Z" fill="#CB2035"/>
<path d="M72.5394 31.8361C72.0853 31.8767 71.6279 31.8117 71.2029 31.6463C70.778 31.4808 70.3971 31.2193 70.09 30.8823C69.5391 30.1116 69.2693 29.1753 69.3257 28.2296V23.2057C69.2671 22.2475 69.526 21.2967 70.0622 20.5004C70.3491 20.1649 70.712 19.9026 71.1207 19.7355C71.5294 19.5684 71.9721 19.5013 72.4119 19.5397C73.0207 19.5274 73.6268 19.6245 74.2012 19.8264C74.6878 20.0076 75.1555 20.2356 75.5979 20.5074L75.3444 17.4157C75.0425 17.2223 74.7231 17.0574 74.3906 16.9234C73.9934 16.7639 73.5823 16.6417 73.1624 16.5585C72.6658 16.4609 72.1606 16.4141 71.6545 16.4186C69.6794 16.4186 68.2059 16.9854 67.2341 18.1191C66.2623 19.2527 65.7756 20.8853 65.7741 23.0171V28.3788C65.6571 30.1437 66.1722 31.8926 67.2272 33.3123C68.1954 34.4588 69.6807 35.0316 71.6831 35.0305C72.2035 35.0342 72.723 34.985 73.2335 34.8837C73.67 34.7966 74.0977 34.6698 74.5112 34.505C74.8418 34.3747 75.1589 34.2124 75.458 34.0203L75.7107 30.8514C75.2782 31.1428 74.8108 31.3789 74.3195 31.554C73.7462 31.7504 73.143 31.8451 72.5371 31.8337L72.5394 31.8361Z" fill="#CB2035"/>
<path d="M82.1804 16.7641L78.1953 34.6958H81.6618L82.5499 30.1619H87.199L88.0909 34.6958H91.5436L87.5584 16.7641H82.1819H82.1804ZM83.094 27.3871L84.7079 19.1493H85.0317L86.6548 27.3871H83.0994H83.094Z" fill="#CB2035"/>
<path d="M100.494 16.7641H94.6562V34.6958H98.0803V29.3194H100.508C102.435 29.3194 103.843 28.8634 104.732 27.9513C105.206 27.4061 105.567 26.7728 105.796 26.0878C106.024 25.4029 106.116 24.6795 106.065 23.9592V22.1042C106.159 20.6601 105.677 19.2373 104.725 18.1476C103.832 17.2258 102.421 16.7646 100.494 16.7641ZM102.614 23.875C102.665 24.5564 102.477 25.2343 102.082 25.7918C101.853 26.0233 101.576 26.2008 101.27 26.3114C100.964 26.422 100.638 26.4629 100.314 26.431H98.0679V19.6394H100.314C100.639 19.6056 100.967 19.6448 101.274 19.7541C101.582 19.8633 101.861 20.0399 102.092 20.2708C102.484 20.832 102.67 21.5119 102.617 22.1946V23.8796L102.614 23.875Z" fill="#CB2035"/>
<path d="M112.897 16.7641H109.402V34.6997H112.897V16.7641Z" fill="#CB2035"/>
<path d="M116 19.753H119.987V34.6997H123.48V19.753H127.467V16.7641H116V19.753Z" fill="#CB2035"/>
<path d="M131.899 16.7641L127.914 34.6958H131.381L132.269 30.1619H136.918L137.81 34.6958H141.262L137.277 16.7641H131.901H131.899ZM132.81 27.3871L134.424 19.1493H134.748L136.371 27.3871H132.816H132.81Z" fill="#CB2035"/>
<path d="M147.704 31.6969V16.7641H144.211V34.6958H153.57V31.6969H147.704Z" fill="#CB2035"/>
<path d="M61.2221 35.8614H4.63672V0.136292H61.2221V35.8637V35.8614Z" fill="white"/>
<path d="M54.0701 0.775452L44.9102 15.7005L53.1086 25.917L60.5781 22.4713V0.776997H54.0708L54.0701 0.775452Z" fill="#AF2026"/>
<path d="M53.1094 25.9147L60.5773 35.2214V22.4683L53.1094 25.9147Z" fill="#F15C2E"/>
<path d="M32.9297 0.775452L44.9046 15.7005L54.0699 0.775452H32.9297Z" fill="#F15C2E"/>
<path d="M41.6228 21.0592L44.9093 15.7005L32.9336 0.775452V18.6508H33.0148C36.0507 18.6471 39.0297 19.4805 41.6228 21.0592Z" fill="#FBD440"/>
<path d="M33.0109 18.6485H32.9297V35.223L41.622 21.0585C39.0279 19.4784 36.0483 18.6445 33.0109 18.6485Z" fill="#AF2026"/>
<path d="M48.0503 28.2489L53.1098 25.9163L44.9091 15.6967L41.6211 21.0554C44.4266 22.764 46.6632 25.2652 48.0487 28.2435" fill="#F15C2E"/>
<path d="M41.622 21.0584L32.9297 35.223L48.048 28.2435C46.6628 25.2657 44.4271 22.7646 41.6228 21.0554" fill="#D91F27"/>
<path d="M53.1103 25.9163L48.0508 28.2489C49.066 30.4335 49.5902 32.814 49.5865 35.223H60.5775L53.1103 25.9163Z" fill="#FBD440"/>
<path d="M32.9297 35.2206H49.5838C49.5855 32.8121 49.0619 30.4321 48.0496 28.2466L32.9297 35.2206Z" fill="#AF2026"/>
<path d="M5.28516 0.774738V22.469L12.7515 25.9147L20.9522 15.6983L11.79 0.773193H5.28516V0.774738Z" fill="#AF2026"/>
<path d="M5.28516 35.2245L12.7515 25.9147L5.28516 22.4691V35.2261V35.2245Z" fill="#F15C2E"/>
<path d="M11.793 0.775452L20.9529 15.7005L32.9331 0.775452H11.793Z" fill="#F15C2E"/>
<path d="M24.2411 21.0592L20.9531 15.7005L32.928 0.775452V18.6508H32.8507C29.8132 18.6461 26.8334 19.4801 24.2396 21.0607" fill="#D91F27"/>
<path d="M32.8533 18.6485H32.9306V35.223L24.2422 21.0585C26.8364 19.4787 29.8159 18.6448 32.8533 18.6485Z" fill="#F15C2E"/>
<path d="M17.8174 28.2489L12.7578 25.9163L20.9562 15.6967L24.2442 21.0554C21.4387 22.7639 19.2021 25.2652 17.8166 28.2435" fill="#F15C2E"/>
<path d="M24.2393 21.0584L32.9285 35.223L17.8086 28.2435C19.1953 25.2659 21.4316 22.765 24.2362 21.0554" fill="#D91F27"/>
<path d="M12.7531 25.9163L17.8126 28.2489C16.797 30.4333 16.2732 32.814 16.2783 35.223H5.28516L12.7531 25.9163Z" fill="#FBD440"/>
<path d="M32.9315 35.2206H16.2774C16.274 32.8119 16.7977 30.4315 17.8116 28.2466L32.9315 35.2206Z" fill="#AF2026"/>
</svg>
