<svg width="48" height="36" viewBox="0 0 48 36" fill="none" xmlns="http://www.w3.org/2000/svg">
<g clip-path="url(#clip0_2313_4901)">
<path fill-rule="evenodd" clip-rule="evenodd" d="M18.0968 3.04894C14.9288 4.72365 11.7513 6.40055 11.0358 6.77527C4.23364 10.3372 0.00935139 12.6002 0.0313354 12.6706C0.0561034 12.7494 23.8766 25.3615 24.0007 25.3615C24.0678 25.3615 47.5688 12.9673 47.8808 12.7673C48.0859 12.636 48.2025 12.3675 48.0009 12.4907C47.9261 12.5365 42.3736 9.6604 36.8168 6.69767C31.7793 4.01173 24.0964 0.000528702 23.9925 0.0019535C23.9179 0.00299836 21.2648 1.37413 18.0968 3.04894ZM22.74 2.44824L21.5273 3.08713L23.556 3.09168C24.7344 3.09425 25.823 3.14393 26.153 3.21013C26.4656 3.27282 26.7365 3.30911 26.755 3.29078C26.7871 3.25905 24.0742 1.80224 23.992 1.80708C23.9705 1.80841 23.407 2.09689 22.74 2.44824ZM29.9593 5.0941C30.3531 5.52981 30.5107 5.83015 30.7337 6.57124C30.9341 7.23719 30.9458 7.49736 31.0109 12.7283C31.0672 17.2459 31.1057 18.3033 31.2337 18.845C31.3189 19.2052 31.4091 19.5201 31.4342 19.5449C31.4592 19.5697 32.9398 18.8193 34.7243 17.8773C38.9518 15.6459 39.4588 15.3786 42.2226 13.9243C43.5042 13.2499 44.5185 12.6652 44.4767 12.625C44.4124 12.5632 31.032 5.48212 30.0488 4.98962L29.7128 4.82139L29.9593 5.0941ZM10.1768 9.08022C6.56001 10.9893 3.5673 12.5836 3.52641 12.6231C3.46391 12.6835 5.19345 13.6252 9.93681 16.1132C10.3592 16.3348 11.9144 17.1562 13.3928 17.9385C14.8712 18.7208 16.0887 19.3531 16.0984 19.3438C16.1081 19.3344 15.9675 19.0282 15.7861 18.6633C14.8216 16.7241 15.1865 14.2563 16.6568 12.7745C17.5915 11.8326 19.0129 11.2688 21.91 10.691C23.7712 10.3198 25.6399 9.86301 26.046 9.67997C26.2731 9.57748 26.3048 9.50918 26.3048 9.12078C26.3048 8.87743 26.239 8.45891 26.1584 8.19067C25.8281 7.08996 25.2142 6.79161 23.2808 6.79171C22.1065 6.79171 22.0033 6.80709 21.5348 7.05149C20.9921 7.33456 20.7029 7.66141 20.3121 8.43374C20.0707 8.91077 20.0422 8.93356 19.7494 8.88474C18.4356 8.66589 15.8048 8.16503 15.7657 8.12627C15.6826 8.04411 16.2248 6.68542 16.5616 6.13221C16.7382 5.84184 16.8535 5.60542 16.8178 5.60675C16.7821 5.60808 13.7936 7.17118 10.1768 9.08022ZM24.7208 13.1407C21.3458 13.9426 20.8436 14.139 20.3747 14.84C20.1548 15.1689 20.1134 15.3316 20.1164 15.8559C20.1219 16.8336 20.5874 17.534 21.5048 17.9449C22.3239 18.3117 23.7364 18.1529 24.6728 17.5887C25.0858 17.3397 25.7371 16.6847 25.9206 16.3336C26.1589 15.8777 26.3226 14.6686 26.2865 13.6307L26.2568 12.7758L24.7208 13.1407ZM25.9688 19.9067C24.5386 21.0068 23.3168 21.4548 21.525 21.5363L20.3451 21.59L20.7315 21.8072C20.944 21.9266 21.7126 22.3326 22.4394 22.7093C23.1662 23.0861 23.8149 23.4361 23.8808 23.4872C23.9586 23.5474 24.043 23.5476 24.1208 23.4876C24.1869 23.4368 24.8024 23.1028 25.4888 22.7455C26.1752 22.3882 27.1256 21.891 27.6008 21.6407L28.4648 21.1857L27.8679 21.1839L27.271 21.1821L27.0279 20.3935C26.8942 19.9599 26.7848 19.5539 26.7848 19.4912C26.7848 19.3071 26.6772 19.3619 25.9688 19.9067ZM26.7185 26.7653L25.4521 26.7917L23.6465 28.7082L21.8408 30.6246L21.8148 28.7055L21.7889 26.7863H20.7828H19.7768V31.3932V36.0001H20.7848H21.7928V34.5966V33.1932L22.5061 32.4921L23.2195 31.791L23.472 32.2095C23.611 32.4397 24.1769 33.3868 24.7295 34.314L25.7346 36.0001H27.0239H28.3133L26.5265 33.3167C25.5436 31.8408 24.7194 30.5578 24.6946 30.4655C24.6624 30.3457 25.1493 29.7987 26.3971 28.5524C27.3582 27.5926 28.1086 26.7918 28.0648 26.773C28.0208 26.7542 27.415 26.7507 26.7185 26.7653ZM5.00097 26.9969C4.95393 27.1162 4.21607 28.9877 3.36119 31.1557C2.50641 33.3238 1.72871 35.3007 1.6331 35.5489L1.45924 36.0001L2.53002 35.9995L3.60081 35.999L3.9442 35.0259L4.28759 34.0528H6.15047H8.01345L8.38938 35.0264L8.76532 36.0001H9.84321H10.921L9.95697 33.6016C9.42676 32.2826 8.59799 30.2201 8.1154 29.0185L7.23786 26.8338L6.16218 26.8069C5.11924 26.7809 5.08382 26.7867 5.00097 26.9969ZM11.8728 26.8497C11.8376 26.8845 11.8088 28.9575 11.8088 31.4566V36.0001H15.1688H18.5288V35.1927V34.3853H16.1768H13.8248V30.5858V26.7863H12.8808C12.3616 26.7863 11.908 26.8148 11.8728 26.8497ZM29.1848 31.3932V36.0001H32.7887H36.3926L36.3646 35.2164L36.3368 34.4328L33.7688 34.4075L31.2008 34.3821V33.1964V32.0106H33.5048H35.8088V31.1557V30.3008H33.5048H31.2008V29.3526V28.4043L33.6728 28.379L36.1448 28.3536L36.1726 27.57L36.2006 26.7863H32.6926H29.1848V31.3932ZM37.8248 31.3907V36.0001H38.7368H39.6488L39.6582 32.6518L39.6677 29.3035L40.5069 32.628L41.346 35.9526H42.3389H43.3318L44.1543 32.6819L44.9768 29.4112L45.0021 32.7056L45.0273 36.0001H45.9381H46.8488V31.3932V26.7863H45.3824H43.916L43.7623 27.4275C43.4887 28.569 42.4166 32.6269 42.3784 32.6654C42.3272 32.7169 42.2966 32.6182 41.8957 31.1082C41.7015 30.3768 41.3637 29.1159 41.145 28.3061L40.7473 26.8338L39.286 26.8076L37.8248 26.7814V31.3907ZM5.56881 30.6144C5.27841 31.4078 5.02689 32.1106 5.0098 32.1763C4.98609 32.2671 5.25518 32.2956 6.1378 32.2956C6.77524 32.2956 7.29681 32.2763 7.29681 32.2527C7.29681 32.1608 6.21662 29.2996 6.15854 29.2376C6.12455 29.2014 5.85921 29.8209 5.56881 30.6144Z" fill="#144497"/>
</g>
<defs>
<clipPath id="clip0_2313_4901">
<rect width="48" height="36" fill="white"/>
</clipPath>
</defs>
</svg>
