<svg width="48" height="36" viewBox="0 0 48 36" fill="none" xmlns="http://www.w3.org/2000/svg">
<g clip-path="url(#clip0_2313_4901)">
<path fill-rule="evenodd" clip-rule="evenodd" d="M18.0968 3.04888C14.9288 4.72359 11.7513 6.40049 11.0358 6.77521C4.23364 10.3371 0.00935139 12.6002 0.0313354 12.6706C0.0561034 12.7493 23.8766 25.3615 24.0007 25.3615C24.0678 25.3615 47.5688 12.9672 47.8808 12.7673C48.0859 12.6359 48.2025 12.3675 48.0009 12.4907C47.9261 12.5364 42.3736 9.66034 36.8168 6.69761C31.7793 4.01167 24.0964 0.000467667 23.9925 0.00189247C23.9179 0.00293732 21.2648 1.37407 18.0968 3.04888ZM22.74 2.44818L21.5273 3.08706L23.556 3.09162C24.7344 3.09419 25.823 3.14387 26.153 3.21007C26.4656 3.27276 26.7365 3.30905 26.755 3.29072C26.7871 3.25899 24.0742 1.80218 23.992 1.80702C23.9705 1.80835 23.407 2.09683 22.74 2.44818ZM29.9593 5.09404C30.3531 5.52975 30.5107 5.83009 30.7337 6.57118C30.9341 7.23713 30.9458 7.4973 31.0109 12.7282C31.0672 17.2458 31.1057 18.3032 31.2337 18.8449C31.3189 19.2051 31.4091 19.5201 31.4342 19.5449C31.4592 19.5697 32.9398 18.8193 34.7243 17.8773C38.9518 15.6458 39.4588 15.3785 42.2226 13.9242C43.5042 13.2498 44.5185 12.6652 44.4767 12.625C44.4124 12.5631 31.032 5.48206 30.0488 4.98955L29.7128 4.82133L29.9593 5.09404ZM10.1768 9.08016C6.56001 10.9892 3.5673 12.5836 3.52641 12.6231C3.46391 12.6835 5.19345 13.6252 9.93681 16.1132C10.3592 16.3348 11.9144 17.1561 13.3928 17.9384C14.8712 18.7208 16.0887 19.3531 16.0984 19.3438C16.1081 19.3344 15.9675 19.0281 15.7861 18.6633C14.8216 16.724 15.1865 14.2563 16.6568 12.7745C17.5915 11.8325 19.0129 11.2688 21.91 10.6909C23.7712 10.3197 25.6399 9.86295 26.046 9.67991C26.2731 9.57742 26.3048 9.50912 26.3048 9.12072C26.3048 8.87737 26.239 8.45885 26.1584 8.19061C25.8281 7.0899 25.2142 6.79155 23.2808 6.79164C22.1065 6.79164 22.0033 6.80703 21.5348 7.05143C20.9921 7.33449 20.7029 7.66134 20.3121 8.43368C20.0707 8.91071 20.0422 8.9335 19.7494 8.88468C18.4356 8.66583 15.8048 8.16496 15.7657 8.12621C15.6826 8.04405 16.2248 6.68535 16.5616 6.13215C16.7382 5.84178 16.8535 5.60535 16.8178 5.60668C16.7821 5.60801 13.7936 7.17112 10.1768 9.08016ZM24.7208 13.1407C21.3458 13.9425 20.8436 14.139 20.3747 14.84C20.1548 15.1688 20.1134 15.3315 20.1164 15.8559C20.1219 16.8336 20.5874 17.5339 21.5048 17.9448C22.3239 18.3116 23.7364 18.1528 24.6728 17.5886C25.0858 17.3396 25.7371 16.6846 25.9206 16.3335C26.1589 15.8776 26.3226 14.6685 26.2865 13.6306L26.2568 12.7757L24.7208 13.1407ZM25.9688 19.9067C24.5386 21.0067 23.3168 21.4548 21.525 21.5363L20.3451 21.5899L20.7315 21.8072C20.944 21.9266 21.7126 22.3325 22.4394 22.7093C23.1662 23.0861 23.8149 23.4361 23.8808 23.4871C23.9586 23.5473 24.043 23.5475 24.1208 23.4876C24.1869 23.4368 24.8024 23.1028 25.4888 22.7454C26.1752 22.3881 27.1256 21.8909 27.6008 21.6406L28.4648 21.1857L27.8679 21.1839L27.271 21.1821L27.0279 20.3935C26.8942 19.9599 26.7848 19.5538 26.7848 19.4911C26.7848 19.307 26.6772 19.3618 25.9688 19.9067ZM26.7185 26.7653L25.4521 26.7917L23.6465 28.7081L21.8408 30.6245L21.8148 28.7054L21.7889 26.7863H20.7828H19.7768V31.3931V36H20.7848H21.7928V34.5966V33.1931L22.5061 32.492L23.2195 31.7909L23.472 32.2094C23.611 32.4396 24.1769 33.3867 24.7295 34.314L25.7346 36H27.0239H28.3133L26.5265 33.3166C25.5436 31.8407 24.7194 30.5577 24.6946 30.4654C24.6624 30.3456 25.1493 29.7986 26.3971 28.5524C27.3582 27.5925 28.1086 26.7918 28.0648 26.773C28.0208 26.7542 27.415 26.7507 26.7185 26.7653ZM5.00097 26.9969C4.95393 27.1162 4.21607 28.9876 3.36119 31.1557C2.50641 33.3237 1.72871 35.3006 1.6331 35.5488L1.45924 36L2.53002 35.9994L3.60081 35.999L3.9442 35.0258L4.28759 34.0528H6.15047H8.01345L8.38938 35.0264L8.76532 36H9.84321H10.921L9.95697 33.6016C9.42676 32.2825 8.59799 30.22 8.1154 29.0185L7.23786 26.8338L6.16218 26.8069C5.11924 26.7809 5.08382 26.7867 5.00097 26.9969ZM11.8728 26.8496C11.8376 26.8844 11.8088 28.9575 11.8088 31.4565V36H15.1688H18.5288V35.1926V34.3852H16.1768H13.8248V30.5857V26.7863H12.8808C12.3616 26.7863 11.908 26.8148 11.8728 26.8496ZM29.1848 31.3931V36H32.7887H36.3926L36.3646 35.2164L36.3368 34.4327L33.7688 34.4074L31.2008 34.3821V33.1964V32.0105H33.5048H35.8088V31.1557V30.3008H33.5048H31.2008V29.3525V28.4043L33.6728 28.3789L36.1448 28.3536L36.1726 27.5699L36.2006 26.7863H32.6926H29.1848V31.3931ZM37.8248 31.3907V36H38.7368H39.6488L39.6582 32.6517L39.6677 29.3034L40.5069 32.628L41.346 35.9525H42.3389H43.3318L44.1543 32.6818L44.9768 29.4111L45.0021 32.7056L45.0273 36H45.9381H46.8488V31.3931V26.7863H45.3824H43.916L43.7623 27.4274C43.4887 28.569 42.4166 32.6268 42.3784 32.6653C42.3272 32.7169 42.2966 32.6182 41.8957 31.1082C41.7015 30.3768 41.3637 29.1158 41.145 28.3061L40.7473 26.8338L39.286 26.8076L37.8248 26.7813V31.3907ZM5.56881 30.6143C5.27841 31.4078 5.02689 32.1106 5.0098 32.1762C4.98609 32.267 5.25518 32.2955 6.1378 32.2955C6.77524 32.2955 7.29681 32.2762 7.29681 32.2527C7.29681 32.1607 6.21662 29.2995 6.15854 29.2375C6.12455 29.2013 5.85921 29.8208 5.56881 30.6143Z" fill="#144497"/>
</g>
<defs>
<clipPath id="clip0_2313_4901">
<rect width="48" height="36" fill="white"/>
</clipPath>
</defs>
</svg>
