<svg width="145" height="36" viewBox="0 0 145 36" fill="none" xmlns="http://www.w3.org/2000/svg">
<path fill-rule="evenodd" clip-rule="evenodd" d="M6.49617 31.1603L6.55184 31.161H6.61115L6.67285 31.1617H6.73576L6.80231 31.1624H6.87249L6.94387 31.1631H7.02012H7.09637H7.17622L7.26091 31.1638H9.23211L9.3156 31.1631H9.39545H9.47531H9.54912L9.62414 31.1624H9.69432L9.7621 31.1617H9.82864L9.89279 31.161H9.95209L10.0102 31.1603L10.067 31.1596H10.1203L10.1711 31.1589L10.2195 31.1582L10.2655 31.1575L10.3551 31.1555L10.4446 31.1535L10.5305 31.1514L10.6152 31.1494L10.6757 31.1473L8.28949 28.1998L5.90687 31.1481L5.93602 31.1495L6.01468 31.1515L6.09213 31.1536L6.17198 31.1556L6.25547 31.1576L6.29783 31.1584L6.34383 31.159L6.39103 31.1597H6.44306L6.49617 31.1603ZM1.20212 34.8853L1.31347 34.8063L1.42601 34.7223L1.53975 34.6348L1.65593 34.5428L1.77331 34.448L1.83261 34.3991L1.88948 34.3489L1.94879 34.2986L2.0081 34.2469L2.0674 34.1952L2.12671 34.1413L2.18602 34.0882L2.24532 34.0337L2.30463 33.9783L2.36394 33.9224L2.42444 33.8656L2.48375 33.8082L2.54306 33.75L2.60236 33.6904L2.66287 33.6316L2.72218 33.5713L2.78269 33.5097L2.84199 33.448L2.9025 33.3856L2.96301 33.3217L3.02351 33.257L3.08282 33.1931L3.14333 33.1269L3.20383 33.0602L3.26434 32.9934L3.32485 32.9253L3.38536 32.8563L3.44586 32.7873L3.50637 32.7163L3.56688 32.6459L3.62738 32.5741L3.68909 32.5016L8.73144 26.4307H9.10777L14.4659 32.5519L14.5579 32.6581L14.6499 32.7615L14.7394 32.8634L14.8266 32.9625L14.9125 33.0594L14.996 33.1542L15.0807 33.2462L15.1605 33.3365L15.2416 33.424L15.319 33.5095L15.3953 33.5927L15.4703 33.6731L15.5441 33.752L15.6143 33.8289L15.6857 33.9028L15.7522 33.9738L15.82 34.0434L15.8853 34.111L15.9495 34.1755L16.01 34.238L16.0717 34.2982L16.1298 34.3556L16.1878 34.4109L16.2423 34.4648L16.2967 34.5151L16.3488 34.5639L16.3996 34.6099L16.448 34.6545L16.4952 34.6954L16.5412 34.7349L16.5848 34.7715L16.6259 34.8059L16.7094 34.8712L16.7929 34.9329L16.874 34.9925L16.9574 35.0493L17.0373 35.1032L17.1183 35.1526L17.1994 35.2007L17.2781 35.2452L17.3567 35.2869L17.4342 35.325L17.5116 35.3608L17.5879 35.3932L17.6641 35.4227L17.7379 35.4499L17.8117 35.4735L17.9981 35.5275L17.9593 35.7823L17.7137 35.7742L17.6411 35.7721L17.5697 35.7701L17.4995 35.7681L17.4197 35.766L17.2926 35.762L17.2237 35.7599L17.1583 35.7579L17.0918 35.7558L17.0252 35.7544L16.9599 35.7529L16.897 35.7515L16.8328 35.7494L16.7699 35.7488L16.707 35.7473L16.6453 35.7458L16.5836 35.7444L16.5231 35.7437L16.4638 35.743L16.4045 35.7415L16.3476 35.7408L16.2895 35.7401L16.2327 35.7394H16.177L16.1214 35.7387H16.0657H16.0112L15.958 35.738H15.9048H15.8527H15.7305H15.6567H15.5817L15.5042 35.7387H15.4256H15.3445L15.2598 35.7394H15.1751L15.088 35.7401L14.9972 35.7408L14.9064 35.7423L14.8133 35.743L14.7177 35.7437L14.6197 35.7444L14.5204 35.7458L14.4188 35.7473L14.3147 35.7488L14.2082 35.7502L14.1005 35.7517L13.9904 35.7531L13.8791 35.7546L13.7653 35.7566L13.6504 35.7581L13.533 35.7601L13.4144 35.7621L13.2922 35.7642L13.17 35.7662L13.0454 35.7677L12.9195 35.7697L12.7913 35.7717L12.3447 35.7799V35.5164L12.5287 35.4769L12.5928 35.4627L12.6533 35.4484L12.7114 35.4342L12.7659 35.42L12.8179 35.4037L12.8675 35.3894L12.9135 35.3732L12.9583 35.3589L12.9982 35.3426L13.0357 35.3264L13.0732 35.3121L13.1058 35.2958L13.135 35.2795L13.1628 35.2653L13.1844 35.2511L13.2291 35.2187L13.2679 35.1849L13.2994 35.1477L13.3262 35.1074L13.3468 35.0628L13.3625 35.0148L13.3721 34.9631L13.3746 34.9072V34.8836L13.3721 34.8563L13.3673 34.8276L13.3612 34.7975L13.3526 34.7651L13.3416 34.7314L13.3296 34.6947L13.3152 34.6575L13.2994 34.6172L13.2802 34.5769L13.261 34.5338L13.2366 34.4892L13.2137 34.4426L13.1859 34.3952L13.1567 34.3457L13.1252 34.2941L13.1084 34.2682L13.0902 34.2401L13.072 34.2114L13.0514 34.1813L13.0295 34.1504L13.0089 34.1174L12.9845 34.0837L12.9602 34.0493L12.9334 34.0126L12.9067 33.9746L12.8789 33.9365L12.8497 33.8962L12.8195 33.8545L12.788 33.8122L12.7554 33.7691L12.7228 33.7239L12.6865 33.6779L12.6514 33.6305L12.6151 33.5825L12.5764 33.533L12.5377 33.4821L12.4978 33.4296L12.4566 33.3765L12.4143 33.322L12.3695 33.266L12.28 33.1519L12.2328 33.0916L12.1856 33.0314L12.1359 32.9689L12.0863 32.9065L12.0355 32.8418L11.1388 31.714L11.0904 31.7126L11.0129 31.7105L10.9367 31.7085L10.8592 31.7064L10.7818 31.7044L10.7031 31.7029L10.6233 31.7009L10.5422 31.6995L10.4563 31.698L10.3667 31.6966L10.2736 31.6959L10.1755 31.6952H10.0714L9.96494 31.6953H9.8524H6.62757H6.56103L6.49568 31.696H6.43278H6.37227H6.3142L6.25853 31.6967H6.20409L6.15086 31.6974H6.10126L6.05406 31.6981L6.00806 31.6988L5.9657 31.6995L5.92214 31.7002L5.87737 31.7009L5.7721 31.7029L5.70192 31.7044L5.63174 31.7064L5.56276 31.7085L5.49498 31.7105L5.42844 31.7146L5.40306 31.7153L4.63829 32.7109L4.57051 32.7984L4.50397 32.8845L4.44226 32.9685L4.38055 33.0503L4.32248 33.1307L4.26561 33.2089L4.21238 33.285L4.15914 33.3596L4.11074 33.4329L4.06354 33.5033L4.01755 33.5723L3.97518 33.639L3.93526 33.7043L3.89653 33.7674L3.85901 33.8291L3.82505 33.8887L3.79349 33.9461L3.76193 34.0021L3.73518 34.056L3.70842 34.1083L3.68681 34.1585L3.66383 34.2074L3.64565 34.254L3.62885 34.2991L3.61307 34.3429L3.59969 34.3838L3.59009 34.4247L3.58151 34.4619L3.57431 34.4986L3.5695 34.5323L3.56573 34.5653V34.5954L3.56694 34.6386L3.57071 34.6809L3.57689 34.7218L3.58546 34.7621L3.59644 34.8001L3.60741 34.8374L3.62422 34.8732L3.64103 34.9076L3.65921 34.9414L3.68219 34.9737L3.70517 35.0052L3.73056 35.0354L3.75834 35.0641L3.7899 35.0927L3.82145 35.12L3.85404 35.145L3.89156 35.1701L3.93269 35.1945L3.97625 35.2189L4.02225 35.2433L4.07309 35.2669L4.12632 35.2899L4.18319 35.3129L4.2437 35.3351L4.30541 35.3567L4.37319 35.3782L4.44457 35.399L4.51718 35.4193L4.59463 35.4397L4.67449 35.458L4.75798 35.4784L4.96732 35.5207V35.792L4.72652 35.7798L4.68052 35.7778L4.63453 35.7758L4.58613 35.7737L4.53893 35.7717L4.48933 35.7696L4.44093 35.7676L4.3901 35.7656L4.3405 35.7635L4.28966 35.7615L4.23763 35.7601L4.18679 35.7586L4.13356 35.7572L4.08152 35.7551L4.02829 35.7544L3.97382 35.753L3.91815 35.7515L3.85884 35.7501L3.79713 35.7494L3.73059 35.7487L3.66041 35.748L3.58779 35.7465L3.51034 35.7458L3.43049 35.7451H3.3458L3.25867 35.7444H3.16791H3.07352L2.97552 35.7437H2.87392H2.76865H2.55687H2.45644H2.35721L2.26161 35.7444H2.16721H2.07525L1.98569 35.7451H1.89737L1.81268 35.7458L1.73039 35.7465L1.6493 35.748L1.5053 35.7494L1.42062 35.7501L1.34923 35.7516L1.27785 35.753L1.21007 35.7545L1.13989 35.7559L1.06971 35.7574L0.935391 35.7594L0.866412 35.7609L0.793796 35.7629L0.663109 35.767L0.59413 35.769L0.526351 35.7711L0.459807 35.7731L0.390827 35.7751L0.324283 35.7772L0.257739 35.7792L0 35.7894V35.5396L0.17545 35.4706L0.271048 35.4303L0.367845 35.3857L0.467078 35.3377L0.567512 35.286L0.669146 35.2301L0.772015 35.1704L0.876085 35.1057L0.982556 35.0382L1.09146 34.9663L1.20212 34.8853ZM17.9192 26.66L18.0765 26.6641L18.2265 26.6682L18.3717 26.6722L18.5109 26.6743L18.6416 26.6783L18.7674 26.6804L18.886 26.6824L18.9998 26.6845L19.1062 26.6859L19.2067 26.6866H19.2998L19.3869 26.6873H19.4608L19.5394 26.6866L19.6253 26.6859L19.7161 26.6852L19.8129 26.6837L19.9158 26.6823L20.0247 26.6803L20.1384 26.6782L20.2594 26.6762L20.3853 26.6742L20.5172 26.6721L20.6551 26.6681L20.7979 26.664L20.9468 26.6599L21.1017 26.6558L21.259 26.6518L21.3219 26.6477L21.3836 26.6457L21.4417 26.6436L21.4949 26.6416L21.5445 26.6402L21.5893 26.6387L21.6304 26.638L21.8446 26.6365V26.9359L21.6219 26.9654L21.5469 26.9776L21.4731 26.9898L21.4017 27.0041L21.3364 27.0183L21.2722 27.0346L21.2117 27.0509L21.1549 27.0692L21.1004 27.0875L21.0508 27.1078L21.0024 27.1294L20.9576 27.1516L20.9165 27.1752L20.8777 27.1996L20.8402 27.2246L20.8063 27.2519L20.7747 27.28L20.7445 27.3101L20.7167 27.3416L20.6889 27.3746L20.6646 27.4112L20.6416 27.4485L20.621 27.4888L20.6029 27.5305L20.586 27.575L20.5716 27.621L20.5583 27.669L20.5487 27.7185L20.5401 27.771L20.5353 27.8255L20.5315 27.8815L20.5303 27.9403V30.9367V31.0062V31.0738L20.5315 31.1414L20.5327 31.2073V31.2734L20.5339 31.3381L20.535 31.402L20.5375 31.4659V31.5276L20.5399 31.5892L20.5411 31.6503L20.5436 31.7105L20.546 31.7693L20.5498 31.8281L20.5523 31.8855L20.556 31.9423L20.5585 31.9982L20.5622 32.0536L20.566 32.1081L20.5708 32.1621L20.5746 32.2146L20.5784 32.2671L20.5832 32.3179L20.588 32.3682L20.5917 32.4185L20.5965 32.4673L20.6027 32.5153L20.6075 32.5627L20.6123 32.6087L20.6185 32.6547L20.6247 32.6999L20.6308 32.7436L20.6429 32.8291L20.6573 32.9117L20.673 32.9921L20.6888 33.0696L20.7046 33.1443L20.7214 33.2167L20.7396 33.2857L20.7578 33.3525L20.777 33.4164L20.7976 33.4774L20.8192 33.5362L20.8408 33.5916L20.8624 33.6441L20.8867 33.6949L20.9097 33.7415L20.9351 33.7861L20.992 33.8795L21.0525 33.9692L21.1203 34.0567L21.1941 34.1408L21.2715 34.2226L21.3562 34.3009L21.4458 34.377L21.5438 34.4509L21.6454 34.5219L21.7519 34.5895L21.8656 34.6556L21.9866 34.7181L22.1113 34.7791L22.2444 34.8365L22.3824 34.8918L22.5276 34.945L22.6002 34.97L22.6752 34.9944L22.7526 35.018L22.8289 35.0416L22.9087 35.0632L22.9874 35.0847L23.0684 35.1055L23.1507 35.1259L23.2342 35.1442L23.3189 35.1625L23.4048 35.1788L23.4919 35.195L23.5791 35.2113L23.6686 35.2256L23.7606 35.2398L23.8513 35.2541L23.9445 35.2663L24.0377 35.2785L24.1333 35.2907L24.2301 35.3009L24.3281 35.311L24.4261 35.3192L24.5266 35.3273L24.6282 35.3354L24.7298 35.3415L24.8339 35.3477L24.9392 35.3517L25.0444 35.3558L25.1521 35.3578L25.2611 35.3599L25.37 35.3613H25.4801L25.6483 35.3606L25.8129 35.3586L25.9762 35.3545L26.1347 35.3484L26.2908 35.3403L26.4445 35.3301L26.5945 35.3199L26.7421 35.3077L26.8886 35.2935L27.0301 35.2792L27.1693 35.2629L27.3048 35.2446L27.4391 35.2243L27.5686 35.2035L27.6981 35.1805L27.8215 35.1569L27.9449 35.1311L28.0635 35.1038L28.1809 35.0751L28.2946 35.045L28.4048 35.0135L28.5125 34.9805L28.619 34.9453L28.7218 34.9095L28.8223 34.8714L28.9191 34.8328L29.0135 34.7911L29.1066 34.7493L29.1949 34.7056L29.2821 34.6604L29.3656 34.6138L29.4478 34.565L29.5253 34.5155L29.6028 34.463L29.6766 34.4099L29.7492 34.3554L29.817 34.298L29.8847 34.2398L29.9489 34.1802L30.0106 34.1185L30.0699 34.0554L30.1268 33.9901L30.1812 33.9234L30.2333 33.8552L30.2829 33.7856L30.3301 33.7132L30.3737 33.6399L30.4172 33.5646L30.456 33.4885L30.4935 33.4096L30.5274 33.3292L30.56 33.2466L30.5892 33.1625L30.617 33.0771L30.6399 32.9902L30.6616 32.9013L30.6808 32.8101L30.6976 32.7175L30.712 32.6227L30.723 32.5273L30.7326 32.4296L30.7387 32.3299L30.7425 32.2287L30.7437 32.1254V30.7356V30.5933L30.7425 30.4548L30.7413 30.3199L30.7376 30.1884L30.7338 30.0592L30.729 29.9336L30.7242 29.8115L30.7194 29.6931L30.7122 29.5769L30.7036 29.465L30.695 29.3559L30.6864 29.2497L30.6755 29.1472L30.6659 29.0475L30.6539 28.9512L30.6405 28.8586L30.6271 28.7689L30.6151 28.6828L30.5993 28.5996L30.5835 28.5198L30.5678 28.4429L30.5496 28.3705L30.5314 28.3L30.5146 28.2339L30.494 28.1708L30.4734 28.1112L30.4542 28.0544L30.4326 28.0019L30.411 27.9525L30.3891 27.9065L30.3661 27.8648L30.3417 27.8259L30.2897 27.7498L30.2328 27.678L30.1711 27.6084L30.1058 27.5408L30.0344 27.4761L29.9581 27.4151L29.8771 27.3563L29.7912 27.3003L29.7004 27.2464L29.6048 27.1955L29.5032 27.1475L29.3967 27.1015L29.2853 27.0578L29.168 27.0169L29.047 26.9782L28.8134 26.9129V26.625L29.0832 26.6372L29.1619 26.6392L29.3156 26.6453L29.4608 26.6514L29.5334 26.6535L29.6108 26.6555L29.7488 26.6596L29.819 26.6616L29.888 26.6637L29.9581 26.6651L30.0247 26.6672L30.0937 26.6686L30.1602 26.6701L30.2255 26.6721L30.2909 26.6735L30.3562 26.675L30.4191 26.6765L30.4808 26.6779L30.5426 26.6786L30.6031 26.6793L30.6636 26.6808L30.7216 26.6815L30.7797 26.6822L30.8366 26.6829H30.8935H30.9491L31.0036 26.6836H31.0568H31.11H31.1947H31.277L31.3605 26.6829H31.4416H31.5238L31.6037 26.6822L31.6835 26.6815L31.7634 26.6808L31.8408 26.6793L31.9195 26.6786L31.9958 26.6779L32.072 26.6765L32.1482 26.675L32.2232 26.6735L32.3612 26.6715L32.4447 26.6695L32.5197 26.668L32.6649 26.664L32.8101 26.6599L32.8815 26.6579L32.9517 26.6558L33.023 26.6538L33.0932 26.6518L33.1634 26.6497L33.2336 26.6477L33.3026 26.6456L33.3715 26.6436L33.4405 26.6416L33.7007 26.6294V26.9194L33.4587 26.9841L33.3316 27.0228L33.2082 27.0645L33.0921 27.1096L32.9819 27.1585L32.8755 27.2102L32.775 27.2655L32.6794 27.3243L32.5887 27.3868L32.5028 27.4521L32.4229 27.5217L32.3479 27.5941L32.2789 27.6711L32.2136 27.7514L32.1531 27.8355L32.0974 27.9238L32.073 27.969L32.0477 28.0178L32.0247 28.0687L32.0003 28.124L31.9784 28.1808L31.9554 28.2404L31.9338 28.3029L31.9146 28.3682L31.894 28.4364L31.8758 28.5074L31.8576 28.5807L31.8408 28.6568L31.825 28.7357L31.8093 28.8169L31.7935 28.9016L31.7801 28.9876L31.7667 29.0774L31.7547 29.17L31.7427 29.2648L31.7317 29.3625L31.7232 29.4622L31.7136 29.5655L31.7064 29.6703L31.6992 29.7788L31.692 29.8901L31.6872 30.0034L31.681 30.1196L31.6785 30.2381L31.6761 30.3602L31.6736 30.4843L31.6724 30.6106V30.7407V32.0587L31.67 32.1785L31.6652 32.2978L31.658 32.4156L31.647 32.5303L31.6326 32.6437L31.6168 32.7556L31.5962 32.8655L31.5733 32.9725L31.5465 33.0787L31.5174 33.1827L31.4834 33.2853L31.4483 33.3858L31.4096 33.4841L31.3685 33.581L31.3237 33.6758L31.2753 33.7692L31.2233 33.8603L31.1688 33.9501L31.1107 34.037L31.049 34.1224L30.9849 34.2065L30.9183 34.2883L30.8469 34.368L30.7719 34.447L30.6957 34.5223L30.6158 34.597L30.5311 34.6694L30.4452 34.7398L30.3544 34.808L30.2625 34.8747L30.1657 34.9394L30.0665 35.0019L29.9636 35.0621L29.8583 35.1209L29.7494 35.1777L29.6357 35.2331L29.5195 35.2862L29.4021 35.3364L29.2799 35.3859L29.1552 35.4333L29.0258 35.4779L28.8951 35.521L28.7595 35.5619L28.6216 35.6022L28.4812 35.6388L28.3372 35.6746L28.1908 35.7076L28.0395 35.7391L27.8871 35.7687L27.7298 35.7967L27.57 35.8218L27.4079 35.8454L27.2433 35.8675L27.0739 35.8879L26.9021 35.9062L26.7278 35.9225L26.5487 35.9367L26.3685 35.9489L26.1845 35.9591L25.997 35.9673L25.807 35.9734L25.6146 35.9774L25.4186 35.9795L25.2201 35.9809H25.1039L24.9902 35.9795L24.8765 35.978L24.7651 35.9766L24.6526 35.9751L24.5425 35.9731L24.4324 35.971L24.3223 35.967L24.2158 35.9629L24.1081 35.9588L24.0016 35.9548L23.8963 35.9487L23.7911 35.9426L23.6882 35.9364L23.5853 35.9303L23.4825 35.9222L23.3808 35.9141L23.2804 35.9059L23.1812 35.8978L23.0831 35.8876L22.9851 35.8774L22.8883 35.8673L22.7927 35.8571L22.6971 35.8469L22.6039 35.8347L22.5095 35.8225L22.4164 35.8103L22.3256 35.796L22.2349 35.7838L22.1453 35.7696L22.0545 35.7553L21.9662 35.7411L21.7944 35.7102L21.625 35.6772L21.4592 35.6428L21.2971 35.6062L21.141 35.5689L20.9885 35.5287L20.8385 35.4869L20.6933 35.4432L20.5517 35.398L20.415 35.3506L20.2831 35.3018L20.1536 35.2509L20.029 35.1984L19.9079 35.1439L19.7918 35.0871L19.6792 35.0289L19.5788 34.9721L19.4808 34.9133L19.3876 34.8537L19.2993 34.7912L19.2133 34.7273L19.1299 34.662L19.0524 34.5953L18.9774 34.5257L18.906 34.4553L18.8382 34.3828L18.7753 34.309L18.716 34.2328L18.6603 34.1553L18.6083 34.0764L18.5599 33.996L18.5151 33.9142L18.4935 33.871L18.473 33.8273L18.4537 33.7821L18.4345 33.7355L18.4164 33.6875L18.3982 33.6387L18.38 33.5876L18.3656 33.5351L18.3488 33.4812L18.333 33.4266L18.3196 33.3707L18.3062 33.3133L18.2929 33.2545L18.2809 33.1942L18.2689 33.1326L18.2579 33.0695L18.2483 33.0048L18.2387 32.9387L18.2291 32.8711L18.2205 32.8029L18.2143 32.7325L18.2071 32.6607L18.2009 32.5883L18.1948 32.5144L18.19 32.4383L18.1852 32.3608L18.1814 32.2824L18.1776 32.2027L18.1752 32.1215L18.174 32.0388L18.1728 31.9542V31.8695V31.8323V31.7906L18.174 31.7454V31.6966L18.1752 31.6427L18.1763 31.5859L18.1775 31.5242L18.1787 31.4597L18.1799 31.3901L18.1823 31.3169L18.1835 31.2393L18.186 31.1582L18.1884 31.0721L18.1909 30.9831L18.1933 30.8906L18.1958 30.7929L18.1995 30.6946L18.202 30.5992L18.2044 30.5052L18.2069 30.4132L18.2093 30.3234L18.2118 30.2366L18.213 30.1511L18.2142 30.0685L18.2153 29.9867L18.2165 29.9083L18.2177 29.8316L18.2189 29.7569V29.6851V29.6147V29.5465V27.9435V27.8882L18.2151 27.8351L18.2103 27.7842L18.2017 27.7348L18.1907 27.6873L18.1787 27.6414L18.1654 27.5976L18.1472 27.5553L18.128 27.515L18.1088 27.4769L18.0858 27.4397L18.0614 27.4053L18.0336 27.3723L18.0059 27.3408L17.9757 27.3113L17.9431 27.2826L17.9091 27.2545L17.8716 27.2279L17.8317 27.2028L17.7893 27.1784L17.7446 27.1548L17.6962 27.1318L17.6453 27.1102L17.5909 27.0895L17.5328 27.0691L17.4711 27.0488L17.4069 27.0305L17.3404 27.0142L17.269 26.9979L17.1952 26.9816L17.1177 26.9674L16.906 26.9316V26.638H17.223L17.4118 26.6441L17.586 26.6502L17.7566 26.6563L17.9192 26.66ZM38.759 30.6592L38.8594 30.6613L38.955 30.6633L39.0409 30.6653L39.1123 30.666L39.1753 30.6675L39.2249 30.6682L39.2623 30.6689H39.3023H39.5915L39.8722 30.6674L40.1481 30.6654L40.4167 30.6634L40.6793 30.6593L40.9358 30.6552L41.1851 30.6491L41.4283 30.643L41.6655 30.6349L41.8966 30.6267L42.1204 30.6186L42.3395 30.6084L42.5512 30.5983L42.7557 30.5881L42.9554 30.5759L43.1466 30.5637L43.333 30.5515L43.5132 30.5372L43.6851 30.523L43.852 30.5087L44.013 30.4924L44.1666 30.4762L44.3143 30.4578L44.4546 30.4395L44.5877 30.4192L44.716 30.3988L44.8382 30.3781L44.9508 30.3565L45.0597 30.3349L45.1601 30.3119L45.2545 30.2883L45.3428 30.2647L45.4263 30.2397L45.5074 30.2139L45.5861 30.1866L45.6611 30.1579L45.7349 30.1284L45.8039 30.0975L45.8704 30.0665L45.9358 30.0342L45.9975 30.0004L46.0555 29.966L46.1112 29.9308L46.1644 29.8936L46.2153 29.8563L46.2637 29.8177L46.3084 29.7782L46.3532 29.7373L46.3931 29.695L46.4307 29.6518L46.4657 29.6073L46.4983 29.5613L46.5285 29.5147L46.5553 29.4673L46.5807 29.4178L46.6036 29.3676L46.6228 29.3159L46.641 29.2628L46.6554 29.2088L46.6664 29.1535L46.676 29.0961L46.6832 29.0387L46.687 28.9791L46.6882 28.9189L46.687 28.8643L46.6832 28.8112L46.676 28.7587L46.6664 28.7076L46.6554 28.6574L46.641 28.6079L46.6242 28.5599L46.605 28.5133L46.5834 28.4673L46.558 28.4213L46.5313 28.3776L46.5021 28.3338L46.4695 28.2915L46.4356 28.2506L46.3981 28.2097L46.3569 28.1702L46.3146 28.1308L46.2698 28.0935L46.2226 28.0563L46.1718 28.0197L46.1186 27.9845L46.0629 27.9493L46.0048 27.9155L45.9443 27.8825L45.8802 27.8502L45.8124 27.8178L45.7446 27.7869L45.6708 27.7574L45.597 27.7279L45.5183 27.6998L45.4372 27.6717L45.3525 27.645L45.2666 27.6192L45.1759 27.5934L45.0839 27.5689L44.9871 27.5453L44.8879 27.5223L44.785 27.5002L44.6785 27.4794L44.5684 27.4586L44.4559 27.4383L44.3397 27.42L44.2211 27.4017L44.0977 27.3854L43.9731 27.3691L43.8436 27.3528L43.7117 27.3386L43.5774 27.3243L43.437 27.3101L43.2954 27.2979L43.1514 27.2857L43.0038 27.2755L42.8525 27.2653L42.6976 27.2552L42.5403 27.247L42.3782 27.2389L42.216 27.2328L42.0478 27.2267L41.8772 27.2226L41.7041 27.2185L41.5262 27.2165L41.3472 27.2145L41.1632 27.213H40.9769H40.8922H40.8063H40.7216L40.551 27.2137H40.4638H40.3779L40.2932 27.2144L40.2061 27.2151H40.1202L40.0343 27.2158L39.8612 27.2172L39.7741 27.218L39.6882 27.2186L39.5998 27.2193L39.5139 27.2201L39.4268 27.2207L39.3385 27.2222L39.2477 27.2229L39.1581 27.2243L39.0662 27.2251L38.9742 27.2265L38.8823 27.2272L38.7891 27.2287L38.6935 27.2301L38.5979 27.2316L38.5023 27.233L38.4055 27.2351L38.3075 27.2365H38.2831V30.6449L38.3751 30.6464L38.4683 30.6484L38.5627 30.6504L38.6595 30.6525L38.759 30.6592ZM45.1627 32.3799L45.1046 32.3268L45.0465 32.2757L44.9872 32.2255L44.9267 32.1775L44.8638 32.1309L44.8009 32.0849L44.7392 32.0403L44.6739 31.9972L44.6085 31.9555L44.542 31.916L44.4754 31.8771L44.4076 31.8399L44.3375 31.8041L44.2685 31.7697L44.1971 31.7359L44.1257 31.7043L44.0531 31.6742L43.9805 31.6447L43.9042 31.6175L43.8256 31.5908L43.7421 31.5644L43.655 31.5385L43.5642 31.5141L43.4698 31.4905L43.3706 31.4675L43.2677 31.4459L43.1612 31.4244L43.0499 31.404L42.935 31.3837L42.8176 31.3653L42.6942 31.347L42.5683 31.3307L42.4376 31.3145L42.3033 31.3002L42.1653 31.286L42.0226 31.2717L41.8761 31.2595L41.7273 31.2473L41.5736 31.2371L41.4151 31.227L41.2554 31.2168L41.0896 31.2087L40.9202 31.2005L40.7471 31.1944L40.5704 31.1883L40.3902 31.1842L40.205 31.1802L40.0175 31.1781L39.8251 31.1767L39.6291 31.176H39.5951H39.5576L39.5201 31.1767L39.4427 31.1774L39.3943 31.1781L39.3471 31.1788L39.2515 31.1808L39.1982 31.1823L39.1438 31.1837L39.0906 31.1844L39.0337 31.1865L38.9732 31.1879L38.9127 31.1899L38.8498 31.192L38.7276 31.196L38.6126 31.2001L38.5073 31.2042L38.4117 31.2082L38.3246 31.2103L38.2835 31.2117V32.5541V32.6654L38.2847 32.7745L38.2859 32.8815L38.287 32.9855L38.2908 33.0867L38.2946 33.1858L38.2984 33.2826L38.3032 33.376L38.3093 33.468L38.3155 33.5563L38.3217 33.6424L38.3289 33.7264L38.3361 33.8076L38.3447 33.8858L38.3532 33.9619L38.3628 34.0351L38.3738 34.1061L38.3848 34.1743L38.3958 34.2396L38.4078 34.3027L38.4198 34.3629L38.4342 34.4211L38.4462 34.4765L38.4606 34.529L38.475 34.5792L38.4894 34.6258L38.5052 34.6704L38.522 34.7127L38.5378 34.7514L38.556 34.788L38.5741 34.821L38.5899 34.8511L38.6298 34.9099L38.6734 34.9659L38.7206 35.0184L38.7714 35.0678L38.8271 35.1152L38.8864 35.159L38.9493 35.1999L39.0171 35.2387L39.0897 35.2746L39.1647 35.3083L39.2446 35.3393L39.3317 35.3674L39.4213 35.3932L39.5169 35.4168L39.6161 35.4376L39.863 35.4807L39.8304 35.775L39.4964 35.7669L39.379 35.7628L39.2882 35.7608L39.1963 35.7587L39.108 35.7567L39.0196 35.7547L38.9325 35.7526L38.8454 35.7506L38.7595 35.7492L38.676 35.7471L38.59 35.7457L38.5066 35.7442L38.4255 35.7427L38.342 35.7413L38.2609 35.7399L38.1822 35.7384L38.1012 35.7369L38.0237 35.7362L37.9451 35.7355L37.8676 35.7348L37.7902 35.7334L37.7152 35.7327L37.6377 35.732H37.5627L37.4877 35.7313H37.4139H37.3388L37.2662 35.7306H37.1924H37.121H36.9758H36.9032H36.8294L36.7568 35.7313H36.683H36.6092L36.5341 35.732H36.4603L36.3853 35.7327L36.3103 35.7334L36.2353 35.7348L36.159 35.7355L36.084 35.7362L36.0078 35.7369L35.9315 35.7384L35.8553 35.7399L35.7766 35.7413L35.7004 35.7427L35.6229 35.7442L35.468 35.7462L35.3918 35.7483L35.3144 35.7497L35.1595 35.7538L35.082 35.7558L35.0046 35.7579L34.9259 35.7599L34.8484 35.7619L34.7698 35.764L34.6923 35.766L34.4382 35.7741L34.4043 35.4784L34.6487 35.4367L34.7455 35.4163L34.8375 35.3942L34.9246 35.3705L35.0081 35.3441L35.0855 35.3146L35.1594 35.2837L35.2283 35.2499L35.2949 35.2147L35.3566 35.1766L35.4135 35.1357L35.4679 35.0926L35.5175 35.0474L35.5635 34.9994L35.6071 34.9485L35.6445 34.8946L35.6627 34.8679L35.6785 34.8364L35.6953 34.802L35.7121 34.7654L35.7279 34.7251L35.7437 34.6813L35.7595 34.6353L35.7728 34.5859L35.7872 34.5334L35.8016 34.4781L35.815 34.4207L35.827 34.3596L35.838 34.2957L35.85 34.2296L35.861 34.16L35.8706 34.0876L35.8802 34.0129L35.8898 33.9347L35.8984 33.855L35.9056 33.7709L35.9128 33.6849L35.919 33.5959L35.9251 33.504L35.9299 33.4099L35.9347 33.3123L35.9385 33.2117L35.9433 33.1092L35.9458 33.003L35.9482 32.8945L35.9494 32.7826L35.9506 32.6684V32.5522V28.3851L35.9494 28.276L35.9469 28.1718L35.9408 28.0721L35.9336 27.9787L35.925 27.8898L35.914 27.8065L35.9006 27.7276L35.8848 27.6551L35.868 27.5876L35.8499 27.5259L35.8283 27.4692L35.8077 27.4183L35.7823 27.3731L35.7593 27.3336L35.7339 27.3007L35.7072 27.2726L35.678 27.2468L35.6465 27.2217L35.6125 27.1981L35.5738 27.1745L35.5326 27.1529L35.4879 27.1322L35.4407 27.1118L35.3886 27.0935L35.333 27.0752L35.2749 27.0589L35.212 27.0427L35.1455 27.0284L35.0753 27.0162L35.0015 27.004L34.9228 26.9938L34.6929 26.968V26.6658L34.9639 26.6678L35.0547 26.6693H35.1443L35.235 26.6707L35.4165 26.6722H35.5097L35.6017 26.6729L35.7517 26.6735L35.8787 26.6743L35.9707 26.6749L36.0663 26.6757L36.1595 26.6764H36.2539L36.3483 26.677H36.4451L36.5455 26.6778H36.6508L36.7597 26.6785L36.8734 26.6792H36.9896L37.1118 26.6799H37.2365H37.3659H37.499H37.637H37.7798H37.925L38.0738 26.6805H38.2275H38.386H40.9525H41.105L41.255 26.6813H41.4015L41.5455 26.6819H41.6871L41.825 26.6827L41.9617 26.6834L42.0948 26.684L42.2255 26.6855L42.3538 26.6862L42.4785 26.6877L42.6019 26.6884L42.7216 26.6898L42.8378 26.6913L42.9528 26.6927L43.0653 26.6942L43.1742 26.6956L43.2795 26.6977L43.3836 26.6991L43.484 26.7012L43.582 26.7032L43.6788 26.7052L43.772 26.7073L43.8615 26.7093L43.9487 26.7113L44.0334 26.7134L44.1157 26.7154L44.1943 26.7174L44.2718 26.7195L44.3456 26.7215L44.417 26.7235L44.5537 26.7296L44.6892 26.7358L44.8223 26.7439L44.9494 26.752L45.0764 26.7602L45.1986 26.7683L45.3197 26.7785L45.437 26.7887L45.5496 26.7988L45.6609 26.809L45.7686 26.8212L45.8739 26.8334L45.9755 26.8456L46.0736 26.8578L46.1704 26.8721L46.2635 26.8863L46.4462 26.9173L46.6241 26.9502L46.7972 26.9854L46.963 27.0227L47.1251 27.0621L47.2824 27.1039L47.4349 27.1476L47.5813 27.1936L47.7229 27.2424L47.8609 27.2927L47.9915 27.3452L48.1174 27.4005L48.2384 27.4573L48.3533 27.5169L48.4647 27.578L48.5688 27.6419L48.6692 27.7078L48.7612 27.7754L48.8483 27.8444L48.9269 27.9154L49.0019 27.9878L49.0697 28.0617L49.1302 28.137L49.1847 28.2139L49.2331 28.292L49.2755 28.3724L49.3106 28.4536L49.3383 28.5362L49.3613 28.6203L49.3781 28.7057L49.3853 28.7918L49.3891 28.8793L49.3879 28.9438L49.3831 29.0063L49.3769 29.0687L49.3649 29.1304L49.3516 29.1906L49.3334 29.2509L49.3152 29.3105L49.2909 29.3687L49.2641 29.4261L49.2349 29.4834L49.2024 29.5388L49.1673 29.5941L49.1273 29.6487L49.085 29.7018L49.0402 29.7549L48.993 29.8066L48.941 29.8577L48.8865 29.9071L48.8297 29.9566L48.7692 30.0046L48.7063 30.052L48.6385 30.098L48.5707 30.1432L48.4981 30.1877L48.4219 30.2315L48.3444 30.2738L48.2633 30.3155L48.1786 30.3564L48.0915 30.3959L48.002 30.4345L47.91 30.4726L47.8144 30.5098L47.7152 30.5457L47.6147 30.58L47.5131 30.6138L47.409 30.6468L47.3013 30.6783L47.1924 30.7084L47.0799 30.7386L46.9649 30.7666L46.85 30.7939L46.7302 30.8198L46.6092 30.8456L46.487 30.8692L46.3599 30.8922L46.2329 30.9144L46.1022 30.9351L45.9703 30.9555L45.836 30.9738L45.698 30.9921L45.5589 31.0084L45.4173 31.0247L45.2745 31.0389L45.128 31.0532L44.9792 31.0654L44.9042 31.0715L44.9417 31.0776L45.0409 31.0938L45.1377 31.1101L45.2333 31.1284L45.3277 31.1468L45.4209 31.1651L45.5116 31.1854L45.6024 31.2058L45.6919 31.2265L45.7803 31.2487L45.8674 31.2709L45.9521 31.2939L46.0368 31.3169L46.1191 31.3413L46.2013 31.3657L46.2824 31.3916L46.3611 31.4174L46.4397 31.4447L46.516 31.4713L46.5934 31.5L46.7398 31.5582L46.8826 31.6199L47.0218 31.6838L47.1561 31.7513L47.2868 31.8209L47.4115 31.8942L47.5312 31.9703L47.6486 32.0484L47.76 32.1296L47.8652 32.2142L47.9681 32.3011L48.0661 32.3909L48.1593 32.4829L48.2476 32.5791L48.3299 32.6768L48.4086 32.7765L48.4473 32.8276L48.486 32.8801L48.5247 32.9354L48.5671 32.9922L48.6082 33.0518L48.6518 33.1135L48.6966 33.1782L48.7413 33.2449L48.7885 33.3139L48.8357 33.3849L48.8841 33.4588L48.9337 33.5349L48.9858 33.613L49.0378 33.6934L49.091 33.7766L49.1443 33.8621L49.2024 33.9504L49.2604 34.0373L49.3173 34.1205L49.3754 34.2017L49.4322 34.2799L49.4891 34.356L49.5472 34.4292L49.6041 34.4996L49.6621 34.5672L49.719 34.6325L49.7771 34.695L49.8327 34.7546L49.8896 34.812L49.9465 34.8665L50.0034 34.9182L50.0602 34.9676L50.1159 35.0136L50.1728 35.0574L50.2284 35.0983L50.2841 35.1369L50.3373 35.1721L50.3918 35.2051L50.4462 35.2352L50.5007 35.2633L50.5527 35.2885L50.6048 35.3107L50.6568 35.3311L50.7076 35.3474L50.7585 35.3616L50.8081 35.3738L50.8565 35.384L51.0404 35.4155V35.7357H50.8033H50.7427L50.6834 35.735H50.6205H50.5564L50.491 35.7343H50.4245L50.3567 35.7336L50.2865 35.7329H50.2164L50.1437 35.7322H50.0724L49.9961 35.7315L49.9211 35.7308L49.8424 35.7301L49.7638 35.7294L49.6851 35.7279L49.6125 35.7272L49.5423 35.7265L49.4758 35.7258L49.4129 35.7251L49.3536 35.7244H49.298L49.2447 35.7237L49.1951 35.723H49.1504H49.1092H49.0717L49.0366 35.7223H49.0065H48.9787H48.7899H48.7088H48.6241L48.5419 35.723H48.4596L48.3749 35.7237L48.2926 35.7244L48.2067 35.7251L48.1183 35.7266L48.0312 35.728L47.9429 35.7295L47.8521 35.7309L47.7626 35.7324L47.6694 35.7339L47.4552 35.7379L47.3766 35.628L47.3474 35.5857L47.3159 35.5434L47.2867 35.5003L47.2565 35.4579L47.2263 35.4156L47.1962 35.3733L47.166 35.3309L47.1368 35.2878L47.1077 35.2455L47.0775 35.2023L47.0483 35.16L47.0181 35.1177L46.989 35.0754L46.9588 35.0322L46.931 34.9891L46.9032 34.946L46.873 34.9036L46.8452 34.8605L46.8161 34.8173L46.7883 34.7736L46.7592 34.7305L46.7314 34.6867L46.7036 34.643L46.6758 34.5992L46.648 34.5546L46.6202 34.5109L46.5935 34.4663L46.5657 34.4212L46.5389 34.376L46.5112 34.3314L46.4844 34.2862L45.8685 33.2547L45.8237 33.1814L45.779 33.1104L45.733 33.04L45.687 32.971L45.6386 32.9049L45.5902 32.8387L45.5406 32.7748L45.4885 32.7116L45.4365 32.6505L45.3845 32.5909L45.33 32.5321L45.2756 32.4753L45.2187 32.4193L45.1627 32.3799ZM53.7759 31.1969L53.7784 31.3233L53.7832 31.4482L53.7904 31.5709L53.8013 31.6922L53.8147 31.8114L53.8315 31.9292L53.8521 32.0448L53.8741 32.159L53.9008 32.2709L53.9286 32.3814L53.9626 32.4905L53.9965 32.5967L54.034 32.7023L54.0752 32.8057L54.1187 32.9076L54.1671 33.0073L54.2167 33.105L54.2688 33.2012L54.3256 33.2961L54.3849 33.3887L54.4466 33.479L54.512 33.5687L54.5798 33.6562L54.6511 33.7417L54.7238 33.8249L54.8012 33.9076L54.8811 33.9879L54.9646 34.0661L55.0505 34.143L55.1388 34.2183L55.2308 34.2921L55.3264 34.364L55.4244 34.4336L55.5236 34.5011L55.6253 34.5664L55.7293 34.6295L55.8334 34.6906L55.9423 34.7494L56.0524 34.8053L56.165 34.8593L56.2811 34.9118L56.3973 34.9606L56.5171 35.0086L56.6381 35.0538L56.7616 35.0961L56.8874 35.1378L57.0157 35.1765L57.1451 35.2131L57.2795 35.2469L57.4138 35.2793L57.5505 35.3088L57.6921 35.336L57.8336 35.3619L57.9776 35.3849L58.1253 35.4064L58.2741 35.4248L58.4266 35.441L58.5802 35.4553L58.7375 35.4675L58.896 35.4777L59.0582 35.4858L59.2216 35.4919L59.3885 35.496L59.558 35.4967L59.7213 35.496L59.8823 35.4919L60.042 35.4858L60.1993 35.4777L60.3542 35.4675L60.5079 35.4553L60.6579 35.441L60.8056 35.4248L60.952 35.4064L61.096 35.3857L61.2363 35.3621L61.3779 35.3362L61.5146 35.3082L61.6489 35.278L61.7821 35.2457L61.914 35.2119L62.0422 35.1747L62.1705 35.1366L62.2939 35.0949L62.4173 35.0518L62.5383 35.0058L62.6569 34.9584L62.7743 34.9081L62.8892 34.8558L63.0006 34.8013L63.1119 34.7445L63.2208 34.6849L63.3273 34.6238L63.4326 34.5599L63.5354 34.494L63.6371 34.425L63.7351 34.3546L63.8319 34.2822L63.9239 34.2083L64.0134 34.1322L64.1006 34.0547L64.1852 33.9757L64.2663 33.8953L64.3449 33.8127L64.4188 33.7295L64.4914 33.6434L64.5592 33.5559L64.6257 33.467L64.6886 33.3764L64.7479 33.2845L64.8048 33.1905L64.858 33.095L64.9089 32.9974L64.9573 32.8983L65.002 32.7977L65.0432 32.6958L65.0819 32.5918L65.117 32.4856L65.1496 32.3785L65.1787 32.2687L65.2055 32.1588L65.2284 32.046L65.249 31.9313L65.2648 31.8157L65.2792 31.6987L65.2902 31.5788L65.2988 31.4582L65.3025 31.3355L65.305 31.2113L65.3025 31.0844L65.2988 30.9602L65.2902 30.8367L65.2792 30.7154L65.2658 30.5962L65.249 30.4784L65.2298 30.3628L65.2068 30.2486L65.1814 30.1367L65.1523 30.0262L65.1197 29.9178L65.0846 29.8107L65.0471 29.7059L65.0072 29.6034L64.9624 29.5014L64.9152 29.4023L64.8656 29.3041L64.8124 29.2078L64.7567 29.1138L64.6987 29.0218L64.637 28.9313L64.5716 28.8423L64.5051 28.7554L64.4337 28.67L64.3599 28.5868L64.2837 28.505L64.2038 28.4246L64.1215 28.347L64.0368 28.2703L63.9485 28.1957L63.8565 28.1224L63.7621 28.0514L63.6641 27.9824L63.5649 27.9148L63.4632 27.8501L63.3604 27.7877L63.2539 27.7274L63.1462 27.6692L63.0361 27.6133L62.9235 27.5593L62.8086 27.5085L62.6912 27.459L62.5726 27.4124L62.4504 27.3673L62.3282 27.3249L62.2012 27.2846L62.0729 27.2466L61.941 27.2108L61.8091 27.1764L61.6736 27.1448L61.5357 27.1153L61.3953 27.0881L61.2537 27.0628L61.1085 27.0398L60.9609 27.0183L60.8108 27L60.6596 26.9837L60.5035 26.9694L60.3474 26.9572L60.1864 26.9471L60.0243 26.9389L59.8597 26.9348L59.6927 26.9308L59.5221 26.9293L59.3515 26.9308L59.1821 26.9348L59.0151 26.9389L58.853 26.9471L58.692 26.9572L58.5323 26.9694L58.3762 26.9837L58.2237 27L58.0724 27.0183L57.9236 27.0386L57.7784 27.0616L57.6356 27.0866L57.4953 27.1133L57.3561 27.142L57.2206 27.1735L57.0875 27.2065L56.9568 27.2417L56.8297 27.2798L56.7027 27.3192L56.5804 27.3609L56.4582 27.4047L56.3397 27.4513L56.2247 27.4993L56.111 27.5496L55.9984 27.6027L55.8895 27.6572L55.7831 27.714L55.6802 27.7728L55.5773 27.8345L55.4781 27.8975L55.3788 27.9637L55.2845 28.0318L55.1925 28.1008L55.1042 28.1727L55.0182 28.2465L54.9336 28.3218L54.8537 28.3993L54.775 28.4783L54.7012 28.5595L54.6286 28.6427L54.5608 28.7268L54.4943 28.8136L54.4314 28.9026L54.3709 28.9929L54.3128 29.0849L54.2583 29.1789L54.2075 29.2752L54.1579 29.3728L54.1131 29.4725L54.0683 29.5745L54.0284 29.6779L53.9921 29.7835L53.9582 29.8911L53.9266 30.0002L53.8988 30.1115L53.8721 30.2242L53.8501 30.339L53.8309 30.4568L53.8151 30.5752L53.8018 30.6959L53.7908 30.8186L53.7836 30.9436L53.7788 31.0699L53.7759 31.1969ZM51.0291 31.1847L51.0315 31.0563L51.0387 30.9299L51.0497 30.805L51.0665 30.6815L51.0881 30.5588L51.1125 30.4375L51.1426 30.3176L51.1789 30.1998L51.2189 30.0828L51.2624 29.9666L51.312 29.8524L51.3653 29.7397L51.4245 29.6278L51.4874 29.5179L51.5552 29.4088L51.6278 29.3018L51.7053 29.1956L51.7876 29.0908L51.8747 28.9874L51.9655 28.8863L52.0611 28.7852L52.1627 28.6869L52.2668 28.5892L52.3781 28.4929L52.493 28.3981L52.6116 28.3047L52.7363 28.2136L52.8645 28.123L52.9976 28.0341L53.1356 27.9466L53.2772 27.8605L53.4248 27.7765L53.5748 27.6932L53.7285 27.6135L53.8834 27.5359L54.0431 27.4613L54.2041 27.3888L54.3675 27.3192L54.5332 27.2525L54.7015 27.1878L54.8733 27.1261L55.0463 27.0665L55.223 27.0105L55.4021 26.9566L55.5824 26.9049L55.7675 26.8561L55.9539 26.8101L56.1414 26.767L56.3351 26.7261L56.5275 26.6888L56.7247 26.653L56.9232 26.62L57.124 26.5899L57.3285 26.5627L57.5342 26.5376L57.7436 26.5155L57.9529 26.4951L58.1671 26.4788L58.3837 26.4646L58.6015 26.4524L58.823 26.4442L59.0456 26.4361L59.2707 26.4341L59.4994 26.4326L59.7293 26.4341L59.9581 26.4381L60.1831 26.4442L60.4058 26.4544L60.626 26.4666L60.8439 26.4809L61.0592 26.4971L61.2734 26.5175L61.4827 26.5397L61.6909 26.5647L61.8966 26.592L62.0999 26.6229L62.3008 26.6559L62.4992 26.6911L62.6941 26.7299L62.8889 26.7708L63.0789 26.8146L63.2664 26.8606L63.4528 26.9094L63.6367 26.9611L63.8158 27.0156L63.9949 27.0724L64.1691 27.132L64.3422 27.1945L64.5128 27.259L64.681 27.3266L64.8456 27.397L65.0077 27.4694L65.1675 27.5447L65.3248 27.623L65.4797 27.7042L65.631 27.7875L65.7798 27.8729L65.9238 27.959L66.0629 28.0473L66.1973 28.137L66.3268 28.2274L66.4526 28.3194L66.5724 28.4128L66.6886 28.5082L66.7999 28.6045L66.9064 28.7021L67.008 28.8004L67.1048 28.9009L67.1968 29.0029L67.2839 29.1063L67.3686 29.2104L67.446 29.3167L67.5199 29.4237L67.5876 29.5322L67.6518 29.6412L67.7111 29.7525L67.7655 29.8645L67.8151 29.9786L67.8599 30.0934L67.8998 30.2098L67.9349 30.3276L67.9665 30.446L67.9919 30.5659L68.0135 30.688L68.0303 30.8107L68.0413 30.9342L68.0485 31.0597L68.0509 31.1867L68.0485 31.3123L68.0413 31.4364L68.0303 31.5599L68.0135 31.682L67.9905 31.8033L67.9651 31.9231L67.9336 32.0416L67.8973 32.1594L67.8573 32.2758L67.8113 32.3906L67.7605 32.5047L67.7061 32.6174L67.6456 32.7287L67.5802 32.8386L67.5112 32.9477L67.4362 33.0562L67.3576 33.1624L67.2741 33.268L67.1833 33.3722L67.0902 33.4747L66.9921 33.5759L66.8881 33.6756L66.7792 33.7747L66.6678 33.8723L66.5492 33.9692L66.427 34.064L66.3 34.158L66.1681 34.2506L66.0313 34.3418L65.8898 34.4315L65.7446 34.5198L65.5933 34.6073L65.4397 34.6928L65.2823 34.7754L65.1238 34.8558L64.9629 34.9327L64.8008 35.0074L64.635 35.0792L64.4668 35.1482L64.2974 35.2158L64.1243 35.2789L63.9489 35.3399L63.7722 35.3987L63.5943 35.4541L63.4128 35.5072L63.23 35.5574L63.0425 35.6048L62.8549 35.65L62.6649 35.6923L62.4737 35.7318L62.2789 35.7684L62.0829 35.8022L61.8832 35.8332L61.6811 35.8618L61.4791 35.8877L61.2746 35.9107L61.0677 35.9314L60.8571 35.9498L60.6454 35.964L60.4324 35.9762L60.217 35.9843L59.9992 35.9925L59.7777 35.9966L59.5575 35.9973L59.3288 35.9966L59.1037 35.9925L58.8798 35.9864L58.6572 35.9762L58.4394 35.964L58.2228 35.9498L58.0086 35.9335L57.798 35.9131L57.5887 35.8901L57.3818 35.8651L57.1773 35.837L56.9752 35.8061L56.7756 35.7731L56.5783 35.7373L56.3835 35.6978L56.1899 35.6569L56.0012 35.6124L55.8136 35.5658L55.6284 35.5163L55.4457 35.4638L55.2666 35.4093L55.0875 35.3519L54.9133 35.2917L54.7402 35.2286L54.5708 35.1625L54.4026 35.0949L54.238 35.0239L54.0747 34.95L53.9162 34.8739L53.7577 34.7958L53.604 34.714L53.4515 34.6299L53.3027 34.5439L53.1587 34.4555L53.0183 34.3666L52.884 34.2755L52.7545 34.1843L52.6287 34.0909L52.5077 33.9955L52.3927 33.9L52.2814 33.8024L52.1749 33.7033L52.072 33.6027L51.9752 33.5016L51.8833 33.3982L51.7961 33.294L51.7127 33.1884L51.634 33.0814L51.5614 32.9729L51.4924 32.863L51.4283 32.7517L51.369 32.6398L51.3145 32.5257L51.2649 32.4109L51.2202 32.2947L51.1802 32.1769L51.1439 32.0576L51.1138 31.937L51.0884 31.8157L51.0668 31.693L51.05 31.5681L51.039 31.4431L51.0318 31.3161L51.0291 31.1847ZM73.0329 33.2292L73.0341 33.2817L73.0353 33.3325V33.3828L73.0365 33.4322L73.0376 33.4797L73.0388 33.5263L73.04 33.5722L73.0412 33.6168L73.0436 33.6907L73.0461 33.7438L73.0473 33.7833L73.0497 33.8227L73.0522 33.86L73.0533 33.8966L73.0558 33.9318L73.0582 33.9662L73.0607 33.9992L73.0631 34.0315L73.0656 34.0616L73.068 34.0918L73.0728 34.1485L73.0776 34.2039L73.0838 34.2562L73.09 34.3072L73.0962 34.3561L73.1034 34.4027L73.1106 34.4464L73.1191 34.4888L73.1264 34.5282L73.1349 34.5663L73.1435 34.6015L73.1531 34.6353L73.1617 34.6654L73.1727 34.6949L73.1812 34.7207L73.1908 34.7437L73.2271 34.8176L73.2743 34.8801L73.3288 34.936L73.3978 34.9855L73.4788 35.03L73.572 35.0695L73.6809 35.1053L73.8055 35.1354L73.8357 35.1415L73.8732 35.1476L73.9119 35.1538L73.9555 35.1599L74.0027 35.166L74.0535 35.1721L74.1092 35.1782L74.1673 35.1843L74.2278 35.1883L74.2931 35.1945L74.3609 35.1985L74.4335 35.2046L74.5073 35.2087L74.5872 35.2128L74.6683 35.2168L74.753 35.2209L74.8401 35.225L74.9333 35.229L75.0277 35.2311L75.1257 35.2331L75.2273 35.2351L75.3314 35.2372L75.4403 35.2392L75.5504 35.2413L75.6642 35.2427L75.7827 35.2441L75.9025 35.2456L76.0272 35.247L76.153 35.2478L76.2849 35.2485H76.418L76.5547 35.2491L76.7387 35.2485L76.9178 35.2464L77.0956 35.2444L77.2699 35.2403L77.4417 35.2362L77.6111 35.2301L77.7757 35.224L77.9391 35.2159L78.0988 35.2057L78.2561 35.1955L78.4098 35.1854L78.5611 35.1732L78.7087 35.1589L78.8539 35.1447L78.9967 35.1284L79.1358 35.1121L79.2726 35.0958L79.4057 35.0775L79.5352 35.0572L79.6635 35.0368L79.7881 35.0153L79.9103 34.9931L80.0289 34.9695L80.1438 34.9451L80.2576 34.9192L80.3677 34.8934L80.4742 34.8653L80.5782 34.8366L80.6799 34.8071L80.7779 34.777L80.8735 34.746L80.9655 34.7137L81.0538 34.6799L81.1421 34.6461L81.2244 34.6109L81.3043 34.5751L81.3829 34.5379L81.4567 34.4998L81.5281 34.4612L81.5971 34.4217L81.6625 34.3808L81.7254 34.3399L81.7859 34.2967L81.8428 34.2536L81.8972 34.209L81.9492 34.1631L81.9976 34.1171L82.0436 34.0705L82.086 34.0224L82.1259 33.9722L82.1634 33.9227L82.1985 33.871L82.2311 33.8185L82.2589 33.7654L82.2867 33.7109L82.3097 33.6549L82.3316 33.5982L82.3498 33.5408L82.3642 33.482L82.3776 33.4217L82.3872 33.3607L82.3944 33.2982L82.3992 33.2351L82.4004 33.1704L82.3992 33.1059L82.3944 33.042L82.3872 32.9804L82.3762 32.9193L82.3628 32.8591L82.347 32.8003L82.3289 32.7429L82.3059 32.687L82.2829 32.6316L82.2551 32.5777L82.2249 32.5246L82.1923 32.4729L82.1561 32.4218L82.1173 32.3724L82.075 32.3235L82.0314 32.2769L81.9842 32.2303L81.9334 32.1852L81.8813 32.1406L81.8257 32.0974L81.7664 32.0551L81.7047 32.0142L81.6405 31.9739L81.5727 31.9345L81.5013 31.8958L81.4287 31.8592L81.3513 31.8225L81.2714 31.7873L81.1891 31.7529L81.1032 31.72L81.0149 31.6876L80.9229 31.6567L80.8273 31.6266L80.7281 31.5971L80.6252 31.5684L80.5187 31.5403L80.4086 31.5145L80.2949 31.4878L80.1787 31.4634L80.0565 31.4398L79.9331 31.4162L79.8036 31.3946L79.6729 31.373L79.5362 31.3527L79.397 31.3323L79.2554 31.314L79.109 31.2977L78.959 31.2815L78.8053 31.2652L78.648 31.2509L78.4871 31.2387L78.3225 31.2265L78.1555 31.2163L77.9837 31.2062L77.8083 31.196L77.6292 31.1879L77.4476 31.1797L77.2613 31.1736L77.0725 31.1675L76.8789 31.1634L76.6829 31.1594L76.4832 31.1573L76.2787 31.1559H76.0718H74.2228H74.1878H74.149L74.0643 31.1566L74.0147 31.1573L73.9627 31.158L73.9058 31.1587L73.8465 31.1594L73.7823 31.1601L73.717 31.1615L73.6456 31.163L73.5718 31.1644L73.4931 31.1659L73.4133 31.1673L73.3286 31.1688L73.2584 31.1708L73.1277 31.1729L73.0672 31.1743L73.0297 31.1758V32.6381V32.7019V32.7644V32.8261V32.8863L73.0309 32.9459V33.0041V33.0609L73.0321 33.1169V33.1714L73.0329 33.2292ZM73.4443 30.6434L73.5206 30.6441L73.5956 30.6448L73.6706 30.6455H73.7408L73.8109 30.6462H73.8799H73.9441H74.0094H74.0723H75.983H76.1512L76.3134 30.6448L76.4755 30.6427L76.634 30.6387L76.7901 30.6346L76.9426 30.6305L77.0939 30.6244L77.2415 30.6163L77.3855 30.6081L77.5283 30.6L77.6674 30.5898L77.8054 30.5797L77.9397 30.5674L78.0704 30.5552L78.1999 30.543L78.3258 30.5288L78.4492 30.5145L78.5702 30.4983L78.6876 30.482L78.8037 30.4637L78.9163 30.4454L79.0252 30.425L79.1317 30.4047L79.2369 30.3831L79.3386 30.3615L79.4366 30.3385L79.5322 30.3149L79.6266 30.2905L79.7174 30.2647L79.8045 30.2382L79.8892 30.2115L79.9727 30.1835L80.0513 30.1548L80.1288 30.1253L80.2014 30.0943L80.274 30.0634L80.3418 30.0311L80.4083 29.9981L80.4725 29.9651L80.5342 29.9307L80.591 29.8955L80.6467 29.8597L80.6999 29.8231L80.7508 29.785L80.7992 29.747L80.8452 29.7075L80.8887 29.6672L80.9299 29.6263L80.9674 29.5846L81.0024 29.5423L81.0375 29.4985L81.0677 29.454L81.0955 29.4088L81.1223 29.3628L81.1452 29.3154L81.1672 29.2674L81.1864 29.2179L81.2022 29.1685L81.2156 29.1174L81.2276 29.0657L81.2372 29.0126L81.2433 28.9587L81.2458 28.9033L81.247 28.848L81.2432 28.7424L81.2274 28.6412L81.2031 28.5444L81.1691 28.4518L81.1243 28.362L81.0711 28.2766L81.0082 28.1948L80.9356 28.1166L80.8533 28.042L80.7613 27.9701L80.6597 27.9011L80.5472 27.8364L80.4249 27.774L80.2906 27.7152L80.1466 27.6592L79.9905 27.6061L79.9107 27.5817L79.8272 27.5566L79.7388 27.533L79.6493 27.5109L79.5561 27.4879L79.4605 27.4663L79.3613 27.4455L79.2584 27.4252L79.1532 27.4069L79.0443 27.3886L78.9329 27.3702L78.8204 27.354L78.7018 27.3377L78.582 27.3214L78.4598 27.3072L78.3328 27.2929L78.2045 27.2807L78.0714 27.2685L77.9371 27.2563L77.7991 27.2461L77.6575 27.2359L77.5135 27.2278L77.3671 27.2197L77.2171 27.2115L77.0646 27.2054L76.9085 27.1993L76.7512 27.1952L76.5891 27.1912L76.4245 27.1871L76.2575 27.1857L76.0881 27.1842L75.9138 27.1835L75.84 27.1842H75.7553L75.6658 27.1849L75.5653 27.1856L75.4589 27.187L75.3439 27.1885L75.2205 27.1905L75.0886 27.192L74.9483 27.194L74.8006 27.1961L74.6445 27.1981L74.4824 27.2001L74.3093 27.2042L74.1302 27.2062L73.9415 27.2103L73.7443 27.2144L73.6741 27.2151L73.6051 27.2165L73.5385 27.218L73.4756 27.2194L73.4127 27.2201L73.351 27.2216L73.293 27.223L73.2361 27.2245L73.1816 27.2252L73.1284 27.2267L73.0787 27.2274L73.0303 27.2288L73.0292 30.6279H73.0329L73.1201 30.6293L73.2036 30.6308L73.2846 30.6322L73.3657 30.6337L73.4443 30.6434ZM70.539 34.8092L70.5547 34.7711L70.5705 34.7308L70.5849 34.6877L70.5993 34.6425L70.6127 34.5945L70.6271 34.5434L70.6391 34.4911L70.6525 34.4358L70.6621 34.3776L70.6741 34.3179L70.6837 34.2555L70.6933 34.1902L70.7029 34.1226L70.7101 34.053L70.7187 33.9806L70.7259 33.9059L70.7331 33.8292L70.7393 33.7494L70.7441 33.6682L70.7489 33.5836L70.7537 33.4975L70.7561 33.4086L70.7586 33.3174L70.761 33.224L70.7622 33.1277L70.7634 33.0301V32.9289V28.0331L70.7622 27.967L70.7598 27.9031L70.755 27.8429L70.7464 27.7847L70.7368 27.7287L70.7258 27.6762L70.7114 27.6252L70.6956 27.5771L70.6775 27.532L70.6582 27.4896L70.6363 27.4493L70.6119 27.4113L70.5876 27.3769L70.5608 27.3445L70.533 27.315L70.5029 27.2878L70.4727 27.2619L70.4387 27.2383L70.4024 27.2153L70.3613 27.1938L70.3189 27.173L70.2742 27.1527L70.2258 27.1343L70.1737 27.1181L70.1193 27.1018L70.06 27.0875L69.9983 27.0733L69.9329 27.0611L69.8639 27.0489L69.7925 27.0387L69.7151 27.0306L69.484 27.0076V26.7054H72.762H72.8117H72.8637H72.917H72.9726L73.0271 26.7046H73.0852H73.1444H73.2061L73.2679 26.7039H73.332H73.3973L73.4651 26.7032H73.5329L73.6031 26.7025H73.6757L73.7471 26.7019H73.8233L73.8983 26.7011L73.977 26.7004L74.0556 26.6997L74.1355 26.699H74.219L74.3025 26.6984L74.3872 26.6976L74.4743 26.6969L74.5639 26.6962L74.6522 26.6955L74.7441 26.6941L74.8385 26.6934L74.9329 26.6927L75.0285 26.692L75.1266 26.6913L75.2234 26.6906L75.319 26.6899L75.4134 26.6892L75.5053 26.6885L75.5961 26.6878L75.6868 26.6871L75.7752 26.6864L75.8611 26.6857L75.9458 26.685L76.0293 26.6843L76.1104 26.6836H76.1914L76.2701 26.6829L76.3475 26.6822H76.4225L76.4975 26.6815H76.5689L76.6403 26.6808L76.7093 26.6801H76.7771L76.8448 26.6794H76.909H76.9719L77.0336 26.6787H77.0941H77.1534H77.2103L77.2648 26.678H77.3192H77.3724H77.4729L77.6604 26.6787L77.8456 26.6801L78.0271 26.6822L78.2074 26.6862L78.3828 26.6903L78.5583 26.6964L78.7289 26.7025L78.8971 26.7107L79.0641 26.7188L79.2262 26.729L79.3872 26.7392L79.5445 26.7514L79.7006 26.7636L79.8531 26.7778L80.0031 26.7921L80.1495 26.8083L80.2935 26.8246L80.4351 26.8429L80.5742 26.8633L80.711 26.8836L80.8441 26.9052L80.976 26.9274L81.103 26.9504L81.2301 26.9748L81.3523 27.0006L81.4733 27.0271L81.5907 27.0544L81.7056 27.083L81.8182 27.1132L81.9283 27.1441L82.0347 27.1764L82.14 27.2094L82.2404 27.2438L82.3385 27.279L82.4341 27.3148L82.526 27.3514L82.6144 27.3903L82.7015 27.429L82.7838 27.4693L82.8636 27.511L82.9411 27.5533L83.0137 27.5964L83.0851 27.641L83.1529 27.6862L83.217 27.7328L83.2775 27.7802L83.3356 27.8282L83.39 27.8777L83.4421 27.9287L83.4893 27.9796L83.534 28.0321L83.5752 28.0852L83.6127 28.1398L83.6489 28.1951L83.6791 28.2511L83.7083 28.3078L83.7326 28.366L83.7546 28.4248L83.7714 28.4845L83.7872 28.5447L83.7992 28.6057L83.8078 28.6682L83.8126 28.7307L83.8137 28.7954L83.8089 28.9045L83.7945 29.0121L83.7692 29.1169L83.7352 29.2189L83.6916 29.3194L83.6384 29.4162L83.5743 29.5102L83.5016 29.6022L83.4182 29.6911L83.325 29.7766L83.2234 29.8592L83.1108 29.939L82.991 30.0159L82.8591 30.0892L82.7199 30.1602L82.5723 30.2269L82.4949 30.2607L82.415 30.2922L82.3327 30.3238L82.2492 30.3539L82.1609 30.384L82.0726 30.4127L81.9818 30.4414L81.8887 30.4687L81.7931 30.4959L81.695 30.5218L81.5946 30.5476L81.493 30.5729L81.3877 30.5965L81.28 30.6201L81.1711 30.6422L81.0598 30.6644L80.9448 30.6852L80.8299 30.7068L80.7113 30.7271L80.5903 30.7454L80.4681 30.7637L80.3422 30.782L80.2152 30.7983L80.208 30.799L80.3629 30.8133L80.525 30.8296L80.6848 30.8458L80.8409 30.8641L80.9957 30.8825L81.147 30.9028L81.2958 30.9236L81.4423 30.9457L81.5851 30.9679L81.7254 30.9915L81.8609 31.016L81.9965 31.0418L82.1272 31.0676L82.2554 31.0949L82.3825 31.1236L82.5047 31.1523L82.6257 31.1824L82.7431 31.2133L82.8568 31.2449L82.9694 31.2772L83.0783 31.311L83.1847 31.3462L83.2876 31.3814L83.388 31.418L83.4848 31.4553L83.5792 31.4939L83.6712 31.5328L83.762 31.5737L83.8479 31.6146L83.9314 31.6569L84.0124 31.7001L84.0899 31.7438L84.1649 31.789L84.2351 31.835L84.3053 31.8824L84.3706 31.9304L84.4335 31.9793L84.4928 32.0287L84.5497 32.0804L84.6041 32.1315L84.655 32.1846L84.7022 32.2385L84.7469 32.293L84.7881 32.3484L84.8268 32.4043L84.8619 32.4617L84.8945 32.5199L84.9236 32.5787L84.949 32.6384L84.9734 32.6994L84.9926 32.7605L85.0094 32.8229L85.0228 32.886L85.0324 32.9499L85.0409 33.0138L85.0457 33.0791L85.0469 33.1459L85.0445 33.2262L85.0397 33.306L85.0287 33.3843L85.0167 33.4611L84.9985 33.5372L84.9779 33.6125L84.9525 33.6863L84.9248 33.7588L84.8922 33.8306L84.8559 33.9002L84.816 33.9692L84.7712 34.0373L84.7216 34.1041L84.6708 34.1694L84.6151 34.2333L84.5546 34.2964L84.4904 34.358L84.4227 34.4183L84.3512 34.4771L84.2762 34.5353L84.1976 34.5912L84.1153 34.6466L84.0282 34.7005L83.9374 34.753L83.8442 34.8041L83.7462 34.8535L83.6446 34.9016L83.5405 34.949L83.4316 34.9949L83.3191 35.0387L83.2041 35.0818L83.0843 35.1236L82.9609 35.1645L82.8351 35.2031L82.7044 35.2412L82.5713 35.2778L82.4345 35.313L82.2954 35.3468L82.1502 35.3791L82.0025 35.4107L81.8525 35.4402L81.6976 35.4689L81.5415 35.4961L81.3793 35.5228L81.2147 35.5472L81.0465 35.5702L80.8759 35.5924L80.7005 35.6131L80.5226 35.6335L80.3399 35.6518L80.1547 35.6681L79.966 35.6844L79.7748 35.6986L79.5787 35.7108L79.3791 35.723L79.1758 35.7332L78.97 35.7434L78.7607 35.7515L78.5477 35.7576L78.3311 35.7637L78.1121 35.7678L77.8883 35.7698L77.662 35.7719L77.4309 35.7726H77.3764H77.3195H77.2602H77.2009L77.138 35.7719H77.0715L77.0049 35.7712H76.9348H76.8621L76.7883 35.7705L76.7109 35.7698H76.6322L76.5512 35.7691H76.4677L76.3818 35.7684L76.2946 35.7677L76.2027 35.7662L76.1107 35.7655H76.0163L75.9195 35.7641L75.8203 35.7634L75.7186 35.7626L75.6146 35.762L75.5081 35.7613L75.3992 35.7598L75.2903 35.7591L75.1766 35.7584L75.0616 35.757L74.943 35.7562L74.8245 35.7548L74.7022 35.7534L74.5788 35.7519L74.453 35.7512L74.3308 35.7497L74.2085 35.7483L74.0875 35.7476L73.9702 35.7469L73.8528 35.7454L73.7378 35.744L73.6253 35.7433L73.5127 35.7426L73.4026 35.7419L73.2937 35.7404L73.186 35.7397L73.0808 35.739L72.9767 35.7383L72.8738 35.7376L72.7734 35.7369L72.6753 35.7362L72.5773 35.7355L72.4817 35.7348H72.3873L72.2954 35.7341L72.2046 35.7334H72.1163L72.0267 35.7327H71.9408H71.8573H71.7738L71.6928 35.732H71.6129H71.5342H71.458H71.1022H71.0454H70.9873H70.9292L70.8699 35.7327H70.8119H70.7538H70.6933H70.634L70.5735 35.7334H70.5118L70.4513 35.7341H70.3908L70.3291 35.7348L70.2662 35.7355L70.2032 35.7362L70.1403 35.7369L70.0762 35.7376L70.0121 35.7383L69.9479 35.739L69.8814 35.7397L69.816 35.7404L69.7482 35.7411L69.6829 35.7418L69.6151 35.7425L69.5473 35.7432L69.4796 35.7439L69.2291 35.748V35.4472L69.4735 35.4163L69.5691 35.402L69.6599 35.3857L69.747 35.3674L69.8281 35.3453L69.9043 35.3217L69.9781 35.2958L70.0459 35.2671L70.11 35.2362L70.1706 35.2038L70.2274 35.1686L70.2795 35.1314L70.3291 35.0919L70.3739 35.0496L70.415 35.005L70.4537 34.957L70.4705 34.9326L70.4887 34.9053L70.5045 34.8752L70.5213 34.8428L70.539 34.8092ZM85.6188 35.7826L85.5886 35.4832L85.8464 35.446L85.9504 35.4257L86.0485 35.4049L86.1429 35.3805L86.2312 35.3532L86.3159 35.3245L86.3933 35.2922L86.4696 35.2578L86.5385 35.2211L86.6039 35.1817L86.6668 35.1385L86.7237 35.0934L86.7769 35.0453L86.8265 34.9936L86.8713 34.9397L86.9124 34.8823L86.9306 34.8528L86.9474 34.8199L86.9666 34.7832L86.9848 34.7446L87.0005 34.7029L87.0173 34.6583L87.0342 34.6103L87.0486 34.5608L87.0643 34.5077L87.0788 34.4518L87.0921 34.3936L87.1055 34.3325L87.1189 34.2686L87.1309 34.2025L87.1419 34.1335L87.1515 34.0617L87.1624 33.987L87.172 33.9109L87.1806 33.8305L87.1892 33.7487L87.1964 33.6641L87.2026 33.5766L87.2098 33.4862L87.2146 33.3936L87.2208 33.2988L87.2245 33.2005L87.2283 33.1L87.2321 32.9974L87.2345 32.8912L87.2357 32.7828L87.2369 32.6714V32.5581V27.9301L87.2357 27.8741L87.2319 27.8202L87.2258 27.7685L87.2172 27.719L87.2062 27.671L87.1928 27.625L87.1784 27.5813L87.1602 27.539L87.1421 27.4987L87.1191 27.4606L87.0947 27.424L87.0704 27.3896L87.0412 27.3558L87.011 27.3249L86.9795 27.2948L86.9455 27.2667L86.9092 27.2402L86.8717 27.2144L86.8294 27.1892L86.7858 27.1656L86.7374 27.142L86.6866 27.119L86.6309 27.0974L86.5728 27.0766L86.5123 27.0559L86.447 27.0355L86.3804 27.0172L86.3078 26.9989L86.234 26.9826L86.1566 26.9684L86.0743 26.9541L85.8565 26.9183V26.6254H86.067L86.1021 26.6261H86.1408L86.1832 26.6268L86.2279 26.6283L86.2763 26.6297L86.3272 26.6304L86.3828 26.6325L86.5559 26.6366L86.7241 26.6406L86.8862 26.6447L87.0411 26.6488L87.1888 26.6528L87.3291 26.6569L87.4635 26.6589L87.5929 26.661L87.714 26.663L87.8289 26.665L87.9378 26.6671L88.0394 26.6691L88.1338 26.6698L88.2222 26.6705L88.3032 26.6712H88.3795H88.5114L88.6469 26.6705L88.78 26.6698L88.9131 26.6691L89.0474 26.6671L89.1817 26.665L89.3161 26.663L89.4504 26.661L89.5847 26.6589L89.719 26.6569L89.8546 26.6528L89.9889 26.6488L90.1244 26.6447L90.2599 26.6406L90.3955 26.6366L90.5322 26.6325L90.5806 26.6304L90.6229 26.6297L90.6629 26.6283L90.6954 26.6276L90.7232 26.6261H90.7486L90.7706 26.6254H90.7874H90.9894V26.9248L90.762 26.9514L90.6821 26.9636L90.6071 26.9758L90.5345 26.9901L90.4655 27.0043L90.4002 27.0206L90.3372 27.0369L90.2767 27.0552L90.2199 27.0756L90.1666 27.0963L90.1158 27.1185L90.0686 27.1407L90.0226 27.1651L89.9815 27.1901L89.9416 27.2168L89.9053 27.244L89.8713 27.2727L89.8397 27.3037L89.8096 27.336L89.7804 27.3704L89.755 27.407L89.7296 27.4443L89.7077 27.4846L89.6871 27.5269L89.6689 27.5706L89.6545 27.6158L89.6411 27.6632L89.6302 27.7127L89.6206 27.7644L89.6144 27.8175L89.6119 27.8728L89.6107 27.931V32.638V32.7451L89.6119 32.8499L89.6131 32.951L89.6143 33.0507L89.6181 33.1476L89.6218 33.2424L89.6266 33.335L89.6314 33.4253L89.6362 33.5128L89.6434 33.5983L89.6496 33.6809L89.6582 33.7621L89.6654 33.8396L89.674 33.9157L89.6836 33.989L89.6932 34.06L89.7052 34.1282L89.7148 34.1941L89.7268 34.2572L89.7402 34.3188L89.7536 34.377L89.7669 34.4338L89.7813 34.4877L89.7957 34.5388L89.8126 34.5876L89.8283 34.6336L89.8451 34.6774L89.8619 34.7183L89.8788 34.757L89.8969 34.7928L89.9151 34.8257L89.9343 34.8558L89.9743 34.9147L90.0202 34.9706L90.0698 35.0231L90.1243 35.0734L90.1812 35.12L90.2441 35.1637L90.3106 35.2054L90.382 35.2441L90.4583 35.2799L90.5381 35.3137L90.6228 35.3446L90.7136 35.3733L90.8092 35.3992L90.9096 35.4228L91.0149 35.4435L91.2605 35.4844V35.7816L90.9652 35.7735L90.8575 35.7714L90.7511 35.7694L90.6458 35.7674L90.5417 35.7653L90.4401 35.7633L90.3385 35.7613L90.2404 35.7592L90.1436 35.7572L90.048 35.7557L89.9536 35.7537L89.8617 35.7522L89.7697 35.7508L89.6814 35.7493L89.5943 35.7479L89.5083 35.7464L89.4224 35.745L89.3401 35.7435L89.2578 35.7428L89.1768 35.7421L89.0981 35.7414L89.0206 35.74L88.9444 35.7393L88.8694 35.7386H88.7956L88.723 35.7379H88.6528H88.5838L88.5148 35.7372H88.4495H88.3842H88.2438H88.1663H88.0901L88.0126 35.7379H87.9352H87.8577L87.7803 35.7386H87.7016L87.6254 35.7393L87.5468 35.74L87.4693 35.7414L87.3919 35.7421L87.3144 35.7428L87.2369 35.7435L87.1583 35.745L87.0808 35.7464L87.0022 35.7479L86.9247 35.7493L86.8449 35.7508L86.7662 35.7522L86.6864 35.7537L86.6065 35.7557L86.5267 35.7572L86.4456 35.7592L86.3658 35.7613L86.2835 35.7633L86.2036 35.7653L86.1213 35.7674L86.039 35.7694L85.958 35.7714L85.8769 35.7735L85.6188 35.7826ZM93.5956 34.3828L93.6199 34.326L93.6443 34.2664L93.6662 34.2039L93.6879 34.1378L93.7084 34.0702L93.7276 33.9992L93.7469 33.9253L93.765 33.8484L93.7832 33.7694L93.799 33.6876L93.8158 33.6022L93.8302 33.5147L93.8446 33.4249L93.858 33.3315L93.87 33.2361L93.882 33.137L93.893 33.0365L93.9026 32.9323L93.9122 32.8253L93.9204 32.7154L93.9276 32.6035L93.9341 32.4887L93.9407 32.3717L93.9451 32.251L93.9489 32.1275L93.9516 32.002L93.9543 31.8736L93.9552 31.7429L93.9561 31.6086V28.5936L93.9534 28.4837L93.9497 28.3795L93.9452 28.2798L93.9356 28.185L93.9236 28.0946L93.9102 28.01L93.8934 27.9302L93.8742 27.8555L93.8522 27.7851L93.8293 27.7204L93.8025 27.6602L93.7757 27.6057L93.7456 27.5562L93.714 27.5125L93.6814 27.4736L93.6463 27.4392L93.6088 27.4069L93.5664 27.3745L93.5204 27.3421L93.4708 27.3112L93.4163 27.2811L93.3571 27.251L93.2942 27.2215L93.2276 27.1928L93.1562 27.1647L93.0812 27.1374L93.0001 27.1102L92.9166 27.0851L92.8284 27.0593L92.7352 27.0349L92.6384 27.0113L92.4205 26.9618V26.6761H92.6505H92.7049L92.7594 26.6768H92.8163L92.8743 26.6775L92.9324 26.6782L92.9917 26.6789L93.0534 26.6796L93.1151 26.6811L93.178 26.6818L93.2434 26.6825L93.3075 26.6839L93.3753 26.6854L93.4431 26.6868L93.5109 26.6883L93.5823 26.6897L93.7154 26.6938L93.8376 26.6958L93.9465 26.6979L94.0433 26.6999L94.1268 26.7014L94.1994 26.7028L94.2563 26.7035H94.3023H94.3267H94.3569L94.4247 26.7028L94.4646 26.7021L94.5093 26.7014L94.5577 26.7007L94.6109 26.7L94.6666 26.6993L94.7271 26.6979L94.7925 26.6972L94.859 26.6957L94.9316 26.6943L95.0078 26.6928L95.0865 26.6908L95.1712 26.6893L95.2329 26.6886L95.2935 26.6879L95.3515 26.6872L95.4072 26.6865L95.4616 26.6858L95.5149 26.6851L95.5669 26.6837L95.6178 26.683L95.6661 26.6823L95.7145 26.6816L95.7617 26.6809L95.8052 26.6794L95.8476 26.6787L95.8888 26.678L95.9275 26.6773L96.0534 26.6753L96.3075 26.8511L96.5047 26.9868L96.6995 27.1217L96.8931 27.2552L97.0855 27.3867L97.2767 27.5181L97.4679 27.6473L97.6555 27.7757L97.8418 27.9021L98.0282 28.0285L98.2121 28.1526L98.3936 28.2761L98.5764 28.3974L98.7554 28.5187L98.9345 28.6379L99.11 28.7563L99.2867 28.8725L99.4597 28.9889L99.6328 29.1031L99.8034 29.2164L99.9728 29.3277L100.142 29.439L100.308 29.5481L100.474 29.6566L100.638 29.7628L100.8 29.8684L100.96 29.9732L101.12 30.0758L101.278 30.1777L101.436 30.2788L101.591 30.3779L101.746 30.4762L101.898 30.5731L102.05 30.6693L102.203 30.7656L102.355 30.8618L102.507 30.9573L102.659 31.0521L102.81 31.1461L102.963 31.2401L103.114 31.3335L103.265 31.4269L103.417 31.5195L103.568 31.6115L103.719 31.7026L103.869 31.7946L104.02 31.885L104.171 31.9755L104.321 32.0644L104.471 32.1542L104.621 32.2431L104.771 32.3314L104.921 32.4189L105.07 32.5064L105.22 32.5939L105.368 32.68L105.517 32.7661L105.666 32.8515L105.815 32.9376L105.963 33.0216L106.111 33.1057L106.253 33.1869V30.4253V30.304L106.252 30.1856L106.251 30.07L106.248 29.9567L106.245 29.8462L106.24 29.7385L106.236 29.6323L106.229 29.5297L106.222 29.4292L106.214 29.3315L106.206 29.2361L106.197 29.1435L106.188 29.0538L106.177 28.9663L106.165 28.8816L106.153 28.7998L106.139 28.7209L106.125 28.6433L106.111 28.5695L106.096 28.4976L106.079 28.4281L106.061 28.3619L106.045 28.298L106.026 28.237L106.006 28.1788L105.986 28.1234L105.966 28.0703L105.945 28.0201L105.922 27.9727L105.9 27.9281L105.877 27.8864L105.853 27.8477L105.801 27.7716L105.745 27.6983L105.684 27.6279L105.617 27.5604L105.546 27.4957L105.469 27.4332L105.388 27.3736L105.301 27.3162L105.21 27.2617L105.115 27.21L105.013 27.1597L104.907 27.1123L104.794 27.0677L104.678 27.0246L104.556 26.9851L104.326 26.917V26.6513L104.541 26.6528L104.585 26.6535L104.632 26.6542L104.682 26.6557L104.736 26.6577L104.794 26.6597L104.856 26.6618L104.918 26.6638L105.063 26.6699L105.206 26.674L105.344 26.678L105.474 26.6821L105.599 26.6862L105.719 26.6903L105.834 26.6923L105.941 26.6943L106.043 26.6964L106.14 26.6984L106.229 26.6998L106.314 26.7019L106.393 26.7026L106.464 26.7033L106.531 26.704H106.591H106.638H106.688L106.739 26.7033H106.792L106.847 26.7026L106.902 26.7019L106.959 26.7012H107.017L107.078 26.6997L107.141 26.699L107.206 26.6976L107.27 26.6961L107.338 26.6954L107.407 26.6934L107.477 26.6927L107.55 26.6906L107.622 26.6892L107.699 26.6877L107.776 26.6857L107.855 26.6837L107.934 26.6816L108.018 26.6796L108.1 26.6776L108.185 26.6755L108.272 26.6735L108.362 26.6715L108.451 26.6694L108.543 26.6674L108.635 26.6653L108.731 26.6633L108.828 26.6613L108.93 26.6572H109.191V26.9271L108.946 26.9882L108.82 27.024L108.699 27.0635L108.583 27.1058L108.474 27.1518L108.37 27.2006L108.27 27.2531L108.177 27.3085L108.087 27.3673L108.003 27.4297L107.925 27.4951L107.851 27.564L107.782 27.6365L107.718 27.7126L107.66 27.7924L107.606 27.8764L107.581 27.9195L107.557 27.9661L107.532 28.0156L107.511 28.0687L107.486 28.124L107.464 28.1829L107.444 28.2453L107.423 28.31L107.405 28.3776L107.386 28.4486L107.368 28.5219L107.351 28.5986L107.335 28.679L107.319 28.7608L107.305 28.8468L107.292 28.9351L107.277 29.0263L107.265 29.1203L107.256 29.2172L107.245 29.3169L107.234 29.4194L107.225 29.5257L107.217 29.6347L107.211 29.746L107.204 29.8602L107.198 29.9772L107.193 30.0979L107.189 30.2206L107.187 30.3461L107.184 30.4753L107.183 30.6068V30.7417V36H106.715L106.459 35.812L106.253 35.6592L106.036 35.5027L105.813 35.3425L105.585 35.1775L105.347 35.0096L105.104 34.8381L104.855 34.6623L104.597 34.4822L104.333 34.2985L104.062 34.111L103.783 33.9194L103.498 33.724L103.206 33.5244L102.907 33.3213L102.601 33.1146L102.287 32.9035L101.967 32.6889L101.64 32.4699L101.306 32.2481L100.963 32.0213L100.615 31.7915L100.26 31.5575L99.8997 31.3192L99.5294 31.0773L99.1531 30.8318L98.7707 30.5827L98.3799 30.3293L97.9829 30.0723L97.58 29.811L97.1686 29.5461L96.7499 29.2769L96.6603 29.2195L96.572 29.1621L96.4849 29.1062L96.399 29.0516L96.3155 28.9971L96.232 28.944L96.1521 28.8915L96.0711 28.8398L95.9937 28.7889L95.9162 28.7395L95.8412 28.6906L95.7661 28.6432L95.6935 28.5958L95.6221 28.5498L95.5531 28.5046L95.4853 28.4609L95.4176 28.4178L95.3522 28.3754L95.288 28.3337L95.2252 28.2934L95.1635 28.2531L95.1054 28.2145L95.0473 28.1764L94.9904 28.1398L94.9348 28.104L94.896 28.079V31.2139V31.3783L94.8969 31.5384L94.8997 31.6949L94.9034 31.8471L94.9072 31.9965L94.911 32.1408L94.9154 32.2822L94.9226 32.4199L94.9298 32.5534L94.9381 32.6832L94.9463 32.8096L94.9573 32.9317L94.9655 33.0501L94.9775 33.1649L94.9909 33.2754L95.0043 33.3824L95.0176 33.4858L95.0321 33.5855L95.0478 33.6803L95.0636 33.7723L95.0804 33.8606L95.0996 33.9447L95.1164 34.025L95.137 34.1012L95.1576 34.1736L95.1782 34.2418L95.1998 34.3071L95.2217 34.3673L95.2461 34.4241L95.2691 34.4764L95.2945 34.5252L95.3174 34.5698L95.3719 34.6544L95.43 34.7348L95.4917 34.8109L95.5595 34.8827L95.6309 34.9503L95.7071 35.0134L95.7869 35.073L95.8716 35.1275L95.9612 35.1784L96.0556 35.225L96.1536 35.2682L96.2577 35.3084L96.3654 35.3436L96.478 35.3752L96.5978 35.4033L96.8495 35.4527V35.742H91.9608V35.4498L92.2197 35.4053L92.3383 35.3794L92.4532 35.3493L92.5622 35.3149L92.6662 35.2769L92.7667 35.2337L92.8611 35.1863L92.9518 35.1338L93.0389 35.077L93.1213 35.0154L93.1987 34.9486L93.2725 34.8776L93.3414 34.8007L93.4056 34.7195L93.4662 34.6326L93.5218 34.5415L93.5462 34.4934L93.5715 34.4417L93.5956 34.3828ZM113.308 32.9492L113.308 33.0395L113.309 33.1278L113.312 33.2133L113.315 33.298L113.319 33.3792L113.322 33.4589L113.327 33.5358L113.331 33.6111L113.336 33.6836L113.342 33.754L113.347 33.8221L113.354 33.8883L113.36 33.9522L113.367 34.0132L113.374 34.072L113.381 34.128L113.39 34.1819L113.397 34.2322L113.405 34.2802L113.412 34.3262L113.422 34.3693L113.43 34.4088L113.44 34.4469L113.449 34.4812L113.459 34.5128L113.467 34.5423L113.477 34.5687L113.489 34.5932L113.511 34.644L113.534 34.6892L113.56 34.733L113.591 34.7739L113.622 34.8125L113.658 34.8498L113.696 34.885L113.738 34.9179L113.782 34.9489L113.829 34.979L113.88 35.0062L113.934 35.0327L113.991 35.0571L114.053 35.0793L114.116 35.1001L114.186 35.1204L114.22 35.1285L114.259 35.1367L114.299 35.1448L114.341 35.153L114.387 35.1611L114.435 35.1692L114.486 35.1774L114.54 35.1855L114.595 35.1937L114.654 35.1998L114.716 35.2079L114.778 35.214L114.844 35.2201L114.913 35.2262L114.984 35.2323L115.057 35.2364L115.132 35.2425L115.211 35.2466L115.291 35.2506L115.376 35.2547L115.46 35.2588L115.547 35.2608L115.637 35.2649L115.73 35.2669L115.826 35.2689L115.923 35.271L116.023 35.2724L116.125 35.2739L116.23 35.2746L116.335 35.2753L116.444 35.276H116.555L116.76 35.2753L116.961 35.2733L117.158 35.2672L117.353 35.259L117.544 35.2488L117.734 35.2366L117.918 35.2224L118.101 35.2061L118.28 35.1878L118.455 35.1674L118.628 35.1459L118.799 35.1215L118.965 35.0956L119.129 35.0675L119.29 35.0366L119.447 35.0042L119.602 34.9699L119.754 34.934L119.902 34.8952L120.048 34.8549L120.19 34.8118L120.33 34.7672L120.466 34.7206L120.599 34.6718L120.73 34.6207L120.858 34.5676L120.983 34.513L121.105 34.4563L121.225 34.3966L121.34 34.3356L121.455 34.2725L121.565 34.2072L121.673 34.1396L121.776 34.0715L121.876 34.0004L121.973 33.928L122.066 33.8541L122.157 33.778L122.243 33.6999L122.327 33.6209L122.406 33.5397L122.483 33.4565L122.556 33.3711L122.628 33.285L122.693 33.1961L122.757 33.1057L122.816 33.0131L122.873 32.9197L122.926 32.8235L122.976 32.7258L123.022 32.6253L123.066 32.5241L123.104 32.4208L123.141 32.3152L123.175 32.2081L123.206 32.0991L123.23 31.9877L123.251 31.875L123.271 31.7602L123.288 31.6441L123.299 31.5256L123.305 31.4058L123.312 31.2831L123.313 31.1596L123.312 31.0289L123.305 30.9019L123.299 30.7764L123.288 30.6529L123.271 30.5316L123.251 30.4132L123.23 30.2976L123.203 30.1842L123.175 30.0723L123.141 29.9632L123.103 29.8562L123.064 29.7514L123.02 29.6495L122.974 29.5498L122.923 29.4521L122.87 29.3573L122.813 29.2639L122.753 29.1735L122.689 29.0852L122.622 28.9991L122.551 28.9151L122.478 28.8339L122.401 28.7541L122.321 28.6772L122.235 28.6019L122.149 28.5301L122.058 28.4597L121.964 28.3915L121.867 28.3254L121.766 28.2623L121.661 28.2006L121.553 28.141L121.442 28.0836L121.327 28.0283L121.207 27.9738L121.084 27.9221L120.956 27.8718L120.824 27.823L120.687 27.7764L120.545 27.7318L120.4 27.6881L120.25 27.6463L120.097 27.6069L119.938 27.5696L119.773 27.5338L119.608 27.4994L119.436 27.4665L119.259 27.4363L119.078 27.4076L118.894 27.3812L118.704 27.3562L118.51 27.3326L118.312 27.3118L118.108 27.2915L117.901 27.2731L117.691 27.2569L117.474 27.2426L117.254 27.2304L117.03 27.2202L116.8 27.2121L116.567 27.206L116.33 27.2019L116.088 27.1999L115.839 27.1992H115.746H115.654H115.562L115.47 27.1999L115.378 27.2006H115.289L115.197 27.202L115.022 27.2035L114.934 27.2049L114.847 27.2064L114.761 27.2071L114.675 27.2086L114.59 27.21L114.507 27.2115L114.421 27.2135L114.337 27.2149L114.255 27.2164L114.172 27.2184L114.091 27.2205L114.008 27.2225L113.926 27.2245L113.845 27.2266L113.764 27.2286L113.684 27.2307L113.605 27.2327L113.524 27.2347L113.447 27.2368L113.367 27.2388L113.303 27.2408V32.5573V32.657L113.304 32.7532L113.305 32.8487L113.308 32.9492ZM109.767 35.4251L109.859 35.4035L109.946 35.3799L110.03 35.3541L110.108 35.3254L110.182 35.2953L110.252 35.2629L110.317 35.2291L110.38 35.1925L110.436 35.1538L110.489 35.1129L110.539 35.0698L110.586 35.0246L110.629 34.9766L110.667 34.9263L110.683 34.9005L110.7 34.8718L110.717 34.8394L110.733 34.8051L110.748 34.767L110.764 34.7261L110.779 34.6824L110.794 34.6364L110.807 34.5875L110.822 34.5358L110.835 34.4813L110.847 34.4239L110.858 34.3643L110.87 34.3018L110.881 34.2365L110.891 34.169L110.9 34.0985L110.91 34.0261L110.918 33.9508L110.925 33.8719L110.932 33.7915L110.94 33.7083L110.943 33.6222L110.95 33.5339L110.954 33.4427L110.959 33.3487L110.963 33.2524L110.965 33.1533L110.968 33.0514L110.969 32.9472L110.97 32.8402V32.7311V28.0334L110.969 27.9673L110.965 27.9034L110.961 27.8432L110.952 27.785L110.943 27.729L110.933 27.6759L110.919 27.6256L110.903 27.5776L110.886 27.5316L110.866 27.4885L110.844 27.4482L110.821 27.411L110.796 27.3758L110.77 27.3428L110.742 27.3127L110.713 27.2846L110.683 27.2579L110.649 27.2335L110.613 27.2105L110.575 27.1875L110.534 27.1668L110.488 27.1464L110.44 27.1261L110.39 27.1078L110.335 27.0895L110.279 27.0732L110.218 27.0589L110.154 27.0447L110.086 27.0325L110.016 27.0223L109.942 27.0121L109.713 26.9885V26.6862H112.967H113.044H113.124L113.209 26.6855H113.299H113.392H113.49H113.591H113.698L113.809 26.6848L113.924 26.6841L114.044 26.6834H114.166L114.296 26.6819H114.427L114.564 26.6812L114.705 26.6798L114.845 26.6791L114.98 26.6784L115.112 26.6777L115.239 26.677L115.362 26.6763L115.478 26.6756L115.59 26.6749H115.699L115.802 26.6742H115.9L115.994 26.6735H116.083L116.167 26.6728H116.246H116.322H116.391H116.544L116.694 26.6735L116.844 26.6749L116.99 26.6764L117.137 26.6778L117.281 26.6799L117.422 26.6819L117.561 26.686L117.699 26.688L117.836 26.6921L117.97 26.6962L118.102 26.7002L118.234 26.7043L118.362 26.7104L118.491 26.7165L118.617 26.7226L118.74 26.7287L118.861 26.7369L118.982 26.745L119.101 26.7531L119.217 26.7613L119.332 26.7714L119.444 26.7816L119.556 26.7918L119.664 26.802L119.772 26.8121L119.879 26.8223L119.983 26.8345L120.084 26.8467L120.185 26.8589L120.284 26.8712L120.381 26.8854L120.476 26.8996L120.571 26.9139L120.666 26.9281L120.758 26.9444L120.852 26.9607L120.944 26.977L121.034 26.9932L121.125 27.0116L121.217 27.0299L121.307 27.0482L121.395 27.0685L121.482 27.0889L121.572 27.1072L121.658 27.128L121.745 27.1495L121.831 27.1711L121.915 27.1933L121.999 27.2163L122.082 27.2393L122.167 27.2629L122.249 27.2873L122.332 27.3123L122.413 27.3382L122.492 27.364L122.572 27.3905L122.651 27.4177L122.73 27.445L122.807 27.4731L122.884 27.5018L122.961 27.5313L123.037 27.5608L123.111 27.5917L123.2 27.6283L123.29 27.6656L123.376 27.7036L123.462 27.7417L123.545 27.7811L123.628 27.8214L123.711 27.8617L123.792 27.902L123.87 27.9437L123.948 27.9861L124.024 28.0284L124.099 28.0715L124.173 28.1153L124.246 28.159L124.316 28.2042L124.387 28.2494L124.453 28.2954L124.521 28.342L124.587 28.3894L124.652 28.4368L124.714 28.4848L124.776 28.5336L124.835 28.5831L124.894 28.6334L124.952 28.6836L125.007 28.7353L125.061 28.7864L125.114 28.8395L125.167 28.892L125.216 28.9451L125.266 28.999L125.313 29.0536L125.359 29.1089L125.405 29.1643L125.449 29.2202L125.49 29.2762L125.53 29.3329L125.569 29.3897L125.606 29.4471L125.642 29.5059L125.677 29.5641L125.711 29.6229L125.742 29.6817L125.773 29.742L125.8 29.8016L125.824 29.8626L125.852 29.9237L125.876 29.9853L125.9 30.047L125.92 30.1095L125.941 30.1725L125.958 30.235L125.975 30.2989L125.992 30.3636L126.006 30.4275L126.02 30.4928L126.03 30.5581L126.04 30.6243L126.047 30.6904L126.054 30.7572L126.057 30.8247L126.061 30.8915L126.063 30.9596V31.0286V31.0939L126.061 31.1586L126.058 31.2233L126.055 31.2881L126.048 31.352L126.041 31.4158L126.034 31.4789L126.024 31.5428L126.013 31.6059L126 31.6684L125.986 31.73L125.972 31.7925L125.959 31.8542L125.941 31.9158L125.924 31.9775L125.907 32.0385L125.887 32.0996L125.866 32.1598L125.842 32.22L125.818 32.2803L125.794 32.3399L125.766 32.3987L125.739 32.4575L125.712 32.5163L125.681 32.5751L125.65 32.6333L125.616 32.6915L125.581 32.7489L125.547 32.8063L125.511 32.8637L125.472 32.9204L125.434 32.9772L125.393 33.0332L125.352 33.0891L125.311 33.1445L125.266 33.199L125.222 33.2535L125.177 33.3075L125.13 33.3606L125.083 33.4137L125.034 33.4654L124.984 33.5179L124.932 33.5689L124.882 33.6206L124.828 33.6709L124.774 33.7212L124.718 33.7706L124.663 33.8194L124.606 33.8683L124.548 33.9163L124.487 33.9637L124.426 34.0103L124.365 34.0569L124.303 34.1035L124.239 34.1487L124.173 34.1939L124.108 34.2384L124.041 34.283L123.973 34.3261L123.904 34.3693L123.834 34.4116L123.762 34.4539L123.691 34.4948L123.617 34.5365L123.542 34.5782L123.465 34.6185L123.388 34.6588L123.31 34.6975L123.231 34.7355L123.15 34.7736L123.07 34.8108L122.989 34.8475L122.906 34.8833L122.824 34.9177L122.74 34.9514L122.654 34.9852L122.57 35.0182L122.484 35.0497L122.395 35.0813L122.308 35.1114L122.219 35.1415L122.13 35.171L122.038 35.1991L121.949 35.2272L121.857 35.2544L121.765 35.2803L121.672 35.3053L121.577 35.3303L121.481 35.3548L121.385 35.3777L121.289 35.4007L121.193 35.4223L121.095 35.4439L120.995 35.4646L120.896 35.483L120.796 35.5033L120.694 35.5216L120.59 35.5399L120.485 35.5562L120.378 35.5725L120.271 35.5888L120.162 35.605L120.05 35.6193L119.938 35.6335L119.823 35.6478L119.708 35.66L119.591 35.6722L119.471 35.6844L119.351 35.6966L119.229 35.7068L119.105 35.717L118.979 35.7271L118.854 35.7373L118.724 35.7455L118.596 35.7536L118.464 35.7617L118.331 35.7678L118.197 35.7739L118.06 35.78L117.922 35.7841L117.784 35.7882L117.642 35.7923L117.498 35.7943L117.355 35.7963L117.209 35.7984L117.063 35.7998L116.914 35.8013H116.764H116.684L116.598 35.8006L116.507 35.7999L116.41 35.7992L116.306 35.7977L116.197 35.7962L116.084 35.7948L115.963 35.7934L115.836 35.7913L115.703 35.7893L115.565 35.7872L115.421 35.7832L115.269 35.7811L115.113 35.7771L114.951 35.773L114.783 35.7689L114.615 35.7649L114.451 35.7628L114.292 35.7588L114.137 35.7567L113.988 35.7547L113.844 35.7527L113.705 35.7506L113.57 35.7486L113.441 35.7466L113.315 35.7451L113.195 35.7436L113.08 35.7422L112.97 35.7415H112.864L112.763 35.7408H112.669H112.536H112.405H112.279L112.155 35.7415H112.035H111.917L111.804 35.7422H111.694L111.587 35.7429L111.483 35.7436L111.381 35.745L111.283 35.7457L111.189 35.7464L111.097 35.7471L111.008 35.7486L110.924 35.7501L110.84 35.7515L110.757 35.7529L110.674 35.7544L110.513 35.7564L110.429 35.7585L110.342 35.7605L110.187 35.7646L110.107 35.7666L110.028 35.7687L109.948 35.7707L109.871 35.7727L109.792 35.7748L109.716 35.7768L109.462 35.7849L109.429 35.4884L109.672 35.4467L109.767 35.4251ZM130.265 31.1976L130.266 31.324L130.27 31.4489L130.277 31.5716L130.287 31.6929L130.301 31.8121L130.318 31.93L130.338 32.0455L130.359 32.1597L130.386 32.2716L130.417 32.3821L130.448 32.4912L130.482 32.5974L130.52 32.703L130.561 32.8064L130.605 32.9083L130.652 33.008L130.703 33.1057L130.755 33.202L130.812 33.2968L130.871 33.3894L130.933 33.4797L130.998 33.5695L131.066 33.657L131.138 33.7424L131.211 33.8256L131.289 33.9083L131.367 33.9886L131.451 34.0668L131.537 34.1437L131.625 34.219L131.717 34.2922L131.813 34.3647L131.911 34.4343L132.01 34.5018L132.111 34.5672L132.215 34.6302L132.319 34.6913L132.428 34.7501L132.538 34.8061L132.651 34.86L132.767 34.9125L132.882 34.9613L133.002 35.0093L133.123 35.0545L133.247 35.0968L133.374 35.1385L133.501 35.1774L133.632 35.214L133.765 35.2478L133.9 35.2802L134.037 35.3097L134.178 35.337L134.319 35.3628L134.464 35.3858L134.611 35.4074L134.761 35.4257L134.912 35.442L135.066 35.4562L135.223 35.4684L135.382 35.4786L135.543 35.4867L135.707 35.4928L135.874 35.4969L136.044 35.4976L136.207 35.4969L136.369 35.4928L136.528 35.4867L136.685 35.4786L136.84 35.4684L136.994 35.4562L137.144 35.442L137.292 35.4236L137.438 35.4053L137.582 35.3846L137.724 35.361L137.863 35.3351L138.001 35.307L138.135 35.2769L138.268 35.2446L138.4 35.2108L138.528 35.1736L138.657 35.1355L138.78 35.0938L138.904 35.0506L139.023 35.0047L139.143 34.9572L139.26 34.907L139.375 34.8547L139.487 34.8001L139.598 34.7434L139.707 34.6838L139.813 34.6227L139.919 34.5588L140.022 34.4929L140.123 34.4239L140.222 34.3535L140.318 34.2811L140.411 34.2072L140.501 34.1311L140.587 34.0536L140.672 33.9746L140.753 33.8942L140.831 33.8116L140.905 33.7284L140.978 33.6423L141.045 33.5548L141.112 33.4659L141.175 33.3753L141.234 33.2834L141.291 33.1893L141.344 33.0931L141.395 32.9962L141.442 32.8971L141.488 32.7966L141.529 32.6947L141.568 32.5907L141.603 32.4845L141.638 32.3774L141.665 32.2675L141.692 32.1577L141.716 32.0449L141.737 31.9302L141.754 31.8146L141.768 31.6976L141.778 31.5777L141.785 31.4571L141.788 31.3343L141.789 31.2102L141.788 31.0832L141.785 30.9591L141.778 30.8356L141.768 30.7143L141.754 30.5951L141.737 30.4773L141.716 30.3617L141.692 30.2475L141.668 30.1356L141.641 30.0251L141.607 29.9167L141.572 29.8096L141.535 29.7048L141.494 29.6023L141.449 29.5003L141.402 29.4012L141.352 29.3029L141.299 29.2067L141.243 29.1127L141.185 29.0207L141.124 28.9303L141.059 28.8414L140.991 28.7545L140.921 28.6691L140.847 28.5858L140.771 28.504L140.691 28.4237L140.608 28.3461L140.524 28.2692L140.436 28.1945L140.344 28.1213L140.249 28.0503L140.153 27.9813L140.053 27.9137L139.952 27.849L139.848 27.7865L139.742 27.7263L139.634 27.6681L139.524 27.6122L139.411 27.5582L139.296 27.5072L139.179 27.4577L139.06 27.4111L138.938 27.3659L138.816 27.3236L138.689 27.2833L138.562 27.2445L138.431 27.2092L138.298 27.1749L138.162 27.1433L138.024 27.1138L137.884 27.0865L137.742 27.0615L137.597 27.0385L137.45 27.017L137.301 26.9986L137.147 26.9824L136.992 26.9681L136.836 26.9559L136.676 26.9457L136.513 26.9376L136.35 26.9335L136.182 26.9295L136.012 26.928L135.842 26.9295L135.672 26.9335L135.505 26.9376L135.342 26.9457L135.181 26.9559L135.023 26.9681L134.866 26.9824L134.713 26.9986L134.562 27.017L134.414 27.0373L134.268 27.0603L134.125 27.0853L133.983 27.112L133.845 27.1407L133.711 27.1722L133.578 27.2052L133.446 27.2404L133.318 27.2784L133.192 27.3179L133.07 27.3596L132.948 27.4034L132.829 27.45L132.714 27.498L132.6 27.5483L132.488 27.6014L132.379 27.6559L132.272 27.7127L132.168 27.7715L132.067 27.8331L131.968 27.8962L131.87 27.9622L131.775 28.0303L131.683 28.0999L131.594 28.1709L131.508 28.2448L131.423 28.3201L131.343 28.3976L131.266 28.4766L131.19 28.5578L131.118 28.641L131.05 28.725L130.983 28.8119L130.919 28.9008L130.858 28.9912L130.803 29.0832L130.747 29.1772L130.696 29.2734L130.647 29.3711L130.602 29.4708L130.558 29.5728L130.518 29.6761L130.481 29.7817L130.447 29.8894L130.416 29.9985L130.389 30.1098L130.361 30.2225L130.341 30.3373L130.32 30.4551L130.303 30.5735L130.289 30.6942L130.279 30.8169L130.272 30.9418L130.269 31.0682L130.265 31.1976ZM127.519 31.1854L127.52 31.057L127.526 30.9306L127.537 30.8057L127.554 30.6822L127.574 30.5595L127.598 30.4382L127.626 30.3183L127.662 30.2005L127.701 30.0835L127.746 29.9673L127.795 29.8532L127.848 29.7404L127.908 29.6285L127.971 29.5186L128.038 29.4096L128.112 29.3025L128.188 29.1963L128.271 29.0915L128.357 28.9881L128.449 28.887L128.544 28.7859L128.645 28.6876L128.752 28.5899L128.862 28.4937L128.977 28.3988L129.095 28.3054L129.22 28.2135L129.348 28.1237L129.481 28.0348L129.619 27.9473L129.761 27.8612L129.908 27.7772L130.058 27.694L130.212 27.6142L130.368 27.5367L130.527 27.462L130.688 27.3895L130.851 27.3199L131.017 27.2532L131.186 27.1885L131.355 27.1268L131.53 27.0672L131.708 27.0113L131.886 26.9573L132.066 26.9056L132.251 26.8568L132.438 26.8108L132.626 26.7677L132.817 26.7268L133.012 26.6895L133.208 26.6537L133.407 26.6208L133.608 26.5906L133.812 26.5634L134.018 26.5383L134.227 26.5162L134.436 26.4979L134.65 26.4795L134.867 26.4653L135.086 26.4531L135.306 26.4449L135.53 26.4368L135.754 26.4348L135.984 26.4333L136.213 26.4348L136.442 26.4388L136.667 26.4449L136.889 26.4551L137.109 26.4673L137.327 26.4816L137.544 26.4979L137.757 26.5182L137.966 26.5404L138.174 26.5654L138.38 26.5927L138.583 26.6236L138.784 26.6566L138.983 26.6918L139.178 26.7306L139.373 26.7715L139.563 26.8153L139.751 26.8613L139.937 26.9101L140.12 26.9618L140.299 27.0163L140.478 27.0731L140.653 27.1327L140.827 27.1952L140.996 27.2605L141.165 27.3273L141.329 27.3977L141.491 27.4701L141.651 27.5454L141.809 27.6238L141.964 27.7049L142.116 27.7882L142.264 27.8736L142.408 27.9597L142.547 28.048L142.681 28.1378L142.811 28.2281L142.937 28.3201L143.056 28.4135L143.172 28.5089L143.284 28.6052L143.39 28.7028L143.492 28.8011L143.59 28.9017L143.681 29.0036L143.769 29.107L143.852 29.211L143.93 29.3172L144.004 29.4242L144.072 29.5327L144.136 29.6417L144.195 29.753L144.25 29.865L144.299 29.9791L144.345 30.0939L144.384 30.2103L144.419 30.3281L144.45 30.4465L144.474 30.5664L144.494 30.6885L144.512 30.8112L144.525 30.9347L144.532 31.0603L144.533 31.1872L144.532 31.3128L144.525 31.4369L144.515 31.5604L144.498 31.6825L144.474 31.8038L144.45 31.9237L144.419 32.0421L144.383 32.1599L144.343 32.2763L144.297 32.3911L144.247 32.5052L144.192 32.6179L144.131 32.7293L144.065 32.8391L143.996 32.9482L143.921 33.0567L143.843 33.1629L143.758 33.2685L143.668 33.3725L143.575 33.475L143.476 33.5762L143.373 33.6759L143.264 33.775L143.153 33.8727L143.035 33.9695L142.912 34.0643L142.785 34.1584L142.653 34.2509L142.516 34.3421L142.376 34.4318L142.229 34.5202L142.079 34.6077L141.924 34.6931L141.767 34.7757L141.608 34.8561L141.447 34.9328L141.285 35.0075L141.12 35.0793L140.951 35.1483L140.782 35.2159L140.609 35.279L140.433 35.34L140.257 35.3988L140.079 35.4542L139.897 35.5073L139.714 35.5575L139.527 35.6049L139.339 35.6501L139.15 35.6924L138.958 35.7319L138.763 35.7685L138.566 35.8023L138.366 35.8333L138.165 35.862L137.963 35.8878L137.759 35.9108L137.551 35.9315L137.342 35.9499L137.129 35.9641L136.916 35.9763L136.7 35.9844L136.483 35.9926L136.263 35.9967L136.041 35.9974L135.812 35.9967L135.587 35.9926L135.362 35.9865L135.142 35.9763L134.923 35.9641L134.707 35.9499L134.493 35.9336L134.281 35.9132L134.073 35.8902L133.866 35.865L133.661 35.8369L133.459 35.806L133.26 35.773L133.063 35.7372L132.868 35.6977L132.674 35.6568L132.484 35.6123L132.298 35.5657L132.113 35.5162L131.93 35.4637L131.751 35.4092L131.572 35.3518L131.398 35.2916L131.225 35.2285L131.054 35.1624L130.887 35.0948L130.723 35.0238L130.559 34.9499L130.399 34.8738L130.243 34.7957L130.088 34.7139L129.936 34.6298L129.787 34.5438L129.642 34.4554L129.503 34.3665L129.368 34.2754L129.239 34.1842L129.113 34.0908L128.992 33.9954L128.877 33.8999L128.766 33.8022L128.659 33.7032L128.558 33.6026L128.46 33.5015L128.368 33.3981L128.281 33.2941L128.197 33.1885L128.12 33.0815L128.046 32.973L127.977 32.8632L127.913 32.7518L127.855 32.6399L127.799 32.5258L127.75 32.411L127.705 32.2948L127.665 32.177L127.629 32.0577L127.598 31.9371L127.574 31.8158L127.553 31.6931L127.536 31.5682L127.526 31.4432L127.519 31.3162L127.519 31.1854Z" fill="#2C6CBC"/>
<path fill-rule="evenodd" clip-rule="evenodd" d="M52.1719 0C71.3998 1.73435 84.2217 10.9229 84.3016 22.0067C81.4761 11.2216 69.1358 4.23752 52.1719 0Z" fill="#B8B7BD"/>
<path fill-rule="evenodd" clip-rule="evenodd" d="M67.9872 4.5416C84.7067 1.90203 93.9129 6.62698 82.1353 11.5723C78.1772 13.2342 74.3848 13.8644 69.4708 14.4832C63.7629 15.2025 58.1276 15.6275 52.5625 15.7582C63.6455 16.5126 77.8493 15.4516 86.3923 11.563C97.1039 6.35491 86.8437 -1.12016 67.7682 4.26307L67.9872 4.5416Z" fill="#2C6CBC"/>
<path fill-rule="evenodd" clip-rule="evenodd" d="M55.24 22.2116C53.7758 15.3919 57.4532 9.67706 64.4849 5.93701C73.3885 9.8637 79.6712 14.8622 81.5904 22.1692C78.2433 16.9648 72.7145 12.0467 64.4002 8.83932C59.1981 11.5586 56.6206 16.5269 55.24 22.2116Z" fill="#66C7A9"/>
<path fill-rule="evenodd" clip-rule="evenodd" d="M52.1719 0C64.7892 1.13781 74.6489 5.4866 79.9586 11.4743L78.6808 12.6422L77.7963 11.803C72.0097 6.55693 63.0383 2.71423 52.1719 0Z" fill="#B8B7BD"/>
</svg>
