<svg width="95" height="36" viewBox="0 0 95 36" fill="none" xmlns="http://www.w3.org/2000/svg">
<g clip-path="url(#clip0_2313_4941)">
<path d="M94.9985 0.000732422H59.4844V36H94.9985V0.000732422Z" fill="#1361A2"/>
<path d="M58.5997 0.000762939H0V36H58.5997V0.000762939Z" fill="#1361A2"/>
<path d="M93.0091 0L79.457 17.7804H81.4955L94.9987 0H93.0091Z" fill="#E1001E"/>
<path d="M86.627 25.7126C87.2449 27.4702 88.5173 32.0328 89.0302 32.4029H85.6783C85.6687 31.9988 85.6156 31.5969 85.52 31.2041C85.3762 30.6828 84.1656 26.7322 84.1656 26.7322H78.8472L78.0092 27.9338C78.0092 27.9338 79.0162 31.1206 79.0759 31.2754C79.186 31.5634 79.6643 32.4029 79.6643 32.4029H76.4548C76.4548 32.4029 76.3736 31.9119 76.3426 31.7153C76.3167 31.5483 76.0362 30.6483 76.0362 30.6483C75.6991 31.0196 75.3906 31.416 75.1134 31.8341C74.9098 32.2071 74.8257 32.4029 74.8257 32.4029H72.3146C72.3146 32.4029 72.229 31.9119 72.1995 31.7153C72.1708 31.5483 71.8708 30.5763 71.8708 30.5763C71.5441 30.9715 71.241 31.3858 70.9631 31.8168C70.8591 32.007 70.7654 32.2026 70.6826 32.4029H68.1938C68.1938 32.4029 68.8959 31.7239 69.1426 31.4323C69.5583 30.937 71.0983 28.8994 71.0983 28.8994L70.4819 26.7322H65.203C65.203 26.7322 62.1914 30.739 62.072 30.8664C61.6944 31.3516 61.3549 31.8653 61.0563 32.4029H59.4883V31.3906C59.5242 31.3632 59.5408 31.3373 59.5537 31.3286C59.6005 31.2955 61.8331 28.4825 63.8853 25.7126C65.7281 23.2942 67.4609 20.9448 67.6098 20.7209C67.9432 20.1703 68.2425 19.5997 68.506 19.0123H71.235C71.2668 19.4596 71.322 19.905 71.4004 20.3465C71.4723 20.5805 73.1353 26.1065 73.1763 26.1699L74.0913 24.9775L72.5232 20.0722C72.3856 19.7076 72.2219 19.3533 72.0334 19.0123H75.2227C75.2104 19.308 75.2451 19.6038 75.3256 19.8886C75.455 20.2961 76.1376 22.7967 76.1376 22.7967C76.1376 22.7967 78.3142 20.0326 78.4394 19.8295C78.5939 19.5832 78.6853 19.3025 78.7055 19.0123H81.3669C80.8653 19.4424 80.416 19.9301 80.0283 20.4653L76.9353 24.4462C76.9353 24.4462 77.1835 25.2922 77.3029 25.7126C77.3331 25.8336 77.3554 25.9164 77.3554 25.9251C77.3554 25.9337 77.4165 25.8487 77.5208 25.7126C78.2473 24.7853 81.5395 20.4062 81.7387 20.0333C81.9406 19.7055 82.1201 19.3644 82.2761 19.0123H84.8655C84.8876 19.3489 84.9343 19.6834 85.005 20.0131L86.627 25.7126ZM82.681 21.5698C81.8847 22.8225 81.0092 24.0231 80.0599 25.164H83.6096C83.6096 25.164 82.9205 23.017 82.7975 22.5346C82.7391 22.2243 82.7171 21.9082 82.7321 21.5928C82.7321 21.5482 82.7249 21.4805 82.681 21.5698ZM69.0563 21.5698C68.2583 22.8211 67.3834 24.0215 66.4366 25.164H69.982C69.982 25.164 69.2943 23.017 69.1756 22.5346C69.1133 22.2248 69.0892 21.9085 69.1037 21.5928C69.1037 21.5482 69.0929 21.4805 69.0563 21.5698ZM74.3955 29.952L75.3738 28.5934C75.281 28.494 74.7329 26.8042 74.7329 26.8042L73.7841 28.0433L74.3955 29.952Z" fill="white"/>
<path d="M9.80739 19.0569H7.78906V32.5051H9.80739V19.0569Z" fill="white"/>
<path d="M19.5886 19.0569H17.5703V32.5051H19.5886V19.0569Z" fill="white"/>
<path d="M37.6809 24.1402H35.6641V32.5051H37.6809V24.1402Z" fill="white"/>
<path d="M49.3997 24.1402H47.3828V32.5051H49.3997V24.1402Z" fill="white"/>
<path d="M10.4094 24.8054C10.4094 24.8054 12.7996 23.0911 14.851 24.6931C15.2653 25.0457 15.5834 25.4978 15.7753 26.0071C16.162 27.1336 16.2427 28.3427 16.0091 29.5106C15.5005 32.4072 13.5261 32.796 12.1249 32.5202C10.7238 32.2445 10.3828 31.716 10.3828 31.716C11.1032 31.7842 11.83 31.7181 12.5263 31.5209C13.5376 31.1918 13.7556 30.6706 13.9253 29.6035C14.0951 28.5365 14.0649 26.2145 13.383 25.511C12.7011 24.8076 10.4742 24.8962 10.4742 24.8962C10.4742 24.8962 10.3461 24.8386 10.4073 24.8069" fill="white"/>
<path d="M20.2164 24.7687C20.2164 24.7687 22.4282 23.2265 24.4955 24.5174C25.1766 24.9494 25.4226 26.0798 25.4399 26.9287L25.4471 32.4792L23.4216 32.5066L23.4043 26.6919C23.4043 26.6919 23.4216 25.236 22.1815 24.9847C21.5423 24.8328 20.8815 24.7928 20.2287 24.8667C20.2287 24.8667 20.1632 24.8047 20.2157 24.7687" fill="white"/>
<path d="M28.0568 24.8004C28.0568 24.8004 30.5197 23.3028 32.7516 24.5189C33.1083 24.8048 33.3888 25.1745 33.568 25.5953C33.7472 26.016 33.8196 26.4746 33.7788 26.9302L33.7903 32.4792L31.7619 32.508L31.7446 26.6933C31.7337 26.2774 31.577 25.8787 31.3021 25.5667C31.0271 25.2548 30.6514 25.0496 30.2406 24.9869C29.5248 24.8538 28.7933 24.8271 28.0698 24.9077C28.0698 24.9077 28.0014 24.84 28.0568 24.8011" fill="white"/>
<path d="M38.0508 25.9286C38.2571 25.4051 38.6049 24.9492 39.0552 24.6122C39.5055 24.2751 40.0406 24.07 40.6007 24.0199V25.9286H38.0508Z" fill="white"/>
<path d="M43.7848 21.7534V24.1416H46.0528V25.0473H43.7626V30.2126C43.7626 30.2126 43.7187 31.6562 44.9494 31.5713C46.1801 31.4863 46.1441 31.6044 46.1441 31.6044C46.15 31.6382 46.1464 31.673 46.1337 31.7049C46.121 31.7368 46.0997 31.7646 46.0722 31.7851C45.6905 32.1259 45.2303 32.3667 44.7328 32.4858C44.2353 32.605 43.7161 32.5987 43.2216 32.4677C42.7909 32.3476 42.4084 32.0959 42.1276 31.7477C41.8837 31.2894 41.7495 30.7807 41.7356 30.2616C41.7241 30.2083 41.7356 22.7786 41.7356 22.7786L43.5216 21.7548L43.7848 21.7534Z" fill="white"/>
<path d="M29.3088 28.5307C29.3981 28.4561 29.4974 28.3943 29.6037 28.3471C30.0487 28.1862 30.5277 28.1433 30.9941 28.2226C30.9941 28.2226 31.2818 28.2226 31.0898 28.0901C30.6022 27.7009 30.0032 27.4779 29.38 27.4536C28.756 27.4068 28.1382 27.6049 27.6574 28.0058C27.1765 28.4068 26.8703 28.9792 26.8036 29.6021C26.7843 30.1243 26.8651 30.6453 27.0416 31.1371C27.1598 31.5201 27.3909 31.8582 27.7047 32.1072C28.0185 32.3561 28.4002 32.5041 28.7996 32.5318C30.2979 32.6434 31.1258 31.9774 31.1272 31.8838C31.1286 31.7902 31.0689 31.783 31.0215 31.7945C30.974 31.806 29.2808 32.0105 28.9988 31.032C28.8374 30.4263 28.816 29.7918 28.9362 29.1766C29.0058 28.9332 29.134 28.7107 29.3096 28.5286" fill="white"/>
<path d="M47.3711 18.9756H49.4182L47.3934 21.3192L47.3711 18.9756Z" fill="#008AD8"/>
<path d="M51.3842 20.4142V24.0631L48.2266 20.4055L51.3842 20.4142Z" fill="#FFA600"/>
</g>
<defs>
<clipPath id="clip0_2313_4941">
<rect width="95" height="36" fill="white"/>
</clipPath>
</defs>
</svg>
