<svg width="95" height="36" viewBox="0 0 95 36" fill="none" xmlns="http://www.w3.org/2000/svg">
<g clip-path="url(#clip0_2313_4941)">
<path d="M94.9985 0.000488281H59.4844V35.9998H94.9985V0.000488281Z" fill="#1361A2"/>
<path d="M58.5997 0.000976562H0V36.0003H58.5997V0.000976562Z" fill="#1361A2"/>
<path d="M93.0091 0L79.457 17.7804H81.4955L94.9987 0H93.0091Z" fill="#E1001E"/>
<path d="M86.627 25.7125C87.2449 27.47 88.5173 32.0327 89.0302 32.4028H85.6783C85.6687 31.9986 85.6156 31.5967 85.52 31.204C85.3762 30.6827 84.1656 26.7321 84.1656 26.7321H78.8472L78.0092 27.9337C78.0092 27.9337 79.0162 31.1205 79.0759 31.2753C79.186 31.5633 79.6643 32.4028 79.6643 32.4028H76.4548C76.4548 32.4028 76.3736 31.9117 76.3426 31.7152C76.3167 31.5481 76.0362 30.6481 76.0362 30.6481C75.6991 31.0195 75.3906 31.4159 75.1134 31.834C74.9098 32.2069 74.8257 32.4028 74.8257 32.4028H72.3146C72.3146 32.4028 72.229 31.9117 72.1995 31.7152C72.1708 31.5481 71.8708 30.5761 71.8708 30.5761C71.5441 30.9714 71.241 31.3857 70.9631 31.8167C70.8591 32.0068 70.7654 32.2025 70.6826 32.4028H68.1938C68.1938 32.4028 68.8959 31.7238 69.1426 31.4322C69.5583 30.9368 71.0983 28.8992 71.0983 28.8992L70.4819 26.7321H65.203C65.203 26.7321 62.1914 30.7388 62.072 30.8663C61.6944 31.3515 61.3549 31.8652 61.0563 32.4028H59.4883V31.3905C59.5242 31.3631 59.5408 31.3372 59.5537 31.3285C59.6005 31.2954 61.8331 28.4824 63.8853 25.7125C65.7281 23.294 67.4609 20.9447 67.6098 20.7208C67.9432 20.1702 68.2425 19.5996 68.506 19.0122H71.235C71.2668 19.4595 71.322 19.9048 71.4004 20.3464C71.4723 20.5804 73.1353 26.1064 73.1763 26.1697L74.0913 24.9774L72.5232 20.0721C72.3856 19.7074 72.2219 19.3532 72.0334 19.0122H75.2227C75.2104 19.3079 75.2451 19.6037 75.3256 19.8885C75.455 20.296 76.1376 22.7965 76.1376 22.7965C76.1376 22.7965 78.3142 20.0325 78.4394 19.8294C78.5939 19.5831 78.6853 19.3024 78.7055 19.0122H81.3669C80.8653 19.4423 80.416 19.93 80.0283 20.4652L76.9353 24.446C76.9353 24.446 77.1835 25.292 77.3029 25.7125C77.3331 25.8335 77.3554 25.9163 77.3554 25.9249C77.3554 25.9336 77.4165 25.8486 77.5208 25.7125C78.2473 24.7852 81.5395 20.4061 81.7387 20.0332C81.9406 19.7053 82.1201 19.3642 82.2761 19.0122H84.8655C84.8876 19.3488 84.9343 19.6833 85.005 20.013L86.627 25.7125ZM82.681 21.5696C81.8847 22.8224 81.0092 24.0229 80.0599 25.1639H83.6096C83.6096 25.1639 82.9205 23.0168 82.7975 22.5344C82.7391 22.2242 82.7171 21.9081 82.7321 21.5927C82.7321 21.5481 82.7249 21.4804 82.681 21.5696ZM69.0563 21.5696C68.2583 22.8209 67.3834 24.0213 66.4366 25.1639H69.982C69.982 25.1639 69.2943 23.0168 69.1756 22.5344C69.1133 22.2246 69.0892 21.9084 69.1037 21.5927C69.1037 21.5481 69.0929 21.4804 69.0563 21.5696ZM74.3955 29.9519L75.3738 28.5933C75.281 28.4939 74.7329 26.804 74.7329 26.804L73.7841 28.0432L74.3955 29.9519Z" fill="white"/>
<path d="M9.80739 19.0571H7.78906V32.5053H9.80739V19.0571Z" fill="white"/>
<path d="M19.5886 19.0571H17.5703V32.5053H19.5886V19.0571Z" fill="white"/>
<path d="M37.6809 24.1401H35.6641V32.5051H37.6809V24.1401Z" fill="white"/>
<path d="M49.3997 24.1401H47.3828V32.5051H49.3997V24.1401Z" fill="white"/>
<path d="M10.4094 24.8056C10.4094 24.8056 12.7996 23.0913 14.851 24.6933C15.2653 25.0459 15.5834 25.498 15.7753 26.0073C16.162 27.1337 16.2427 28.3428 16.0091 29.5108C15.5005 32.4073 13.5261 32.7961 12.1249 32.5204C10.7238 32.2446 10.3828 31.7162 10.3828 31.7162C11.1032 31.7844 11.83 31.7182 12.5263 31.521C13.5376 31.192 13.7556 30.6707 13.9253 29.6037C14.0951 28.5366 14.0649 26.2146 13.383 25.5112C12.7011 24.8078 10.4742 24.8963 10.4742 24.8963C10.4742 24.8963 10.3461 24.8387 10.4073 24.807" fill="white"/>
<path d="M20.2164 24.7689C20.2164 24.7689 22.4282 23.2266 24.4955 24.5176C25.1766 24.9496 25.4226 26.08 25.4399 26.9289L25.4471 32.4794L23.4216 32.5067L23.4043 26.692C23.4043 26.692 23.4216 25.2362 22.1815 24.9849C21.5423 24.8329 20.8815 24.793 20.2287 24.8668C20.2287 24.8668 20.1632 24.8049 20.2157 24.7689" fill="white"/>
<path d="M28.0568 24.8005C28.0568 24.8005 30.5197 23.3029 32.7516 24.519C33.1083 24.8049 33.3888 25.1747 33.568 25.5954C33.7472 26.0161 33.8196 26.4747 33.7788 26.9303L33.7903 32.4793L31.7619 32.5081L31.7446 26.6934C31.7337 26.2776 31.577 25.8788 31.3021 25.5669C31.0271 25.2549 30.6514 25.0497 30.2406 24.987C29.5248 24.8539 28.7933 24.8272 28.0698 24.9078C28.0698 24.9078 28.0014 24.8401 28.0568 24.8013" fill="white"/>
<path d="M38.0508 25.9287C38.2571 25.4051 38.6049 24.9493 39.0552 24.6122C39.5055 24.2752 40.0406 24.0701 40.6007 24.02V25.9287H38.0508Z" fill="white"/>
<path d="M43.7848 21.7534V24.1416H46.0528V25.0474H43.7626V30.2127C43.7626 30.2127 43.7187 31.6563 44.9494 31.5713C46.1801 31.4864 46.1441 31.6045 46.1441 31.6045C46.15 31.6383 46.1464 31.6731 46.1337 31.705C46.121 31.7369 46.0997 31.7646 46.0722 31.7852C45.6905 32.126 45.2303 32.3668 44.7328 32.4859C44.2353 32.605 43.7161 32.5988 43.2216 32.4677C42.7909 32.3477 42.4084 32.096 42.1276 31.7477C41.8837 31.2895 41.7495 30.7807 41.7356 30.2616C41.7241 30.2084 41.7356 22.7787 41.7356 22.7787L43.5216 21.7548L43.7848 21.7534Z" fill="white"/>
<path d="M29.3088 28.5306C29.3981 28.456 29.4974 28.3942 29.6037 28.347C30.0487 28.1861 30.5277 28.1432 30.9941 28.2225C30.9941 28.2225 31.2818 28.2225 31.0898 28.09C30.6022 27.7008 30.0032 27.4778 29.38 27.4535C28.756 27.4068 28.1382 27.6048 27.6574 28.0058C27.1765 28.4067 26.8703 28.9791 26.8036 29.602C26.7843 30.1242 26.8651 30.6452 27.0416 31.137C27.1598 31.52 27.3909 31.8581 27.7047 32.1071C28.0185 32.356 28.4002 32.504 28.7996 32.5317C30.2979 32.6433 31.1258 31.9773 31.1272 31.8837C31.1286 31.7901 31.0689 31.7829 31.0215 31.7944C30.974 31.8059 29.2808 32.0104 28.9988 31.0319C28.8374 30.4262 28.816 29.7917 28.9362 29.1765C29.0058 28.9331 29.134 28.7106 29.3096 28.5285" fill="white"/>
<path d="M47.3711 18.9756H49.4182L47.3934 21.3192L47.3711 18.9756Z" fill="#008AD8"/>
<path d="M51.3842 20.4144V24.0634L48.2266 20.4058L51.3842 20.4144Z" fill="#FFA600"/>
</g>
<defs>
<clipPath id="clip0_2313_4941">
<rect width="95" height="36" fill="white"/>
</clipPath>
</defs>
</svg>
