<svg width="36" height="36" viewBox="0 0 36 36" fill="none" xmlns="http://www.w3.org/2000/svg">
<path d="M12 11.4375V12.1875M4.5 14.1C4.5 10.74 4.5 9.06 5.154 7.776C5.72923 6.64708 6.64708 5.72923 7.776 5.154C9.06 4.5 10.74 4.5 14.1 4.5H21.9C25.26 4.5 26.94 4.5 28.224 5.154C29.3529 5.72923 30.2708 6.64708 30.846 7.776C31.5 9.06 31.5 10.74 31.5 14.1V21.9C31.5 25.26 31.5 26.94 30.846 28.224C30.2708 29.3529 29.3529 30.2708 28.224 30.846C26.94 31.5 25.26 31.5 21.9 31.5H14.1C10.74 31.5 9.06 31.5 7.776 30.846C6.64708 30.2708 5.72923 29.3529 5.154 28.224C4.5 26.94 4.5 25.26 4.5 21.9V14.1Z" stroke="white" stroke-width="2" stroke-linecap="round" stroke-linejoin="round"/>
<path d="M12 24.5625V16.125M18 24.5625V20.25M18 20.25V16.125M18 20.25C18 18.318 19.833 17.25 21.6 17.25C24 17.25 24 19.3125 24 21.5625V24.5625" stroke="white" stroke-width="2" stroke-linecap="round" stroke-linejoin="round"/>
</svg>
