<svg width="36" height="36" viewBox="0 0 36 36" fill="none" xmlns="http://www.w3.org/2000/svg">
<path d="M24 33C22.401 31.1325 20.301 30 18 30C15.699 30 13.599 31.1325 12 33M18 19.5C16.098 19.5 14.0865 19.83 12.51 20.2695C11.3235 20.5995 10.368 22.113 10.515 23.34C10.569 23.7945 10.9605 24 11.373 24H24.627C25.0395 24 25.431 23.7945 25.485 23.34C25.632 22.1115 24.6765 20.601 23.49 20.2695C21.7013 19.7749 19.8557 19.5162 18 19.5Z" stroke="white" stroke-width="2" stroke-linecap="round"/>
<path d="M31.5 15C30.7044 15 29.9413 15.3161 29.3787 15.8787C28.8161 16.4413 28.5 17.2044 28.5 18V19.5C28.5 20.2956 28.1839 21.0587 27.6213 21.6213C27.0587 22.1839 26.2956 22.5 25.5 22.5M4.5 15C5.29565 15 6.05871 15.3161 6.62132 15.8787C7.18393 16.4413 7.5 17.2044 7.5 18V19.5C7.5 20.2956 7.81607 21.0587 8.37868 21.6213C8.94129 22.1839 9.70435 22.5 10.5 22.5M18 24V33M18 15V19.5M19.23 15H16.77C14.667 15 13.6155 15 12.855 14.364C12.0945 13.7295 11.8395 12.639 11.3295 10.455C10.527 7.023 10.1265 5.307 10.968 4.155C11.8095 3 13.464 3 16.77 3H19.23C22.536 3 24.1905 3 25.032 4.155C25.8735 5.307 25.473 7.023 24.672 10.455C24.162 12.6375 23.907 13.7295 23.145 14.364C22.3845 15 21.333 15 19.23 15Z" stroke="white" stroke-width="2" stroke-linecap="round" stroke-linejoin="round"/>
</svg>
