<svg width="125" height="105" viewBox="0 0 125 105" fill="none" xmlns="http://www.w3.org/2000/svg">
<path d="M56.306 80.6775C56.306 74.0775 54.581 68.535 51.131 64.05C48.686 60.96 45.3685 58.93 41.1785 57.96C37.0535 57 33.1535 56.9325 29.6285 57.75C28.4285 50.625 30.3785 43.08 35.3285 35.085C40.2885 27.095 46.6835 21.0875 54.5135 17.0625L42.656 0C36.656 2.97 30.956 6.735 25.706 11.2875C20.381 15.84 15.656 21.075 11.456 26.9925C7.25601 32.91 4.10601 39.5925 2.08101 47.1675C0.0560063 54.7425 -0.506492 62.4675 0.461008 70.4175C1.72101 80.9175 5.11101 89.3175 10.631 95.5425C16.146 101.848 23.016 105 31.241 105C38.4785 105 44.486 102.825 49.241 98.415C53.946 94.095 56.296 88.175 56.291 80.655L56.306 80.6775ZM124.736 80.6775C124.736 74.0775 123.011 68.535 119.561 64.05C117.111 60.9 113.794 58.8575 109.609 57.9225C105.409 56.9975 101.559 56.9425 98.0585 57.7575C96.8585 50.7075 98.7335 43.1325 103.699 35.1075C108.649 27.1575 115.039 21.1575 122.869 17.1075L111.041 0C105.036 2.97 99.386 6.7325 94.091 11.2875C88.718 15.908 83.9458 21.1842 79.886 26.9925C75.716 32.9175 72.611 39.5925 70.586 47.1675C68.529 54.7366 67.9761 62.6356 68.9585 70.4175C70.2035 80.9175 73.5785 89.3175 79.0835 95.5425C84.5835 101.803 91.441 104.932 99.656 104.932C106.906 104.942 112.911 102.75 117.671 98.355C122.376 94.035 124.731 88.115 124.736 80.595V80.6775Z" fill="#E1EBFF" fill-opacity="0.32"/>
</svg>
