<svg width="129" height="108" viewBox="0 0 129 108" fill="none" xmlns="http://www.w3.org/2000/svg">
<path d="M57.8701 82.9185C57.8701 76.1352 56.0971 70.4387 52.5513 65.8292C50.0384 62.6533 46.6287 60.5669 42.3224 59.57C38.0828 58.5833 34.0744 58.514 30.4515 59.3542C29.2182 52.0312 31.2224 44.2767 36.3099 36.0596C41.4076 27.8476 47.9803 21.6733 56.0278 17.5365L43.8409 0C37.6742 3.0525 31.8159 6.92208 26.4201 11.601C20.9471 16.28 16.0909 21.6604 11.7742 27.7423C7.45756 33.8242 4.22006 40.6923 2.13881 48.4777C0.057562 56.2631 -0.520562 64.2027 0.473813 72.3735C1.76881 83.1652 5.25298 91.7985 10.9263 98.1964C16.5945 104.677 23.6553 107.917 32.1088 107.917C39.5474 107.917 45.7217 105.681 50.6088 101.149C55.4445 96.7087 57.8598 90.6243 57.8546 82.8954L57.8701 82.9185ZM128.201 82.9185C128.201 76.1352 126.428 70.4387 122.882 65.8292C120.364 62.5917 116.954 60.4924 112.653 59.5314C108.337 58.5808 104.38 58.5242 100.782 59.3619C99.549 52.116 101.476 44.3306 106.579 36.0827C111.667 27.9119 118.234 21.7452 126.282 17.5827L114.125 0C107.954 3.0525 102.147 6.91951 96.7046 11.601C91.1824 16.3499 86.2776 21.7727 82.1051 27.7423C77.8192 33.8319 74.628 40.6923 72.5467 48.4777C70.4326 56.2571 69.8643 64.3755 70.874 72.3735C72.1536 83.1652 75.6224 91.7985 81.2803 98.1964C86.9331 104.63 93.981 107.847 102.424 107.847C109.876 107.858 116.047 105.604 120.94 101.087C125.775 96.6471 128.196 90.5626 128.201 82.8337V82.9185Z" fill="#FDFDFD" fill-opacity="0.1"/>
</svg>
