<svg width="183" height="36" viewBox="0 0 183 36" fill="none" xmlns="http://www.w3.org/2000/svg">
<g clip-path="url(#clip0_2313_4895)">
<path fill-rule="evenodd" clip-rule="evenodd" d="M178.687 7.73964C175.31 8.94545 176.147 14.008 179.724 14.008C181.688 14.008 183.001 12.7177 183.001 10.7878C183.001 9.30706 182.056 8.05957 180.636 7.66462C179.764 7.42231 179.553 7.43046 178.687 7.73964ZM178.247 8.41174C177.624 8.81151 176.895 10.087 176.895 10.7776C176.895 11.4237 177.353 12.332 177.974 12.9161C178.71 13.6092 180.04 13.7781 181.036 13.3048C182.968 12.3869 183.148 9.64681 181.355 8.44749C180.526 7.89303 179.082 7.87636 178.247 8.41174ZM178.19 10.8211C178.19 12.2327 178.247 12.6705 178.421 12.6131C178.549 12.5712 178.678 12.189 178.709 11.7639C178.795 10.5988 179.48 10.7176 180.394 12.0562C180.621 12.3872 180.925 12.6583 181.071 12.6583C181.43 12.6583 181.411 12.5793 180.845 11.7227C180.41 11.0644 180.387 10.9549 180.641 10.7541C181.143 10.3582 181.207 9.75074 180.79 9.33318C180.492 9.03455 180.173 8.95323 179.3 8.95323H178.19V10.8211ZM178.745 10.0892C178.745 10.6624 178.754 10.6681 179.512 10.5662C180.861 10.3852 180.82 9.50898 179.463 9.50898C178.782 9.50898 178.745 9.53881 178.745 10.0892Z" fill="#545152"/>
<path fill-rule="evenodd" clip-rule="evenodd" d="M0.18485 0.0301979C0.0634672 0.0707681 0 6.16407 0 17.7681V35.4442H13.4151H26.8301V32.4819V29.5195L17.0157 29.4715L7.20102 29.4236L7.18326 24.6996L7.16549 19.9757L15.9241 19.9275C22.6487 19.8907 24.7165 19.826 24.8284 19.6497C25.0736 19.2631 25.011 14.2457 24.7577 13.9921C24.5914 13.8255 22.3543 13.7698 15.8298 13.7698L7.12386 13.7696L7.12886 9.9258L7.13385 6.08182L16.7044 6.03384L26.275 5.98586V3.02591V0.0661368L13.3224 0.0172303C6.19832 -0.00944595 0.286435 -0.0037032 0.18485 0.0301979ZM44.2532 9.51491C42.5546 9.96044 41.2346 10.7094 39.8459 12.0153L38.7649 13.0317L38.6724 11.4093L38.5799 9.78686L35.8969 9.73369C34.4212 9.70442 33.0259 9.72702 32.7962 9.7839L32.3786 9.88727L32.4262 22.6194L32.4737 35.3516L35.8506 35.4022L39.2275 35.4526V27.677C39.2275 22.8542 39.3032 19.5285 39.4268 18.9196C40.0111 16.041 41.7403 14.4645 44.3132 14.4645C46.0581 14.4645 47.0887 15.1731 47.578 16.709C47.7232 17.1649 47.8194 20.2968 47.8759 26.4132L47.9595 35.4442H51.3649H54.7705V27.6727C54.7705 22.5941 54.843 19.563 54.9796 18.925C55.6035 16.0128 57.2072 14.5236 59.7294 14.5149C61.7258 14.5078 62.7312 15.3566 63.0762 17.3405C63.2072 18.093 63.2821 21.607 63.2821 26.9882V35.4526L66.659 35.4022L70.0359 35.3516L70.089 26.3669C70.1482 16.3514 70.0601 15.0675 69.1914 13.2822C68.4727 11.8054 66.9959 10.4202 65.5714 9.88653C61.6521 8.4184 57.9026 9.22425 54.9104 12.1773C54.0975 12.9797 53.6603 13.2238 53.6603 12.8757C53.6603 12.5084 51.7564 10.6503 50.9049 10.1863C49.8345 9.6029 47.8864 9.14163 46.5364 9.15182C46.0275 9.15571 45.0002 9.3191 44.2532 9.51491ZM85.1163 9.41617C84.353 9.54807 83.4993 9.74592 83.2191 9.85596C80.2523 11.021 78.3375 12.6844 76.979 15.2772C75.8545 17.4229 75.4393 19.4159 75.4404 22.6619C75.4417 27.2726 76.4574 30.1322 78.996 32.674C81.2894 34.9698 83.9704 36 87.6516 36C92.3547 36 95.6117 34.4589 97.7102 31.2403C98.6712 29.7666 99.6636 27.1485 99.3718 26.8563C99.2267 26.7111 93.8729 25.662 93.1337 25.6341C93.0147 25.6296 92.8595 25.8969 92.7889 26.228C92.3837 28.1309 90.9734 29.8745 89.5214 30.2679C88.5035 30.5436 86.4913 30.4037 85.7188 30.0038C83.3725 28.7891 82.4575 26.6565 82.4495 22.384C82.4416 18.1121 83.2731 16.2036 85.6527 15.0332C86.3073 14.711 86.8245 14.6143 87.8918 14.6147C90.1846 14.6153 91.5862 15.5619 92.2701 17.5715C92.4254 18.0276 92.6074 18.4348 92.6748 18.4765C92.8391 18.578 98.8653 17.4811 99.0335 17.319C99.337 17.0267 98.2512 14.6223 97.129 13.1016C95.5915 11.018 93.6303 9.92635 90.4823 9.40191C88.5994 9.08827 86.9899 9.09254 85.1163 9.41617ZM145.16 9.31224C143.736 9.66107 142.477 10.6594 141.212 12.4445L140.641 13.2498L140.588 11.5182L140.534 9.78686H137.481H134.428L134.381 22.6156L134.333 35.4442H137.639H140.945L141.055 28.7289C141.172 21.6382 141.329 19.7521 141.943 18.1099C142.669 16.1667 143.685 15.3967 145.545 15.3791C146.413 15.3709 146.919 15.4819 147.637 15.8377C148.666 16.3476 148.766 16.3144 149.146 15.3383C149.992 13.159 150.768 10.7422 150.688 10.5336C150.574 10.2357 149.15 9.59846 148.012 9.33577C147.085 9.12199 145.975 9.11273 145.16 9.31224ZM161.607 9.32354C158.244 9.81705 154.815 12.3569 153.34 15.4472C151.284 19.7525 151.289 25.8506 153.35 29.9717C154.809 32.887 157.006 34.6679 160.241 35.5554C161.981 36.033 166.557 36.0322 168.105 35.5541C171.095 34.6306 173.428 32.681 174.737 30.0117C175.128 29.2144 175.406 28.5206 175.355 28.4701C175.305 28.4193 173.825 28.1362 172.067 27.841C168.818 27.2952 168.382 27.3106 168.382 27.9708C168.382 28.1148 168.242 28.4588 168.07 28.7354C167.132 30.2489 166.047 30.8717 164.311 30.8917C161.454 30.9247 159.109 28.5881 158.911 25.5118L158.853 24.607L167.318 24.5588L175.784 24.5107L175.783 23.1695C175.781 21.5896 175.37 18.7284 174.938 17.2899C173.219 11.5701 167.912 8.39858 161.607 9.32354ZM104.252 9.94432C104.198 10.0866 104.185 14.486 104.223 19.7206C104.297 29.8965 104.305 29.9899 105.277 32.0008C107.068 35.7051 112.608 37.1134 117.162 35.0219C117.652 34.7968 118.053 34.5499 118.053 34.4728C118.053 34.3957 118.176 34.3327 118.327 34.3327C118.477 34.3327 119.182 33.7838 119.892 33.1129L121.184 31.8932L121.237 33.6223L121.291 35.3516L124.391 35.4024L127.492 35.4531L127.444 22.62L127.397 9.78686L124.436 9.73388C122.808 9.70479 121.288 9.72721 121.059 9.78371L120.643 9.88653V17.6295C120.643 22.3575 120.566 25.8006 120.444 26.4718C120.061 28.5855 118.848 29.9615 116.858 30.5406C114.815 31.1353 112.56 30.5492 111.881 29.2466C111.137 27.8215 111.132 27.7548 111.029 18.6789L110.929 9.78686L107.64 9.73629C104.962 9.69497 104.333 9.73369 104.252 9.94432ZM162.997 14.4965C161.99 14.6964 160.661 15.5563 160.046 16.4061C159.417 17.2751 158.945 18.7004 158.945 19.7316V20.4388H163.967H168.989L168.89 19.3527C168.776 18.085 168.2 16.6756 167.493 15.9293C166.447 14.8246 164.488 14.2005 162.997 14.4965Z" fill="#E8252C"/>
</g>
<defs>
<clipPath id="clip0_2313_4895">
<rect width="183" height="36" fill="white"/>
</clipPath>
</defs>
</svg>
