<svg width="28" height="28" viewBox="0 0 28 28" fill="none" xmlns="http://www.w3.org/2000/svg">
<path fill-rule="evenodd" clip-rule="evenodd" d="M13.9999 3.50004C13.7069 3.498 13.4197 3.58153 13.1735 3.74038C12.9272 3.89923 12.7328 4.12649 12.6139 4.39429L10.2864 9.51129L4.81237 10.2918C3.56987 10.4703 3.06062 11.9998 3.94437 12.894L7.99212 16.982L7.00687 22.701C6.96841 22.921 6.97844 23.1468 7.03624 23.3625C7.09405 23.5783 7.19824 23.7788 7.34155 23.9501C7.48486 24.1214 7.66382 24.2593 7.86596 24.3543C8.0681 24.4493 8.28853 24.499 8.51187 24.5C8.77558 24.4993 9.03448 24.4293 9.26262 24.297L13.9999 21.6003L18.7371 24.2988C18.9821 24.4388 19.2394 24.5018 19.4896 24.5018C19.7126 24.5005 19.9327 24.4506 20.1345 24.3556C20.3362 24.2606 20.5149 24.1228 20.658 23.9517C20.8011 23.7807 20.9051 23.5805 20.963 23.3651C21.0208 23.1497 21.031 22.9243 20.9929 22.7045L20.0076 16.9838L24.0554 12.8958C24.9391 12.0015 24.4299 10.472 23.1874 10.2935L17.7134 9.51304L15.3859 4.39779C15.2675 4.12934 15.0732 3.90134 14.827 3.74184C14.5807 3.58234 14.2933 3.49829 13.9999 3.50004ZM13.9999 5.25004C14.1276 5.25004 14.1661 5.33579 14.1819 5.37254L16.3991 10.2428L16.6826 10.8658L17.3599 10.962L22.5714 11.7058C22.61 11.7097 22.6465 11.7251 22.6761 11.7501C22.7058 11.7751 22.7272 11.8084 22.7376 11.8458C22.7511 11.8836 22.7535 11.9244 22.7445 11.9635C22.7355 12.0025 22.7155 12.0382 22.6869 12.0663L18.8334 15.9618L18.3801 16.4185L18.4904 17.052L19.4266 22.498C19.4395 22.5657 19.426 22.6229 19.3864 22.6695C19.3666 22.693 19.3423 22.7122 19.315 22.7261C19.2876 22.7399 19.2577 22.748 19.2271 22.75C19.193 22.7503 19.1595 22.7406 19.1309 22.722L14.6194 20.1513L13.9999 19.7995L13.3804 20.1513L8.86712 22.722C8.83895 22.7402 8.80615 22.75 8.77262 22.75C8.74202 22.748 8.71214 22.7399 8.68477 22.7261C8.6574 22.7122 8.63312 22.693 8.61337 22.6695C8.5737 22.6229 8.5597 22.5657 8.57137 22.498L9.50937 17.052L9.61962 16.4185L9.16637 15.9618L5.31287 12.0663C5.28424 12.0382 5.26425 12.0025 5.25526 11.9635C5.24626 11.9244 5.24864 11.8836 5.26212 11.8458C5.27239 11.8087 5.29356 11.7755 5.32288 11.7505C5.35221 11.7256 5.38834 11.71 5.42662 11.7058L10.6416 10.962L11.3171 10.8658L11.6006 10.2428L13.8179 5.36729C13.8336 5.33754 13.8721 5.25004 13.9999 5.25004Z" fill="#FDB022"/>
</svg>
