<svg width="36" height="36" viewBox="0 0 36 36" fill="none" xmlns="http://www.w3.org/2000/svg">
<path d="M3.53516 11.571L14.0052 18.552C15.4497 19.5135 16.1712 19.995 16.9512 20.1825C17.6412 20.3475 18.3597 20.3475 19.0482 20.1825C19.8282 19.995 20.5497 19.5135 21.9942 18.552L32.4642 11.571M10.7352 29.25H25.2642C27.7842 29.25 29.0442 29.25 30.0072 28.7595C30.8533 28.3278 31.5411 27.6395 31.9722 26.793C32.4642 25.83 32.4642 24.57 32.4642 22.05V13.95C32.4642 11.43 32.4642 10.17 31.9737 9.207C31.5422 8.36031 30.8538 7.67192 30.0072 7.2405C29.0442 6.75 27.7842 6.75 25.2642 6.75H10.7352C8.21516 6.75 6.95516 6.75 5.99216 7.2405C5.14602 7.67218 4.45819 8.36054 4.02716 9.207C3.53516 10.17 3.53516 11.43 3.53516 13.95V22.05C3.53516 24.57 3.53516 25.83 4.02566 26.793C4.45708 27.6397 5.14546 28.3281 5.99216 28.7595C6.95516 29.25 8.21516 29.25 10.7352 29.25Z" stroke="#FAFAFA" stroke-width="2" stroke-linecap="round" stroke-linejoin="round"/>
</svg>
