<svg width="101" height="36" viewBox="0 0 101 36" fill="none" xmlns="http://www.w3.org/2000/svg">
<path d="M0.718262 0V27.9137L4.30937 27.9277V14.6354H12.9418V11.1184H4.29555V3.50307H15.5523V0H0.718262ZM21.9887 5.67692C22.6114 5.67692 23.2087 5.42893 23.649 4.9875C24.0893 4.54607 24.3367 3.94735 24.3367 3.32307C24.3367 2.6988 24.0893 2.10009 23.649 1.65866C23.2087 1.21722 22.6114 0.96923 21.9887 0.96923C21.3659 0.96923 20.7687 1.21722 20.3284 1.65866C19.888 2.10009 19.6406 2.6988 19.6406 3.32307C19.6406 3.94735 19.888 4.54607 20.3284 4.9875C20.7687 5.42893 21.3659 5.67692 21.9887 5.67692ZM20.1793 9.18V27.9277H23.7704V9.18H20.1793Z" fill="black"/>
<path fill-rule="evenodd" clip-rule="evenodd" d="M37.0436 8.64001C32.2923 8.64001 28.9775 12.6692 28.9775 17.46C28.9775 22.2508 32.2923 26.28 37.0436 26.28C39.2259 26.28 41.0215 25.4492 42.3337 24.0646V26.557C42.3427 27.3017 42.2045 28.0407 41.927 28.7315C41.6494 29.4225 41.2382 30.0512 40.7167 30.5817C40.1953 31.1122 39.5741 31.5337 38.889 31.822C38.2042 32.1105 37.469 32.2597 36.7261 32.2615C35.5797 32.2615 34.447 31.8185 33.5492 31.1815L31.7537 34.297C33.142 35.1965 34.747 35.704 36.3992 35.7655C38.0511 35.827 39.689 35.4402 41.1402 34.6462C42.5913 33.8522 43.8018 32.6805 44.644 31.2542C45.4859 29.828 45.9286 28.2005 45.9248 26.543V9.19384H42.3337V10.8692C41.0215 9.48461 39.2259 8.65384 37.0436 8.65384V8.64001ZM32.5547 17.46C32.5547 14.4831 34.8198 12.1431 37.4443 12.1431C40.0686 12.1431 42.3198 14.4969 42.3198 17.46C42.3198 20.4369 40.0546 22.7631 37.4443 22.7631C34.8198 22.7631 32.5547 20.4369 32.5547 17.46Z" fill="black"/>
<path d="M58.8254 12.1431C57.7982 12.1613 56.8196 12.584 56.1011 13.3199C55.3827 14.0558 54.9819 15.0457 54.9856 16.0754V27.9277H51.3945V9.18004H54.9856V10.897C55.5228 10.1831 56.2208 9.60659 57.0226 9.21439C57.8241 8.82219 58.7069 8.62539 59.5987 8.64004C62.1125 8.64004 64.0462 9.88619 65.1512 11.797C65.7677 10.8391 66.6114 10.0493 67.6069 9.49842C68.6024 8.94749 69.7184 8.65257 70.8556 8.64004C74.93 8.64004 77.4852 11.9354 77.4852 16.02V27.9277H73.9218V16.0616C73.9255 15.0318 73.525 14.042 72.8063 13.3061C72.0878 12.5702 71.1092 12.1474 70.082 12.1293C69.0551 12.1474 68.0765 12.5702 67.3578 13.3061C66.6393 14.042 66.2385 15.0318 66.2423 16.0616V27.914H62.6512V16.0616C62.6552 15.0342 62.2564 14.0464 61.5407 13.3109C60.8252 12.5754 59.8501 12.151 58.8254 12.1293V12.1431Z" fill="black"/>
<path fill-rule="evenodd" clip-rule="evenodd" d="M96.5868 11.3123C95.7713 10.4599 94.7907 9.78322 93.7054 9.32372C92.6201 8.86422 91.4527 8.63157 90.2746 8.63999C84.9431 8.63999 81.1587 13.1538 81.1587 18.5538C81.1587 23.9538 84.9431 28.4677 90.2746 28.4677C91.4525 28.4737 92.6191 28.24 93.7041 27.7805C94.789 27.3212 95.7698 26.6457 96.5868 25.7952V27.9277H100.164V9.17999H96.5728V11.3123H96.5868ZM84.7361 18.5538C84.7361 14.9815 87.4708 12.1431 90.6614 12.1431C93.8381 12.1431 96.5868 14.9815 96.5868 18.5538C96.5868 22.1261 93.8518 24.9507 90.6614 24.9507C87.4845 24.9507 84.7361 22.1261 84.7361 18.5538Z" fill="black"/>
</svg>
