<svg width="28" height="28" viewBox="0 0 28 28" fill="none" xmlns="http://www.w3.org/2000/svg">
<path d="M14.0004 20.1542L9.15872 23.0709C8.94483 23.207 8.72122 23.2653 8.48788 23.2459C8.25455 23.2265 8.05038 23.1487 7.87538 23.0126C7.70038 22.8765 7.56427 22.7065 7.46705 22.5027C7.36983 22.299 7.35038 22.0703 7.40872 21.8167L8.69205 16.3042L4.40455 12.6001C4.21011 12.4251 4.08877 12.2256 4.04055 12.0016C3.99233 11.7776 4.00672 11.559 4.08372 11.3459C4.16072 11.1328 4.27738 10.9578 4.43372 10.8209C4.59005 10.684 4.80394 10.5965 5.07538 10.5584L10.7337 10.0626L12.9212 4.8709C13.0184 4.63757 13.1693 4.46256 13.3739 4.3459C13.5784 4.22923 13.7873 4.1709 14.0004 4.1709C14.2135 4.1709 14.4223 4.22923 14.6269 4.3459C14.8314 4.46256 14.9823 4.63757 15.0796 4.8709L17.2671 10.0626L22.9254 10.5584C23.1976 10.5973 23.4115 10.6848 23.567 10.8209C23.7226 10.957 23.8393 11.132 23.917 11.3459C23.9948 11.5598 24.0096 11.7787 23.9614 12.0027C23.9132 12.2267 23.7914 12.4258 23.5962 12.6001L19.3087 16.3042L20.592 21.8167C20.6504 22.0695 20.6309 22.2982 20.5337 22.5027C20.4365 22.7073 20.3004 22.8772 20.1254 23.0126C19.9504 23.1479 19.7462 23.2257 19.5129 23.2459C19.2796 23.2661 19.0559 23.2078 18.842 23.0709L14.0004 20.1542Z" fill="#FDB022"/>
</svg>
