<svg width="254" height="36" viewBox="0 0 254 36" fill="none" xmlns="http://www.w3.org/2000/svg">
<path d="M34.2722 12.931V9.54762C34.2722 9.54762 35.1715 0 17.3365 0C0.791909 0 0 9.54762 0 9.54762V26.5525C0 26.5525 1.39073 36 17.3389 36C30.887 36 34.2745 29.2405 34.2745 29.2405V17.1047H17.3389V21.6786H25.3068V29.2405C25.3068 29.2405 24.9085 31.4263 17.3389 31.4263C8.46905 31.4263 8.9652 26.5525 8.9652 26.5525V9.54762C8.9652 9.54762 8.46905 4.37865 17.3389 4.37865C26.0059 4.37865 25.3068 9.54762 25.3068 9.54762V12.931H34.2722Z" fill="black"/>
<path d="M65.5596 11.9582V34.937H72.782V17.1565C72.782 17.1565 72.782 14.2195 78.6629 14.2195C84.5923 14.2195 84.5923 17.1052 84.5923 17.1052V34.9565H91.8148V16.3588C91.8148 16.3588 91.5167 10.2946 78.6629 10.2946C74.2632 10.2946 71.3402 11.0069 69.3969 11.9411L69.4482 11.9363L65.5596 11.9582Z" fill="black"/>
<path d="M122.959 11.9582V34.937H130.184V17.1565C130.184 17.1565 130.184 14.2195 136.062 14.2195C141.989 14.2195 141.989 17.1052 141.989 17.1052V34.9565H149.214V16.3588C149.214 16.3588 148.916 10.2946 136.062 10.2946C131.658 10.2946 128.739 11.0069 126.796 11.9411L126.843 11.9363L122.959 11.9582Z" fill="black"/>
<path d="M195.986 25.0128H176.953C176.953 25.0128 176.906 29.267 176.938 29.267C176.967 29.2695 176.953 32.1723 182.836 32.1723C188.763 32.1723 188.773 29.2523 188.773 29.2523L188.763 27.3473H195.986V29.2378C195.986 29.2378 196.535 35.9973 182.836 35.9973C169.131 35.9973 169.73 29.2378 169.73 29.2378V17.4507C169.73 17.4507 169.183 10.6913 182.836 10.6913C196.584 10.6913 195.986 17.502 195.986 17.502V25.0128ZM176.943 17.5996L176.953 20.2365H188.763C188.763 20.2365 188.783 17.5898 188.785 17.5996C188.785 17.5996 188.797 14.6187 182.836 14.6187C176.95 14.6187 176.943 17.5996 176.943 17.5996Z" fill="black"/>
<path d="M224.783 20.6683V17.502C224.783 17.502 225.381 10.6913 211.631 10.6913C197.977 10.6913 198.527 17.4507 198.527 17.4507V29.2378C198.527 29.2378 197.929 35.9973 211.631 35.9973C225.328 35.9973 224.783 29.2378 224.783 29.2378V26.3033H217.56L217.57 29.2523C217.57 29.2523 217.56 32.1723 211.631 32.1723C205.75 32.1723 205.767 29.2378 205.735 29.2328C205.699 29.2328 205.75 17.5971 205.75 17.5971C205.772 17.5971 205.852 14.6162 211.929 14.6162C217.66 14.6162 217.56 17.5483 217.56 17.5483V20.6487L224.783 20.6683Z" fill="black"/>
<path d="M150.859 11.553H153.147V6.0376H160.374V11.5554H168.293V15.4364H160.374V29.5602C160.374 29.5602 160.77 33.1388 167.949 32.1532C167.949 32.1532 167.99 35.6588 167.939 35.6635C161.714 36.4685 153.147 35.822 153.147 29.5602V15.4364H150.859V11.553Z" fill="black"/>
<path d="M227.623 0.307672C227.623 0.307672 234.848 0.371095 234.848 0.297915C234.848 0.246688 234.806 10.8384 234.85 10.8384C236.439 10.4993 238.35 10.292 240.724 10.292C253.577 10.292 253.877 16.3562 253.877 16.3562V34.9538H246.656V17.1051C246.656 17.1051 246.656 14.2193 240.724 14.2193C234.848 14.2193 234.848 17.1563 234.848 17.1563V34.9367H227.623V0.307672Z" fill="black"/>
<path d="M120.522 25.0128H101.489C101.489 25.0128 101.443 29.267 101.474 29.267C101.509 29.2695 101.489 32.1723 107.372 32.1723C113.299 32.1723 113.309 29.2523 113.309 29.2523L113.299 27.3473H120.522V29.2378C120.522 29.2378 121.072 35.9973 107.372 35.9973C93.6701 35.9973 94.2665 29.2378 94.2665 29.2378V17.4507C94.2665 17.4507 93.7192 10.6913 107.372 10.6913C121.123 10.6913 120.522 17.502 120.522 17.502V25.0128ZM101.479 17.5996L101.489 20.2365H113.299C113.299 20.2365 113.319 17.5898 113.321 17.5996C113.321 17.5996 113.334 14.6187 107.372 14.6187C101.487 14.6187 101.479 17.5996 101.479 17.5996Z" fill="black"/>
<path d="M63.1209 25.0128H44.0906C44.0906 25.0128 44.0393 29.267 44.0711 29.267C44.1077 29.2695 44.0906 32.1723 49.964 32.1723C55.8959 32.1723 55.9107 29.2523 55.9107 29.2523L55.8959 27.3473H63.1209V29.2378C63.1209 29.2378 63.6709 35.9973 49.964 35.9973C36.267 35.9973 36.8682 29.2378 36.8682 29.2378V17.4507C36.8682 17.4507 36.3158 10.6913 49.964 10.6913C63.7173 10.6913 63.1209 17.502 63.1209 17.502V25.0128ZM44.0784 17.5996L44.0906 20.2365H55.8959C55.8959 20.2365 55.9204 17.5898 55.9204 17.5996C55.9204 17.5996 55.9302 14.6187 49.964 14.6187C44.0906 14.6187 44.0784 17.5996 44.0784 17.5996Z" fill="black"/>
</svg>
