<svg width="216" height="36" viewBox="0 0 216 36" fill="none" xmlns="http://www.w3.org/2000/svg">
<g clip-path="url(#clip0_2313_4964)">
<path d="M0.0273438 0.0428543H216.031V36.1143H0.0273438V0.0428543Z" fill="#004C8F"/>
<path d="M36.0898 0.0428543H216.032V36.1143H36.0898V0.0428543Z" fill="#004C8F"/>
<path d="M47.3789 26.4588V9.33393H53.0249V15.1637H58.3066V9.33393H63.9526V26.4588H58.3066V19.9003H53.0249V26.4588H47.3789Z" fill="white"/>
<path d="M72.8779 13.7063H74.335C75.4277 13.7063 76.1562 13.8884 76.7026 14.0706C77.0669 14.2528 77.4311 14.4349 77.6132 14.7993C77.7954 15.1637 77.9775 15.528 78.1597 16.0746C78.3418 16.6211 78.3417 17.1676 78.3417 17.8964C78.3417 18.8073 78.1596 19.7181 77.9775 20.4469C77.6133 21.1756 77.249 21.54 76.7026 21.9043C76.1562 22.2687 75.4277 22.2686 74.335 22.2686H72.8779V13.7063ZM74.8813 26.4588C76.1562 26.4588 77.249 26.2766 78.1597 26.0944C79.0703 25.9122 79.7988 25.5479 80.3452 25.1835C80.8915 24.8192 81.4379 24.2727 81.9843 23.7261C82.5307 22.9974 82.895 22.2686 83.2592 21.1756C83.6235 20.2647 83.8056 18.9894 83.8056 17.7142C83.8056 15.8924 83.4414 14.2528 82.7129 12.9775C81.9843 11.7023 81.0737 10.7914 79.7988 10.2448C78.5239 9.69828 77.0669 9.33393 75.2456 9.33393H67.4141V26.4588H74.8813Z" fill="white"/>
<path d="M86.3555 26.4588V9.33393H99.6508V13.5241H91.8193V16.2568H98.0117V20.2647H91.8193V26.2766L86.3555 26.4588Z" fill="white"/>
<path d="M118.409 16.0746H113.127C112.945 15.1637 112.763 14.6172 112.217 14.0706C111.67 13.5241 111.124 13.3419 110.213 13.3419C109.303 13.3419 108.392 13.7063 107.846 14.435C107.299 15.1637 106.935 16.439 106.935 18.0786C106.935 19.3538 107.117 20.0825 107.299 20.8113C107.481 21.3578 108.028 21.9043 108.392 22.2687C108.938 22.633 109.485 22.6331 110.213 22.6331C111.124 22.6331 111.67 22.4509 112.217 21.9043C112.763 21.3578 112.945 20.8113 113.127 19.7182H118.591C118.409 20.8113 118.227 21.7221 117.863 22.4509C117.498 23.1796 117.134 23.9083 116.406 24.637C115.677 25.3658 114.767 25.9123 113.856 26.2766C112.945 26.641 111.67 26.8232 110.395 26.8232C109.121 26.8232 107.846 26.641 106.753 26.2766C105.66 25.9123 104.749 25.3658 104.021 24.637C103.292 23.9083 102.746 23.1796 102.2 22.2687C101.653 20.9934 101.289 19.536 101.289 18.0786C101.289 16.8033 101.471 15.5281 102.018 14.435C102.382 13.3419 103.11 12.2488 103.839 11.5201C104.567 10.7914 105.478 10.2449 106.389 9.69833C107.481 9.15179 108.756 8.96962 110.213 8.96962C111.488 8.96962 112.581 9.15178 113.674 9.51614C114.767 9.8805 115.677 10.427 116.406 11.1557C117.134 11.8845 117.681 12.6132 118.045 13.5241C118.045 14.2528 118.227 14.9815 118.409 16.0746Z" fill="white"/>
<path d="M136.258 13.3419C136.986 13.3419 137.533 13.3419 137.897 13.5241C138.261 13.7063 138.443 13.8884 138.625 14.0706C138.808 14.2528 138.99 14.6171 138.99 14.9815C138.99 15.3458 138.808 15.7102 138.443 16.0746C138.079 16.4389 137.533 16.439 136.622 16.439H134.436V13.5241H136.258V13.3419ZM137.715 26.4588C138.99 26.4588 139.9 26.4588 140.447 26.2766C140.993 26.0944 141.539 25.9122 142.086 25.73C142.632 25.3657 142.997 25.1835 143.361 24.8191C143.725 24.4548 144.089 23.9083 144.271 23.3617C144.454 22.8152 144.636 22.0865 144.636 21.3578C144.636 20.2647 144.454 19.536 143.907 18.8073C143.361 18.0785 142.632 17.7142 141.904 17.3498C143.361 16.439 144.089 15.1637 144.089 13.7063C144.089 12.2488 143.361 10.9735 142.086 10.2448C141.175 9.69828 139.536 9.33393 137.351 9.33393H128.973V26.4588H137.715ZM136.804 19.3538C137.897 19.3538 138.625 19.536 138.99 19.7182C139.354 20.0825 139.536 20.4469 139.536 20.8112C139.536 21.3578 139.354 21.7221 138.99 22.0865C138.625 22.4508 137.897 22.4508 136.804 22.4508H134.436V19.1716L136.804 19.3538Z" fill="white"/>
<path d="M157.022 20.8112H153.379L155.201 14.6172L157.022 20.8112ZM151.922 26.4588L152.651 24.2726H158.297L159.025 26.4588H164.671L158.479 9.33393H152.833L146.641 26.4588H151.922Z" fill="white"/>
<path d="M166.676 26.4588V9.33393H171.958L177.786 18.4429V9.33393H183.067V26.4588H177.786L171.958 17.532V26.4588H166.676Z" fill="white"/>
<path d="M186.891 26.4588V9.33393H192.354V15.1637L197.454 9.51612H204.011L197.818 15.8924L204.739 26.4588H198L193.994 19.7182L192.537 21.1756V26.4588H186.891Z" fill="white"/>
<path d="M0.0273438 0.0428543H36.0887V36.1143H0.0273438V0.0428543Z" fill="#ED232A"/>
<path d="M6.40234 6.23695H29.7148V29.738H6.40234V6.23695Z" fill="white"/>
<path d="M16.2383 0.0428543H19.8808V36.1143H16.2383V0.0428543Z" fill="white"/>
<path d="M0.0273438 16.2568H36.0887V19.9004H0.0273438V16.2568Z" fill="white"/>
<path d="M12.5938 12.6132H23.3393V23.3618H12.5938V12.6132Z" fill="#004C8F"/>
</g>
<defs>
<clipPath id="clip0_2313_4964">
<rect width="216" height="36" fill="white"/>
</clipPath>
</defs>
</svg>
