<svg width="216" height="36" viewBox="0 0 216 36" fill="none" xmlns="http://www.w3.org/2000/svg">
<g clip-path="url(#clip0_2313_4964)">
<path d="M0.0273438 0.0428238H216.031V36.1143H0.0273438V0.0428238Z" fill="#004C8F"/>
<path d="M36.0898 0.0428238H216.032V36.1143H36.0898V0.0428238Z" fill="#004C8F"/>
<path d="M47.3789 26.459V9.33411H53.0249V15.1639H58.3066V9.33411H63.9526V26.459H58.3066V19.9005H53.0249V26.459H47.3789Z" fill="white"/>
<path d="M72.8779 13.7065H74.335C75.4277 13.7065 76.1562 13.8886 76.7026 14.0708C77.0669 14.253 77.4311 14.4351 77.6132 14.7995C77.7954 15.1638 77.9775 15.5282 78.1597 16.0748C78.3418 16.6213 78.3417 17.1678 78.3417 17.8965C78.3417 18.8074 78.1596 19.7183 77.9775 20.447C77.6133 21.1758 77.249 21.5401 76.7026 21.9045C76.1562 22.2689 75.4277 22.2688 74.335 22.2688H72.8779V13.7065ZM74.8813 26.459C76.1562 26.459 77.249 26.2768 78.1597 26.0946C79.0703 25.9124 79.7988 25.5481 80.3452 25.1837C80.8915 24.8194 81.4379 24.2728 81.9843 23.7263C82.5307 22.9976 82.895 22.2688 83.2592 21.1757C83.6235 20.2649 83.8056 18.9896 83.8056 17.7144C83.8056 15.8926 83.4414 14.2529 82.7129 12.9777C81.9843 11.7024 81.0737 10.7915 79.7988 10.245C78.5239 9.69847 77.0669 9.33411 75.2456 9.33411H67.4141V26.459H74.8813Z" fill="white"/>
<path d="M86.3555 26.459V9.33411H99.6508V13.5243H91.8193V16.2569H98.0117V20.2649H91.8193V26.2768L86.3555 26.459Z" fill="white"/>
<path d="M118.409 16.0747H113.127C112.945 15.1638 112.763 14.6172 112.217 14.0707C111.67 13.5242 111.124 13.342 110.213 13.342C109.303 13.342 108.392 13.7064 107.846 14.4351C107.299 15.1638 106.935 16.4391 106.935 18.0787C106.935 19.3539 107.117 20.0826 107.299 20.8114C107.481 21.3579 108.028 21.9044 108.392 22.2688C108.938 22.6331 109.485 22.6331 110.213 22.6331C111.124 22.6331 111.67 22.451 112.217 21.9044C112.763 21.3579 112.945 20.8113 113.127 19.7183H118.591C118.409 20.8113 118.227 21.7222 117.863 22.451C117.498 23.1797 117.134 23.9084 116.406 24.6371C115.677 25.3658 114.767 25.9124 113.856 26.2767C112.945 26.6411 111.67 26.8232 110.395 26.8232C109.121 26.8232 107.846 26.6411 106.753 26.2767C105.66 25.9124 104.749 25.3658 104.021 24.6371C103.292 23.9084 102.746 23.1797 102.2 22.2688C101.653 20.9935 101.289 19.5361 101.289 18.0787C101.289 16.8034 101.471 15.5282 102.018 14.4351C102.382 13.342 103.11 12.2489 103.839 11.5202C104.567 10.7915 105.478 10.245 106.389 9.69842C107.481 9.15188 108.756 8.96972 110.213 8.96972C111.488 8.96972 112.581 9.15187 113.674 9.51623C114.767 9.88059 115.677 10.4271 116.406 11.1558C117.134 11.8845 117.681 12.6133 118.045 13.5242C118.045 14.2529 118.227 14.9816 118.409 16.0747Z" fill="white"/>
<path d="M136.258 13.3421C136.986 13.3421 137.533 13.3421 137.897 13.5243C138.261 13.7064 138.443 13.8886 138.625 14.0708C138.808 14.253 138.99 14.6173 138.99 14.9817C138.99 15.346 138.808 15.7104 138.443 16.0748C138.079 16.4391 137.533 16.4391 136.622 16.4391H134.436V13.5243H136.258V13.3421ZM137.715 26.459C138.99 26.459 139.9 26.459 140.447 26.2768C140.993 26.0946 141.539 25.9124 142.086 25.7302C142.632 25.3659 142.997 25.1837 143.361 24.8193C143.725 24.455 144.089 23.9085 144.271 23.3619C144.454 22.8154 144.636 22.0867 144.636 21.3579C144.636 20.2649 144.454 19.5362 143.907 18.8074C143.361 18.0787 142.632 17.7144 141.904 17.35C143.361 16.4391 144.089 15.1639 144.089 13.7065C144.089 12.249 143.361 10.9737 142.086 10.245C141.175 9.69847 139.536 9.33411 137.351 9.33411H128.973V26.459H137.715ZM136.804 19.354C137.897 19.354 138.625 19.5362 138.99 19.7183C139.354 20.0827 139.536 20.4471 139.536 20.8114C139.536 21.358 139.354 21.7223 138.99 22.0866C138.625 22.451 137.897 22.451 136.804 22.451H134.436V19.1718L136.804 19.354Z" fill="white"/>
<path d="M157.022 20.8114H153.379L155.201 14.6173L157.022 20.8114ZM151.922 26.459L152.651 24.2728H158.297L159.025 26.459H164.671L158.479 9.33411H152.833L146.641 26.459H151.922Z" fill="white"/>
<path d="M166.676 26.459V9.33411H171.958L177.786 18.4431V9.33411H183.067V26.459H177.786L171.958 17.5322V26.459H166.676Z" fill="white"/>
<path d="M186.891 26.459V9.33411H192.354V15.1639L197.454 9.5163H204.011L197.818 15.8926L204.739 26.459H198L193.994 19.7183L192.537 21.1757V26.459H186.891Z" fill="white"/>
<path d="M0.0273438 0.0428238H36.0887V36.1143H0.0273438V0.0428238Z" fill="#ED232A"/>
<path d="M6.40234 6.2367H29.7148V29.7378H6.40234V6.2367Z" fill="white"/>
<path d="M16.2383 0.0428238H19.8808V36.1143H16.2383V0.0428238Z" fill="white"/>
<path d="M0.0273438 16.2568H36.0887V19.9004H0.0273438V16.2568Z" fill="white"/>
<path d="M12.5938 12.6133H23.3393V23.3618H12.5938V12.6133Z" fill="#004C8F"/>
</g>
<defs>
<clipPath id="clip0_2313_4964">
<rect width="216" height="36" fill="white"/>
</clipPath>
</defs>
</svg>
