<svg width="56" height="36" viewBox="0 0 56 36" fill="none" xmlns="http://www.w3.org/2000/svg">
<g clip-path="url(#clip0_2313_4959)">
<path fill-rule="evenodd" clip-rule="evenodd" d="M44.3354 10.3842C42.7638 10.7436 41.8605 11.9093 41.8367 13.6092C41.8322 13.9246 41.8071 14.3832 41.7809 14.6285L41.7331 15.0745L41.2148 15.1117C40.5731 15.1578 40.3334 15.4107 40.3721 16.0011L40.394 16.3382L41.045 16.3598L41.6959 16.3812V18.2964V20.2117L41.1937 20.586C40.2365 21.2992 39.5656 21.5616 39.0579 21.4215C38.5459 21.2803 38.5386 21.2422 38.497 18.5213C38.4616 16.2113 38.452 16.0783 38.3063 15.8835C37.7964 15.2017 36.0122 14.7631 35.5651 15.2096L35.3724 15.4024V18.3282C35.3724 21.2639 35.4156 21.8958 35.6479 22.3579C36.448 23.9495 39.2439 23.7222 41.2382 21.9034L41.7616 21.4261L41.7846 22.9214L41.8075 24.4168L42.0162 24.596C42.3842 24.9121 43.5141 24.7876 44.1585 24.3598C44.8318 23.9127 44.8204 23.9874 44.8204 19.9727V16.4654L45.6946 16.4362C46.9388 16.3947 47.3102 16.1253 47.1679 15.3671L47.12 15.1117L46.0632 15.1106C44.7267 15.1091 44.7901 15.1539 44.8402 14.2461C44.9374 12.4854 45.5809 11.7943 47.066 11.8556L47.6102 11.8781L47.6348 11.6631C47.7408 10.7359 45.9064 10.0249 44.3354 10.3842ZM36.3524 11.2779C35.3412 11.6072 34.8664 12.564 35.3183 13.3613C36.1777 14.8776 38.7201 14.3736 38.7201 12.6871C38.7201 11.6486 37.4802 10.9104 36.3524 11.2779ZM27.0623 11.5585C26.5698 11.6865 26.5939 11.3892 26.5939 17.3223V22.6962L26.8486 22.9738L27.1032 23.2515L30.903 23.2721L34.7029 23.2925L34.7027 22.6031C34.7021 21.3044 34.6538 21.2825 31.8015 21.2819L29.7557 21.2816L29.7776 17.0102C29.802 12.2871 29.8204 12.4856 29.324 12.1073C28.828 11.7293 27.5746 11.425 27.0623 11.5585ZM51.0323 15.0429C48.3899 15.4871 46.6403 17.2929 46.6448 19.5718C46.6498 22.1063 48.2541 23.3958 51.4043 23.3975C53.6183 23.3986 55.7379 22.4336 55.9451 21.3303C56.0385 20.8324 55.896 20.8015 55.1798 21.1643C52.0274 22.7608 49.3296 21.5384 49.9069 18.775C50.2973 16.9069 52.5035 15.9855 53.1087 17.4377C53.4654 18.2936 52.4696 19.2886 51.0325 19.5118C50.3812 19.6129 50.3526 19.6731 50.7614 20.0816C51.9303 21.2496 54.869 20.4302 55.6561 18.717C56.7462 16.3442 54.397 14.4774 51.0323 15.0429Z" fill="#005E9C"/>
<path fill-rule="evenodd" clip-rule="evenodd" d="M0.0351562 11.7192C0.0351562 22.2529 0.045758 23.3005 0.152885 23.2594C0.217608 23.2345 5.41476 23.2143 11.7022 23.2143H23.1339L19.8989 19.9812L16.6639 16.7482L11.6413 16.729L6.61902 16.7099L6.59986 11.6915L6.5807 6.67294L3.30793 3.40329L0.0351562 0.133636V11.7192Z" fill="#B11016"/>
<path fill-rule="evenodd" clip-rule="evenodd" d="M52.5587 0.0386856C50.5642 0.224339 49.7691 1.06916 49.5804 3.20278C49.3298 6.03682 49.9423 7.58746 51.5055 8.07771C52.4131 8.36222 54.1548 8.39623 55.3717 8.15297L55.6089 8.10558V7.26206V6.41835L54.4346 6.46462C52.3236 6.54769 52.1496 6.37393 52.1496 4.18438C52.1496 1.99111 52.2176 1.91715 54.2384 1.91715H55.6089V1.0437C55.6089 0.327293 55.5894 0.17026 55.5003 0.17026C55.4404 0.17026 55.0638 0.138295 54.6633 0.0990827C53.4853 -0.0159516 53.2249 -0.0233845 52.5587 0.0386856ZM3.29119 3.38527L6.58237 6.67462L6.60153 11.6923L6.6205 16.7099L11.6421 16.7289L16.6637 16.748L19.8816 19.9625L23.0993 23.1771L11.6239 23.2147L0.14823 23.2522L11.6979 23.2704L23.2475 23.2886V11.6923V0.0959238H11.6239H0L3.29119 3.38527ZM35.6899 0.150374L35.3737 0.178808V4.14814V8.11748L35.6527 8.17304C36.2672 8.29551 39.4712 8.24422 39.9862 8.10354C41.7621 7.6185 42.3668 6.61143 42.3668 4.13848C42.3668 0.617202 40.8132 -0.310692 35.6899 0.150374ZM26.5953 4.14721V8.12416H27.8585H29.1217L29.1418 6.54453L29.1618 4.9649H30.3522H31.5425L31.5625 6.54621L31.5826 8.1277L32.8644 8.10725L34.1462 8.087L34.1686 4.44455C34.1808 2.44121 34.1702 0.659202 34.1451 0.484328L34.0994 0.166729L32.8581 0.186984L31.6168 0.207427L31.5968 1.67555L31.5765 3.14368H30.3507H29.1247V1.65697V0.17026H27.86H26.5953V4.14721ZM43.3339 4.14721V8.12416H44.5986H45.8633V6.52744V4.9309L47.3698 4.91064L48.8762 4.89057V4.11004V3.32952L47.3698 3.30945L45.8633 3.28919V2.62333V1.95729L47.4813 1.93722L49.0994 1.91715L49.1204 1.0437L49.1413 0.17026H46.2377H43.3339V4.14721ZM39.2569 1.97736C39.7576 2.1868 39.8749 2.60085 39.8721 4.14721C39.8684 6.15929 39.6255 6.52576 38.3315 6.47354L37.7915 6.45161L37.7718 4.22229C37.761 2.99631 37.7702 1.94595 37.7923 1.88853C37.8427 1.75695 38.8801 1.81995 39.2569 1.97736ZM16.6084 11.6737L16.5893 16.6356H11.6421H6.69489L6.67574 11.6737L6.65658 6.71179H11.6421H16.6276L16.6084 11.6737ZM55.4043 28.3457C55.2559 28.4053 55.2367 28.4659 55.2352 28.88C55.2343 29.1368 55.1506 29.7651 55.0494 30.2762C54.6959 32.0621 54.8629 33.1228 55.4486 32.8097C55.6584 32.6976 55.6976 32.5228 55.5601 32.3131C55.3939 32.0597 55.4642 31.0086 55.7136 30.0217C55.8161 29.6161 55.9224 29.0558 55.95 28.7766L56 28.2691L55.7859 28.2737C55.668 28.2764 55.4963 28.3087 55.4043 28.3457ZM1.79494 28.4306C0.453059 28.8054 0.526709 30.0535 1.96121 31.2474C3.53762 32.5592 3.02411 33.6417 1.15255 32.9522C0.31543 32.6437 0.0366387 32.7112 0.0366387 33.2217C0.0366387 33.5995 1.97739 33.7826 2.69827 33.4726C4.02118 32.9039 3.9094 31.9718 2.36777 30.7123C1.50982 30.0115 1.31212 29.4992 1.71497 29.0206C2.10107 28.5624 2.6527 28.6211 3.19094 29.178C3.58653 29.5874 3.68771 29.5928 3.90215 29.2154C4.2332 28.6332 2.87737 28.1282 1.79494 28.4306ZM34.2139 28.598L33.9839 28.698L33.9364 29.5428C33.9102 30.0074 33.8224 30.8335 33.7412 31.3784C33.6599 31.9233 33.571 32.6174 33.5435 32.9208L33.4934 33.4726L33.7454 33.4724C33.9807 33.472 34.0144 33.4393 34.2509 32.9823C34.5857 32.3354 34.5954 32.3353 35.3125 32.9569C36.2564 33.7755 36.5058 33.8939 36.8058 33.6664C37.0004 33.5189 36.9633 33.3479 36.7182 33.2626C36.4119 33.1559 35.7732 32.733 35.3479 32.3551L34.9874 32.0349L35.2363 31.8012C35.5951 31.4644 36.2789 31.0195 36.4378 31.0195C36.6085 31.0195 36.5873 30.6635 36.41 30.5527C36.159 30.3958 35.2058 31.1366 34.3746 32.1345L34.0958 32.4691L34.1418 32.2089C34.5147 30.0959 34.6707 28.567 34.5182 28.5207C34.4773 28.5085 34.3404 28.5432 34.2139 28.598ZM22.3464 28.6594C22.1603 28.7333 22.1504 28.7668 22.111 29.4507C22.0883 29.8433 21.9817 30.5995 21.874 31.131L21.6782 32.0974L21.3284 32.4161C20.6663 33.0191 19.8522 33.2693 19.5689 32.9565C19.4114 32.7826 19.4523 32.352 19.7055 31.5187L19.8682 30.9823L20.4012 30.9452C20.9646 30.906 21.1221 30.8253 21.0758 30.5999C21.047 30.4603 20.6711 30.4332 20.2152 30.538C20.0497 30.5761 20.048 30.5689 20.0958 30.0548L20.1444 29.5328H19.9524C19.4992 29.5328 19.3885 29.6406 19.3642 30.1056L19.3419 30.5363L19.0071 30.5735C18.7036 30.6071 18.6701 30.6307 18.6478 30.8259C18.624 31.034 18.6318 31.0396 18.8882 30.998C19.2254 30.9433 19.2455 30.9835 19.1378 31.4969C19.0387 31.9686 18.8337 32.1825 17.9996 32.6844C16.7939 33.4103 16.3179 33.0015 16.7667 31.6254C17.0541 30.7443 17.0576 30.7965 16.71 30.7965C16.3717 30.7965 16.2798 30.8872 16.1366 31.3629C15.8124 32.4391 14.9495 33.1537 14.4311 32.775C14.1616 32.5781 14.3372 31.8446 14.8213 31.144C15.0477 30.8164 14.9919 30.7344 14.5751 30.7831C14.1752 30.8298 13.8897 31.3962 13.758 32.4051C13.6039 33.585 14.5211 33.8558 15.5982 32.9483C16.0196 32.5932 16.0034 32.5945 16.0629 32.9119C16.2013 33.6482 17.1603 33.654 18.4032 32.926L18.8583 32.6595V32.9463C18.8583 33.8327 20.0577 33.8 21.4435 32.8759L21.6853 32.7146V33.0535C21.6853 33.3871 21.6901 33.3938 21.9886 33.4741C22.2862 33.5542 22.5036 33.4886 22.5036 33.3187C22.5036 33.0496 23.6625 31.5395 23.8687 31.5401C23.9258 31.5402 23.9558 31.7435 23.9587 32.1533C23.9686 33.5321 24.9751 33.9773 26.0888 33.0953C26.4124 32.8389 26.4465 32.8318 26.4465 33.0208C26.4465 33.8078 27.5713 33.7644 28.5524 32.9394C28.7491 32.774 28.9208 32.6508 28.9338 32.6655C28.9468 32.68 29.027 32.8296 29.1118 32.9978C29.4206 33.6097 30.0183 33.6893 30.9004 33.236C31.4586 32.9493 31.5958 32.788 31.4264 32.6185C31.3245 32.5166 31.2864 32.5244 31.0576 32.693C30.185 33.3364 29.571 32.9898 29.571 31.8539C29.571 30.5148 27.9848 30.2845 26.9447 31.4726C26.7526 31.6923 26.5953 31.9095 26.5953 31.9556C26.5953 32.087 26.0061 32.7224 25.7721 32.8432C24.9571 33.2643 24.4778 32.6759 24.6415 31.4553C24.8167 30.1494 24.1179 30.4204 22.6024 32.2461C22.1314 32.8132 22.1277 32.8686 22.7694 29.7186C22.9898 28.6371 22.9094 28.436 22.3464 28.6594ZM43.1479 28.8604C42.7588 29.0177 42.5868 29.6071 42.9121 29.6688C43.3672 29.7551 43.8595 29.2862 43.6489 28.9667C43.5684 28.8446 43.3181 28.7917 43.1479 28.8604ZM45.0734 29.0558C44.603 29.2877 44.5889 29.8301 45.0533 29.8301C45.5142 29.8301 45.8676 29.2767 45.5491 29.0539C45.3494 28.914 45.3611 28.914 45.0734 29.0558ZM11.9397 29.6315C11.2019 29.8787 10.502 30.485 9.98069 31.3293C9.82074 31.5882 9.71063 31.7164 9.73611 31.6142C9.90053 30.9532 9.89085 30.8708 9.64907 30.8708C9.21908 30.8708 9.18709 30.9138 9.18709 31.4891V32.0173L8.76881 32.4062C7.70721 33.3934 7.2203 33.2687 7.20802 32.0067C7.2004 31.228 7.19705 31.2135 6.98484 31.0429C5.91971 30.1866 4.1655 31.2732 4.1655 32.7893C4.1655 33.8688 5.21743 33.94 6.26434 32.9314L6.57772 32.6294L6.72465 32.9719C7.05979 33.7534 7.77602 33.7305 8.79652 32.9056L9.0383 32.7101V33.1533C9.0383 33.6817 9.05188 33.7004 9.36322 33.6049C9.59886 33.5326 9.6089 33.5122 9.73258 32.859C9.98403 31.5295 11.1429 30.283 12.1323 30.2778C12.4195 30.2762 12.442 30.2598 12.5322 29.9868C12.6821 29.5326 12.5218 29.4365 11.9397 29.6315ZM38.3599 30.73C36.9978 31.1392 36.4803 33.0069 37.6005 33.4705C38.2321 33.732 39.8396 33.3817 39.8984 32.9697C39.9285 32.7584 39.7276 32.6722 39.5556 32.8227C39.0157 33.2955 38.0677 33.281 37.7268 32.7948C37.53 32.514 37.5765 32.462 38.1821 32.286C39.2474 31.9762 39.7262 31.5467 39.543 31.0647C39.4206 30.7434 38.8511 30.5822 38.3599 30.73ZM42.8371 30.7564C42.5639 30.8751 42.5646 30.8716 42.4399 32.5806C42.2263 35.5029 41.7242 36.3109 40.8101 35.2028L40.5988 34.9465L40.4785 35.1182C40.1398 35.601 40.5062 36 41.2881 36C42.236 36 42.709 35.3947 42.9145 33.9186C43.1736 32.0578 43.3261 31.1215 43.4025 30.9218C43.4466 30.8067 43.4827 30.698 43.4827 30.6802C43.4827 30.6096 43.0599 30.6595 42.8371 30.7564ZM51.2368 30.8863C49.9475 31.3938 49.3981 32.922 50.3039 33.4813C50.9102 33.8558 51.9772 33.6302 52.6534 32.9846C53.9441 31.7527 52.9134 30.226 51.2368 30.8863ZM44.3335 31.1306C43.4682 33.2003 44.4446 34.2918 46.0604 33.0604L46.2989 32.8786L46.4728 33.1942C46.7417 33.682 47.0476 33.7279 47.7239 33.3812C48.0099 33.2345 48.2439 33.1199 48.2437 33.1264C48.2435 33.1329 48.1459 33.5239 48.0267 33.9954C47.9072 34.4668 47.786 35.094 47.7568 35.3891L47.704 35.9257H48.0068C48.4035 35.9257 48.4152 35.8976 48.4784 34.8106C48.5472 33.625 48.7745 32.822 49.2339 32.1418C49.8393 31.2455 49.8727 31.0775 49.4729 30.9457C49.1268 30.8316 49.1182 30.8406 48.8095 31.6365C48.4473 32.5707 48.0499 32.9522 47.4395 32.9522C46.9226 32.9522 46.8109 32.5046 47.1226 31.6846C47.3229 31.1582 47.3171 31.0617 47.0787 30.9532C46.8066 30.8292 46.7385 30.9175 46.5025 31.7014C46.2464 32.5521 45.7833 32.9522 45.055 32.9522C44.482 32.9522 44.4477 32.3406 44.9642 31.3293C45.1171 31.0297 45.1173 31.0236 44.9756 30.9478C44.6771 30.7881 44.4496 30.853 44.3335 31.1306ZM38.8557 31.3641C38.8844 31.6584 38.6406 31.866 38.0718 32.0312C37.595 32.1699 37.5883 32.1661 37.6839 31.8205C37.862 31.1758 38.8018 30.8095 38.8557 31.3641ZM52.4482 31.4154C52.7451 31.8389 52.4652 32.6778 51.9206 32.9967C51.0961 33.4795 50.2799 32.9898 50.5494 32.1738C50.8382 31.2996 52.0328 30.8225 52.4482 31.4154ZM6.44344 31.3886C6.70605 31.6512 6.67295 31.754 6.09937 32.4577C5.33479 33.3955 4.48837 33.2862 4.78762 32.2882C5.06939 31.3484 5.93347 30.879 6.44344 31.3886ZM28.7683 31.3834C29.0623 31.646 29.0196 31.7658 28.3874 32.4505C27.6563 33.2422 27.0416 33.3161 27.0416 32.6123C27.0416 31.6071 28.1417 30.8242 28.7683 31.3834ZM54.6101 33.4665C54.3031 33.8056 54.7697 34.2933 55.2434 34.1282C55.3626 34.0866 55.4601 34.0253 55.4601 33.9918C55.4601 33.9582 55.4798 33.8794 55.504 33.8166C55.6344 33.4769 54.8713 33.178 54.6101 33.4665Z" fill="#ED1B24"/>
</g>
<defs>
<clipPath id="clip0_2313_4959">
<rect width="56" height="36" fill="white"/>
</clipPath>
</defs>
</svg>
