<svg width="36" height="36" viewBox="0 0 36 36" fill="none" xmlns="http://www.w3.org/2000/svg">
<path d="M18.8397 31.23C18.5945 31.405 18.3009 31.499 17.9997 31.499C17.6985 31.499 17.4048 31.405 17.1597 31.23C9.91617 26.067 2.22867 15.447 10.0002 7.773C12.133 5.67318 15.0067 4.4974 17.9997 4.5C20.9997 4.5 23.8782 5.6775 25.9992 7.7715C33.7707 15.4455 26.0832 26.064 18.8397 31.23Z" stroke="#FAFAFA" stroke-width="2" stroke-linecap="round" stroke-linejoin="round"/>
<path d="M18 18C18.7956 18 19.5587 17.6839 20.1213 17.1213C20.6839 16.5587 21 15.7956 21 15C21 14.2044 20.6839 13.4413 20.1213 12.8787C19.5587 12.3161 18.7956 12 18 12C17.2044 12 16.4413 12.3161 15.8787 12.8787C15.3161 13.4413 15 14.2044 15 15C15 15.7956 15.3161 16.5587 15.8787 17.1213C16.4413 17.6839 17.2044 18 18 18Z" stroke="#FAFAFA" stroke-width="2" stroke-linecap="round" stroke-linejoin="round"/>
</svg>
