<svg width="55" height="36" viewBox="0 0 55 36" fill="none" xmlns="http://www.w3.org/2000/svg">
<path d="M41.1069 0.339764H11.6585V27.1766H41.1069V0.339764ZM11.3507 -3.8147e-06H41.7224V27.5156H11.043V-3.8147e-06" fill="#00AE4D"/>
<path fill-rule="evenodd" clip-rule="evenodd" d="M26.6137 22.3071H26.3366L24.6918 20.8017C24.1772 20.3346 23.918 19.9534 23.918 19.6579C23.918 19.3442 24.1389 19.0959 24.5794 18.913C25.0149 18.7315 25.6202 18.64 26.3889 18.64C27.1794 18.64 27.8102 18.7301 28.2814 18.9094C28.7475 19.0867 28.9812 19.3287 28.9812 19.6354C28.9812 19.8296 28.8816 20.0427 28.6824 20.2784C28.4832 20.514 27.7974 21.19 26.6137 22.3071Z" fill="#00AE4D"/>
<path fill-rule="evenodd" clip-rule="evenodd" d="M26.6137 23.0507H26.3366L24.6918 24.5561C24.1772 25.0232 23.918 25.4044 23.918 25.6999C23.918 26.0129 24.1389 26.2619 24.5794 26.4448C25.0149 26.6263 25.6202 26.7178 26.3889 26.7178C27.1794 26.7178 27.8102 26.6277 28.2814 26.4484C28.7475 26.2711 28.9812 26.0284 28.9812 25.7224C28.9812 25.5282 28.8816 25.3151 28.6824 25.0794C28.4832 24.8438 27.7974 24.1678 26.6137 23.0507Z" fill="#00AE4D"/>
<path fill-rule="evenodd" clip-rule="evenodd" d="M26.8384 22.7919L26.6992 22.9235C27.7144 23.5784 29.1012 24.8706 30.3475 25.2885C30.8009 25.4411 31.2708 25.4566 31.7573 25.3356C32.2388 25.2167 32.6333 25.0416 33.019 24.6765C33.4174 24.3008 33.6051 23.9576 33.5834 23.6473C33.5617 23.3392 33.328 23.1106 32.8849 22.9622C32.604 22.8679 32.2464 22.8116 31.8071 22.7919C31.3666 22.7722 29.0476 22.7708 26.8384 22.7919Z" fill="#00AE4D"/>
<path fill-rule="evenodd" clip-rule="evenodd" d="M26.8384 22.5443L26.6992 22.4127C27.7144 21.7578 29.1012 20.4656 30.3475 20.0477C30.8009 19.8951 31.2708 19.8796 31.7573 20.0006C32.2388 20.1195 32.6333 20.2946 33.019 20.6597C33.4174 21.0354 33.6051 21.3786 33.5834 21.6889C33.5617 21.997 33.328 22.2256 32.8849 22.374C32.604 22.4683 32.2464 22.5246 31.8071 22.5443C31.3666 22.564 29.0476 22.5654 26.8384 22.5443Z" fill="#00AE4D"/>
<path fill-rule="evenodd" clip-rule="evenodd" d="M26.0201 22.7919L26.1593 22.9235C25.1441 23.5784 23.7573 24.8706 22.511 25.2885C22.0589 25.4411 21.589 25.4566 21.1025 25.3356C20.6211 25.2167 20.2265 25.0416 19.8395 24.6765C19.4411 24.3008 19.2534 23.9576 19.2751 23.6473C19.2968 23.3392 19.5305 23.1106 19.9736 22.9622C20.2546 22.8679 20.6121 22.8116 21.0527 22.7919C21.4932 22.7722 23.811 22.7708 26.0201 22.7919Z" fill="#00AE4D"/>
<path fill-rule="evenodd" clip-rule="evenodd" d="M26.0201 22.5443L26.1593 22.4127C25.1441 21.7578 23.7573 20.4656 22.511 20.0477C22.0589 19.8951 21.589 19.8796 21.1025 20.0006C20.6211 20.1195 20.2265 20.2946 19.8395 20.6597C19.4411 21.0354 19.2534 21.3786 19.2751 21.6889C19.2968 21.997 19.5305 22.2256 19.9736 22.374C20.2546 22.4683 20.6121 22.5246 21.0527 22.5443C21.4932 22.564 23.811 22.5654 26.0201 22.5443Z" fill="#00AE4D"/>
<path fill-rule="evenodd" clip-rule="evenodd" d="M35.8056 17.7705H35.6332L34.6103 16.8342C34.2911 16.5444 34.1289 16.3073 34.1289 16.1237C34.1289 15.9289 34.2668 15.7741 34.5401 15.6601C34.8121 15.5476 35.1875 15.4906 35.6664 15.4906C36.158 15.4906 36.5501 15.5469 36.8425 15.658C37.1324 15.7685 37.2779 15.9197 37.2779 16.1097C37.2779 16.2306 37.2154 16.3636 37.0928 16.5099C36.9689 16.6555 36.5411 17.0755 35.8056 17.7705Z" fill="#00AE4D"/>
<path fill-rule="evenodd" clip-rule="evenodd" d="M35.8056 18.2328H35.6332L34.6103 19.1691C34.2911 19.4589 34.1289 19.696 34.1289 19.8796C34.1289 20.0744 34.2668 20.2292 34.5401 20.3432C34.8121 20.4557 35.1875 20.5127 35.6664 20.5127C36.158 20.5127 36.5501 20.4571 36.8425 20.3453C37.1324 20.2348 37.2779 20.0836 37.2779 19.8937C37.2779 19.7727 37.2154 19.6404 37.0928 19.4934C36.9689 19.3478 36.5411 18.9278 35.8056 18.2328Z" fill="#00AE4D"/>
<path fill-rule="evenodd" clip-rule="evenodd" d="M35.9423 18.0709L35.8555 18.1525C36.4863 18.5598 37.3495 19.3631 38.1234 19.6227C38.4043 19.717 38.6967 19.7268 38.9994 19.6523C39.2982 19.5777 39.5447 19.4694 39.7847 19.2421C40.0325 19.0086 40.1487 18.7955 40.1346 18.6027C40.1219 18.4114 39.9763 18.2693 39.7017 18.1764C39.5268 18.118 39.3046 18.0836 39.03 18.0709C38.7568 18.0589 37.3163 18.0582 35.9423 18.0709Z" fill="#00AE4D"/>
<path fill-rule="evenodd" clip-rule="evenodd" d="M35.9423 17.9175L35.8555 17.8359C36.4863 17.4286 37.3495 16.6253 38.1234 16.3657C38.4043 16.2714 38.6967 16.2616 38.9994 16.3362C39.2982 16.4107 39.5447 16.5191 39.7847 16.7463C40.0325 16.9791 40.1487 17.193 40.1346 17.3857C40.1219 17.5771 39.9763 17.7191 39.7017 17.812C39.5268 17.8704 39.3046 17.9049 39.03 17.9175C38.7568 17.9295 37.3163 17.9302 35.9423 17.9175Z" fill="#00AE4D"/>
<path fill-rule="evenodd" clip-rule="evenodd" d="M35.4369 18.0709L35.5225 18.1525C34.8917 18.5598 34.0284 19.3631 33.2546 19.6227C32.9749 19.717 32.6812 19.7268 32.3786 19.6523C32.0797 19.5777 31.8333 19.4694 31.5932 19.2421C31.3455 19.0086 31.2293 18.7955 31.2433 18.6027C31.2561 18.4114 31.4017 18.2693 31.6762 18.1764C31.8512 18.118 32.0734 18.0836 32.3479 18.0709C32.6225 18.0589 34.0616 18.0582 35.4369 18.0709Z" fill="#00AE4D"/>
<path fill-rule="evenodd" clip-rule="evenodd" d="M35.4369 17.9175L35.5225 17.8359C34.8917 17.4286 34.0284 16.6253 33.2546 16.3657C32.9749 16.2714 32.6812 16.2616 32.3786 16.3362C32.0797 16.4107 31.8333 16.5191 31.5932 16.7463C31.3455 16.9791 31.2293 17.193 31.2433 17.3857C31.2561 17.5771 31.4017 17.7191 31.6762 17.812C31.8512 17.8704 32.0734 17.9049 32.3479 17.9175C32.6225 17.9295 34.0616 17.9302 35.4369 17.9175Z" fill="#00AE4D"/>
<path fill-rule="evenodd" clip-rule="evenodd" d="M17.3017 17.7705H17.1293L16.1064 16.8342C15.7859 16.5444 15.625 16.3073 15.625 16.1237C15.625 15.9289 15.7629 15.7741 16.0362 15.6601C16.3082 15.5476 16.6836 15.4906 17.1625 15.4906C17.6541 15.4906 18.0462 15.5469 18.3386 15.658C18.6285 15.7685 18.774 15.9197 18.774 16.1097C18.774 16.2306 18.7115 16.3636 18.5889 16.5099C18.465 16.6555 18.0372 17.0755 17.3017 17.7705Z" fill="#00AE4D"/>
<path fill-rule="evenodd" clip-rule="evenodd" d="M17.3017 18.2328H17.1293L16.1064 19.1691C15.7859 19.4589 15.625 19.696 15.625 19.8796C15.625 20.0744 15.7629 20.2292 16.0362 20.3432C16.3082 20.4557 16.6836 20.5127 17.1625 20.5127C17.6541 20.5127 18.0462 20.4571 18.3386 20.3453C18.6285 20.2348 18.774 20.0836 18.774 19.8937C18.774 19.7727 18.7115 19.6404 18.5889 19.4934C18.465 19.3478 18.0372 18.9278 17.3017 18.2328Z" fill="#00AE4D"/>
<path fill-rule="evenodd" clip-rule="evenodd" d="M17.4423 18.0709L17.3555 18.1525C17.9863 18.5598 18.8495 19.3631 19.6234 19.6227C19.9043 19.717 20.1967 19.7268 20.4994 19.6523C20.7982 19.5777 21.0447 19.4694 21.2847 19.2421C21.5325 19.0086 21.6487 18.7955 21.6346 18.6027C21.6219 18.4114 21.4763 18.2693 21.2017 18.1764C21.0268 18.118 20.8046 18.0836 20.53 18.0709C20.2568 18.0589 18.8163 18.0582 17.4423 18.0709Z" fill="#00AE4D"/>
<path fill-rule="evenodd" clip-rule="evenodd" d="M17.4423 17.9175L17.3555 17.8359C17.9863 17.4286 18.8495 16.6253 19.6234 16.3657C19.9043 16.2714 20.1967 16.2616 20.4994 16.3362C20.7982 16.4107 21.0447 16.5191 21.2847 16.7463C21.5325 16.9791 21.6487 17.193 21.6346 17.3857C21.6219 17.5771 21.4763 17.7191 21.2017 17.812C21.0268 17.8704 20.8046 17.9049 20.53 17.9175C20.2568 17.9295 18.8163 17.9302 17.4423 17.9175Z" fill="#00AE4D"/>
<path fill-rule="evenodd" clip-rule="evenodd" d="M16.9317 18.0709L17.0186 18.1525C16.3877 18.5598 15.5245 19.3631 14.7507 19.6227C14.4697 19.717 14.1773 19.7268 13.8747 19.6523C13.5758 19.5777 13.3294 19.4694 13.0893 19.2421C12.8416 19.0086 12.7254 18.7955 12.7394 18.6027C12.7522 18.4114 12.8978 18.2693 13.1723 18.1764C13.3473 18.118 13.5695 18.0836 13.844 18.0709C14.1173 18.0589 15.5577 18.0582 16.9317 18.0709Z" fill="#00AE4D"/>
<path fill-rule="evenodd" clip-rule="evenodd" d="M16.9317 17.9175L17.0186 17.8359C16.3877 17.4286 15.5245 16.6253 14.7507 16.3657C14.4697 16.2714 14.1773 16.2616 13.8747 16.3362C13.5758 16.4107 13.3294 16.5191 13.0893 16.7463C12.8416 16.9791 12.7254 17.193 12.7394 17.3857C12.7522 17.5771 12.8978 17.7191 13.1723 17.812C13.3473 17.8704 13.5695 17.9049 13.844 17.9175C14.1173 17.9295 15.5577 17.9302 16.9317 17.9175Z" fill="#00AE4D"/>
<path fill-rule="evenodd" clip-rule="evenodd" d="M26.4109 14.5532C26.1542 14.5617 25.7864 14.6714 25.6894 14.7361C24.9934 15.2011 23.6692 15.5943 22.7549 15.2708C22.5697 15.2053 22.336 15.1005 22.2352 14.9894C22.0028 14.7361 22.0347 14.5378 22.3284 14.319C22.4918 14.198 22.5774 14.1368 22.5761 14.1333C22.571 14.1101 22.4127 13.9982 22.1585 13.7977L22.0436 13.6507C21.8265 13.0387 23.4125 12.5399 24.3128 12.7946C24.5593 12.8642 24.8696 12.9381 25.093 13.0436C25.5885 13.2743 25.955 13.56 26.5386 13.5832C27.0711 13.6029 27.7555 12.9641 28.5805 12.7686C29.5523 12.5399 31.0233 12.9747 30.8292 13.6247L30.713 13.7724C30.4602 13.9729 30.3018 14.0847 30.2967 14.1079C30.2967 14.1115 30.3797 14.1727 30.5445 14.2937C30.8369 14.5117 30.8688 14.7108 30.6377 14.964C30.5355 15.0752 30.3018 15.18 30.1192 15.2454C29.2024 15.5697 27.813 15.2398 27.1362 14.7488C26.9523 14.6158 26.688 14.5441 26.4109 14.5532Z" fill="#00AE4D"/>
<path fill-rule="evenodd" clip-rule="evenodd" d="M26.4109 11.6125C26.1542 11.6209 25.7864 11.7307 25.6894 11.7954C24.9934 12.2604 23.6692 12.6543 22.7549 12.33C22.5697 12.2646 22.336 12.1598 22.2352 12.0486C22.0028 11.7954 22.0347 11.597 22.3284 11.3782C22.4918 11.2573 22.5774 11.1961 22.5761 11.1925C22.571 11.1693 22.4127 11.0575 22.1585 10.857L22.0436 10.7093C21.8265 10.098 23.4125 9.59921 24.3128 9.85386C24.5593 9.92351 24.8696 9.99737 25.093 10.1029C25.5885 10.3336 25.955 10.6199 26.5386 10.6424C27.0711 10.6621 27.7555 10.0234 28.5805 9.82784C29.5523 9.59921 31.0233 10.0339 30.8292 10.6839L30.713 10.8317C30.4602 11.0321 30.3018 11.144 30.2967 11.1672C30.2967 11.1707 30.3797 11.2319 30.5445 11.3529C30.8369 11.571 30.8688 11.7701 30.6377 12.0233C30.5355 12.1345 30.3018 12.2393 30.1192 12.3047C29.2024 12.629 27.813 12.2991 27.1362 11.8081C26.9523 11.6751 26.688 11.6034 26.4109 11.6125Z" fill="#00AE4D"/>
<path fill-rule="evenodd" clip-rule="evenodd" d="M26.4109 8.59815C26.1542 8.60659 25.7864 8.71633 25.6894 8.78105C24.9934 9.24603 23.6692 9.63926 22.7549 9.31567C22.5697 9.25025 22.336 9.14544 22.2352 9.03429C22.0028 8.78105 22.0347 8.58267 22.3284 8.3639C22.4918 8.24291 22.5774 8.18171 22.5761 8.17819C22.571 8.15497 22.4127 8.04312 22.1585 7.84264L22.0436 7.69491C21.8265 7.08361 23.4125 6.58486 24.3128 6.83881C24.5593 6.90916 24.8696 6.98302 25.093 7.08854C25.5885 7.31927 25.955 7.60487 26.5386 7.62738C27.0711 7.64708 27.7555 7.00905 28.5805 6.81349C29.5523 6.58486 31.0233 7.0196 30.8292 7.66959L30.713 7.81732C30.4602 8.0178 30.3018 8.12965 30.2967 8.15286C30.2967 8.15638 30.3797 8.21758 30.5445 8.33858C30.8369 8.55665 30.8688 8.75572 30.6377 9.00897C30.5355 9.12011 30.3018 9.22493 30.1192 9.29035C29.2024 9.61394 27.813 9.28472 27.1362 8.79371C26.9523 8.66076 26.688 8.58901 26.4109 8.59815Z" fill="#00AE4D"/>
<path fill-rule="evenodd" clip-rule="evenodd" d="M26.4109 5.62061C26.1542 5.62905 25.7864 5.73879 25.6894 5.80351C24.9934 6.26849 23.6692 6.66172 22.7549 6.33813C22.5697 6.27271 22.336 6.1679 22.2352 6.05675C22.0028 5.80351 22.0347 5.60514 22.3284 5.38706C22.4918 5.26537 22.5774 5.20417 22.5761 5.20065C22.571 5.17743 22.4127 5.06559 22.1585 4.8651L22.0436 4.71738C21.8265 4.10607 23.4125 3.60732 24.3128 3.86197C24.5593 3.93162 24.8696 4.00548 25.093 4.111C25.5885 4.34173 25.955 4.62804 26.5386 4.64984C27.0711 4.66954 27.7555 4.03151 28.5805 3.83595C29.5523 3.60732 31.0233 4.04206 30.8292 4.69205L30.713 4.83978C30.4602 5.04026 30.3018 5.15211 30.2967 5.17532C30.2967 5.17884 30.3797 5.24004 30.5445 5.36104C30.8369 5.57911 30.8688 5.77819 30.6377 6.03143C30.5355 6.14257 30.3018 6.24739 30.1192 6.31281C29.2024 6.6364 27.813 6.30718 27.1362 5.81617C26.9523 5.68322 26.688 5.61147 26.4109 5.62061Z" fill="#00AE4D"/>
<path fill-rule="evenodd" clip-rule="evenodd" d="M26.4157 2.911C26.2293 2.91663 25.9611 2.99683 25.8909 3.04466C25.3827 3.38302 24.4173 3.67003 23.7494 3.43437C23.6153 3.38654 23.4468 3.30986 23.3727 3.22897C23.2029 3.04466 23.2271 2.89975 23.4404 2.74077C23.5591 2.65213 23.6204 2.60711 23.6204 2.605C23.6153 2.58812 23.5004 2.50652 23.3178 2.3602L23.2335 2.25257C23.0752 1.80728 24.2295 1.4436 24.8859 1.62931C25.066 1.67996 25.292 1.73412 25.4567 1.8108C25.8168 1.97822 26.0837 2.18715 26.5089 2.20333C26.8972 2.2181 27.3965 1.75312 27.9992 1.61032C28.7054 1.4436 29.778 1.76086 29.6363 2.23428L29.552 2.34191C29.3668 2.48823 29.2519 2.56983 29.2481 2.58601C29.2468 2.58882 29.3094 2.63384 29.4281 2.72177C29.6427 2.88076 29.6656 3.02567 29.4971 3.21068C29.423 3.29087 29.2519 3.36825 29.1178 3.41538C28.45 3.65174 27.4373 3.41186 26.9444 3.05381C26.8116 2.95673 26.6188 2.90467 26.4157 2.911Z" fill="#00AE4D"/>
<path fill-rule="evenodd" clip-rule="evenodd" d="M26.4109 17.5674C26.1542 17.5758 25.7864 17.6856 25.6894 17.7503C24.9934 18.2153 23.6692 18.6085 22.7549 18.2849C22.5697 18.2195 22.336 18.1147 22.2352 18.0035C22.0028 17.7503 22.0347 17.5512 22.3284 17.3331C22.4918 17.2121 22.5774 17.1509 22.5761 17.1474C22.571 17.1242 22.4127 17.0124 22.1585 16.8119L22.0436 16.6642C21.8265 16.0529 23.4125 15.5541 24.3128 15.808C24.5593 15.8784 24.8696 15.9523 25.093 16.0578C25.5885 16.2885 25.955 16.5748 26.5386 16.5966C27.0711 16.6163 27.7555 15.9783 28.5805 15.7827C29.5523 15.5541 31.0233 15.9888 30.8292 16.6388L30.713 16.7866C30.4602 16.987 30.3018 17.0989 30.2967 17.1221C30.2967 17.1256 30.3797 17.1868 30.5445 17.3078C30.8369 17.5259 30.8688 17.725 30.6377 17.9782C30.5355 18.0894 30.3018 18.1942 30.1192 18.2596C29.2024 18.5839 27.813 18.254 27.1362 17.7629C26.9523 17.63 26.688 17.5582 26.4109 17.5674Z" fill="#00AE4D"/>
<path d="M26.4414 0.980579L26.5372 18.6274" stroke="#00AE4D" stroke-width="3.68934" stroke-miterlimit="2.613"/>
<path fill-rule="evenodd" clip-rule="evenodd" d="M42.2656 35.8853V29.1222H46.4682L50.2557 32.1499V29.1222H54.1556V35.8853L50.3068 35.8571L46.8193 33.1805L46.7172 35.8853" fill="#00AE4D"/>
<path d="M36.1758 35.8853H40.3322V29.1225H36.1758V35.8853Z" fill="#00AE4D"/>
<path fill-rule="evenodd" clip-rule="evenodd" d="M10.082 29.123H14.5208V32.4862C14.5208 32.8879 14.1058 34.0676 15.8246 34.0957C17.1118 34.1169 16.9905 32.9864 16.9905 32.4862V29.123H21.3846V32.9463C21.3846 34.0015 20.9261 34.7725 20.0131 35.2642C19.0962 35.7545 17.6507 36 15.6752 36C13.7125 36 12.2899 35.7573 11.4075 35.274C10.5239 34.7887 10.082 34.0141 10.082 32.9463" fill="#00AE4D"/>
<path fill-rule="evenodd" clip-rule="evenodd" d="M9.47518 34.1462V35.8936H0V29.1228H4.36471V34.1462" fill="#00AE4D"/>
<path fill-rule="evenodd" clip-rule="evenodd" d="M27.8915 30.9451V31.9363H29.1761C30.1172 31.9363 30.3714 31.6232 30.3714 31.4551C30.3714 31.0527 29.8133 30.9451 29.4392 30.9451H27.8915ZM23.6289 35.8848V29.1232H29.7316C31.2205 29.1232 32.3009 29.2864 32.9751 29.6114C34.948 30.5652 35.2481 32.0249 33.3518 33.0913C32.6469 33.4888 31.7658 33.6879 30.9256 33.6879H27.8749V35.8848" fill="#00AE4D"/>
</svg>
