<svg width="55" height="36" viewBox="0 0 55 36" fill="none" xmlns="http://www.w3.org/2000/svg">
<path d="M41.1069 0.339764H11.6585V27.1766H41.1069V0.339764ZM11.3507 -3.04301e-06H41.7224V27.5156H11.043V-3.04301e-06" fill="#00AE4D"/>
<path fill-rule="evenodd" clip-rule="evenodd" d="M26.6137 22.3073H26.3366L24.6918 20.8019C24.1772 20.3348 23.918 19.9535 23.918 19.658C23.918 19.3443 24.1389 19.096 24.5794 18.9131C25.0149 18.7316 25.6202 18.6401 26.3889 18.6401C27.1794 18.6401 27.8102 18.7302 28.2814 18.9096C28.7475 19.0868 28.9812 19.3288 28.9812 19.6355C28.9812 19.8297 28.8816 20.0428 28.6824 20.2785C28.4832 20.5141 27.7974 21.1902 26.6137 22.3073Z" fill="#00AE4D"/>
<path fill-rule="evenodd" clip-rule="evenodd" d="M26.6137 23.0508H26.3366L24.6918 24.5562C24.1772 25.0233 23.918 25.4045 23.918 25.7C23.918 26.013 24.1389 26.2621 24.5794 26.445C25.0149 26.6264 25.6202 26.7179 26.3889 26.7179C27.1794 26.7179 27.8102 26.6279 28.2814 26.4485C28.7475 26.2712 28.9812 26.0285 28.9812 25.7225C28.9812 25.5284 28.8816 25.3152 28.6824 25.0795C28.4832 24.8439 27.7974 24.1679 26.6137 23.0508Z" fill="#00AE4D"/>
<path fill-rule="evenodd" clip-rule="evenodd" d="M26.8384 22.7919L26.6992 22.9235C27.7144 23.5784 29.1012 24.8706 30.3475 25.2885C30.8009 25.4411 31.2708 25.4566 31.7573 25.3356C32.2388 25.2167 32.6333 25.0416 33.019 24.6765C33.4174 24.3008 33.6051 23.9576 33.5834 23.6473C33.5617 23.3392 33.328 23.1106 32.8849 22.9622C32.604 22.8679 32.2464 22.8116 31.8071 22.7919C31.3666 22.7722 29.0476 22.7708 26.8384 22.7919Z" fill="#00AE4D"/>
<path fill-rule="evenodd" clip-rule="evenodd" d="M26.8384 22.5443L26.6992 22.4128C27.7144 21.7578 29.1012 20.4656 30.3475 20.0477C30.8009 19.8951 31.2708 19.8796 31.7573 20.0006C32.2388 20.1195 32.6333 20.2946 33.019 20.6597C33.4174 21.0354 33.6051 21.3787 33.5834 21.6889C33.5617 21.997 33.328 22.2256 32.8849 22.3741C32.604 22.4683 32.2464 22.5246 31.8071 22.5443C31.3666 22.564 29.0476 22.5654 26.8384 22.5443Z" fill="#00AE4D"/>
<path fill-rule="evenodd" clip-rule="evenodd" d="M26.0201 22.7919L26.1593 22.9235C25.1441 23.5784 23.7573 24.8706 22.511 25.2885C22.0589 25.4411 21.589 25.4566 21.1025 25.3356C20.6211 25.2167 20.2265 25.0416 19.8395 24.6765C19.4411 24.3008 19.2534 23.9576 19.2751 23.6473C19.2968 23.3392 19.5305 23.1106 19.9736 22.9622C20.2546 22.8679 20.6121 22.8116 21.0527 22.7919C21.4932 22.7722 23.811 22.7708 26.0201 22.7919Z" fill="#00AE4D"/>
<path fill-rule="evenodd" clip-rule="evenodd" d="M26.0201 22.5443L26.1593 22.4128C25.1441 21.7578 23.7573 20.4656 22.511 20.0477C22.0589 19.8951 21.589 19.8796 21.1025 20.0006C20.6211 20.1195 20.2265 20.2946 19.8395 20.6597C19.4411 21.0354 19.2534 21.3787 19.2751 21.6889C19.2968 21.997 19.5305 22.2256 19.9736 22.3741C20.2546 22.4683 20.6121 22.5246 21.0527 22.5443C21.4932 22.564 23.811 22.5654 26.0201 22.5443Z" fill="#00AE4D"/>
<path fill-rule="evenodd" clip-rule="evenodd" d="M35.8056 17.7707H35.6332L34.6103 16.8344C34.2911 16.5445 34.1289 16.3075 34.1289 16.1239C34.1289 15.929 34.2668 15.7743 34.5401 15.6603C34.8121 15.5477 35.1875 15.4908 35.6664 15.4908C36.158 15.4908 36.5501 15.547 36.8425 15.6582C37.1324 15.7686 37.2779 15.9199 37.2779 16.1098C37.2779 16.2308 37.2154 16.3638 37.0928 16.5101C36.9689 16.6557 36.5411 17.0756 35.8056 17.7707Z" fill="#00AE4D"/>
<path fill-rule="evenodd" clip-rule="evenodd" d="M35.8056 18.2328H35.6332L34.6103 19.1691C34.2911 19.4589 34.1289 19.696 34.1289 19.8796C34.1289 20.0744 34.2668 20.2292 34.5401 20.3432C34.8121 20.4557 35.1875 20.5127 35.6664 20.5127C36.158 20.5127 36.5501 20.4571 36.8425 20.3453C37.1324 20.2348 37.2779 20.0836 37.2779 19.8937C37.2779 19.7727 37.2154 19.6404 37.0928 19.4934C36.9689 19.3478 36.5411 18.9278 35.8056 18.2328Z" fill="#00AE4D"/>
<path fill-rule="evenodd" clip-rule="evenodd" d="M35.9423 18.071L35.8555 18.1526C36.4863 18.5599 37.3495 19.3633 38.1234 19.6229C38.4043 19.7171 38.6967 19.727 38.9994 19.6524C39.2982 19.5778 39.5447 19.4695 39.7847 19.2423C40.0325 19.0088 40.1487 18.7956 40.1346 18.6029C40.1219 18.4115 39.9763 18.2694 39.7017 18.1766C39.5268 18.1182 39.3046 18.0837 39.03 18.071C38.7568 18.0591 37.3163 18.0584 35.9423 18.071Z" fill="#00AE4D"/>
<path fill-rule="evenodd" clip-rule="evenodd" d="M35.9423 17.9177L35.8555 17.8361C36.4863 17.4288 37.3495 16.6254 38.1234 16.3659C38.4043 16.2716 38.6967 16.2617 38.9994 16.3363C39.2982 16.4109 39.5447 16.5192 39.7847 16.7464C40.0325 16.9793 40.1487 17.1931 40.1346 17.3859C40.1219 17.5772 39.9763 17.7193 39.7017 17.8122C39.5268 17.8705 39.3046 17.905 39.03 17.9177C38.7568 17.9296 37.3163 17.9303 35.9423 17.9177Z" fill="#00AE4D"/>
<path fill-rule="evenodd" clip-rule="evenodd" d="M35.4369 18.071L35.5225 18.1526C34.8917 18.5599 34.0284 19.3633 33.2546 19.6229C32.9749 19.7171 32.6812 19.727 32.3786 19.6524C32.0797 19.5778 31.8333 19.4695 31.5932 19.2423C31.3455 19.0088 31.2293 18.7956 31.2433 18.6029C31.2561 18.4115 31.4017 18.2694 31.6762 18.1766C31.8512 18.1182 32.0734 18.0837 32.3479 18.071C32.6225 18.0591 34.0616 18.0584 35.4369 18.071Z" fill="#00AE4D"/>
<path fill-rule="evenodd" clip-rule="evenodd" d="M35.4369 17.9177L35.5225 17.8361C34.8917 17.4288 34.0284 16.6254 33.2546 16.3659C32.9749 16.2716 32.6812 16.2617 32.3786 16.3363C32.0797 16.4109 31.8333 16.5192 31.5932 16.7464C31.3455 16.9793 31.2293 17.1931 31.2433 17.3859C31.2561 17.5772 31.4017 17.7193 31.6762 17.8122C31.8512 17.8705 32.0734 17.905 32.3479 17.9177C32.6225 17.9296 34.0616 17.9303 35.4369 17.9177Z" fill="#00AE4D"/>
<path fill-rule="evenodd" clip-rule="evenodd" d="M17.3017 17.7707H17.1293L16.1064 16.8344C15.7859 16.5445 15.625 16.3075 15.625 16.1239C15.625 15.929 15.7629 15.7743 16.0362 15.6603C16.3082 15.5477 16.6836 15.4908 17.1625 15.4908C17.6541 15.4908 18.0462 15.547 18.3386 15.6582C18.6285 15.7686 18.774 15.9199 18.774 16.1098C18.774 16.2308 18.7115 16.3638 18.5889 16.5101C18.465 16.6557 18.0372 17.0756 17.3017 17.7707Z" fill="#00AE4D"/>
<path fill-rule="evenodd" clip-rule="evenodd" d="M17.3017 18.2328H17.1293L16.1064 19.1691C15.7859 19.4589 15.625 19.696 15.625 19.8796C15.625 20.0744 15.7629 20.2292 16.0362 20.3432C16.3082 20.4557 16.6836 20.5127 17.1625 20.5127C17.6541 20.5127 18.0462 20.4571 18.3386 20.3453C18.6285 20.2348 18.774 20.0836 18.774 19.8937C18.774 19.7727 18.7115 19.6404 18.5889 19.4934C18.465 19.3478 18.0372 18.9278 17.3017 18.2328Z" fill="#00AE4D"/>
<path fill-rule="evenodd" clip-rule="evenodd" d="M17.4423 18.071L17.3555 18.1526C17.9863 18.5599 18.8495 19.3633 19.6234 19.6229C19.9043 19.7171 20.1967 19.727 20.4994 19.6524C20.7982 19.5778 21.0447 19.4695 21.2847 19.2423C21.5325 19.0088 21.6487 18.7956 21.6346 18.6029C21.6219 18.4115 21.4763 18.2694 21.2017 18.1766C21.0268 18.1182 20.8046 18.0837 20.53 18.071C20.2568 18.0591 18.8163 18.0584 17.4423 18.071Z" fill="#00AE4D"/>
<path fill-rule="evenodd" clip-rule="evenodd" d="M17.4423 17.9177L17.3555 17.8361C17.9863 17.4288 18.8495 16.6254 19.6234 16.3659C19.9043 16.2716 20.1967 16.2617 20.4994 16.3363C20.7982 16.4109 21.0447 16.5192 21.2847 16.7464C21.5325 16.9793 21.6487 17.1931 21.6346 17.3859C21.6219 17.5772 21.4763 17.7193 21.2017 17.8122C21.0268 17.8705 20.8046 17.905 20.53 17.9177C20.2568 17.9296 18.8163 17.9303 17.4423 17.9177Z" fill="#00AE4D"/>
<path fill-rule="evenodd" clip-rule="evenodd" d="M16.9317 18.071L17.0186 18.1526C16.3877 18.5599 15.5245 19.3633 14.7507 19.6229C14.4697 19.7171 14.1773 19.727 13.8747 19.6524C13.5758 19.5778 13.3294 19.4695 13.0893 19.2423C12.8416 19.0088 12.7254 18.7956 12.7394 18.6029C12.7522 18.4115 12.8978 18.2694 13.1723 18.1766C13.3473 18.1182 13.5695 18.0837 13.844 18.071C14.1173 18.0591 15.5577 18.0584 16.9317 18.071Z" fill="#00AE4D"/>
<path fill-rule="evenodd" clip-rule="evenodd" d="M16.9317 17.9177L17.0186 17.8361C16.3877 17.4288 15.5245 16.6254 14.7507 16.3659C14.4697 16.2716 14.1773 16.2617 13.8747 16.3363C13.5758 16.4109 13.3294 16.5192 13.0893 16.7464C12.8416 16.9793 12.7254 17.1931 12.7394 17.3859C12.7522 17.5772 12.8978 17.7193 13.1723 17.8122C13.3473 17.8705 13.5695 17.905 13.844 17.9177C14.1173 17.9296 15.5577 17.9303 16.9317 17.9177Z" fill="#00AE4D"/>
<path fill-rule="evenodd" clip-rule="evenodd" d="M26.4109 14.553C26.1542 14.5615 25.7864 14.6712 25.6894 14.7359C24.9934 15.2009 23.6692 15.5942 22.7549 15.2706C22.5697 15.2051 22.336 15.1003 22.2352 14.9892C22.0028 14.7359 22.0347 14.5376 22.3284 14.3188C22.4918 14.1978 22.5774 14.1366 22.5761 14.1331C22.571 14.1099 22.4127 13.998 22.1585 13.7975L22.0436 13.6505C21.8265 13.0385 23.4125 12.5398 24.3128 12.7944C24.5593 12.8641 24.8696 12.9379 25.093 13.0434C25.5885 13.2742 25.955 13.5598 26.5386 13.583C27.0711 13.6027 27.7555 12.9639 28.5805 12.7684C29.5523 12.5398 31.0233 12.9745 30.8292 13.6245L30.713 13.7722C30.4602 13.9727 30.3018 14.0845 30.2967 14.1078C30.2967 14.1113 30.3797 14.1725 30.5445 14.2935C30.8369 14.5115 30.8688 14.7106 30.6377 14.9639C30.5355 15.075 30.3018 15.1798 30.1192 15.2452C29.2024 15.5695 27.813 15.2396 27.1362 14.7486C26.9523 14.6157 26.688 14.5439 26.4109 14.553Z" fill="#00AE4D"/>
<path fill-rule="evenodd" clip-rule="evenodd" d="M26.4109 11.6126C26.1542 11.621 25.7864 11.7308 25.6894 11.7955C24.9934 12.2605 23.6692 12.6544 22.7549 12.3301C22.5697 12.2647 22.336 12.1599 22.2352 12.0487C22.0028 11.7955 22.0347 11.5971 22.3284 11.3783C22.4918 11.2573 22.5774 11.1961 22.5761 11.1926C22.571 11.1694 22.4127 11.0576 22.1585 10.8571L22.0436 10.7094C21.8265 10.0981 23.4125 9.5993 24.3128 9.85395C24.5593 9.9236 24.8696 9.99746 25.093 10.103C25.5885 10.3337 25.955 10.62 26.5386 10.6425C27.0711 10.6622 27.7555 10.0235 28.5805 9.82793C29.5523 9.5993 31.0233 10.034 30.8292 10.684L30.713 10.8318C30.4602 11.0322 30.3018 11.1441 30.2967 11.1673C30.2967 11.1708 30.3797 11.232 30.5445 11.353C30.8369 11.5711 30.8688 11.7702 30.6377 12.0234C30.5355 12.1346 30.3018 12.2394 30.1192 12.3048C29.2024 12.6291 27.813 12.2992 27.1362 11.8082C26.9523 11.6752 26.688 11.6034 26.4109 11.6126Z" fill="#00AE4D"/>
<path fill-rule="evenodd" clip-rule="evenodd" d="M26.4109 8.59833C26.1542 8.60677 25.7864 8.71651 25.6894 8.78123C24.9934 9.24622 23.6692 9.63945 22.7549 9.31586C22.5697 9.25044 22.336 9.14562 22.2352 9.03448C22.0028 8.78123 22.0347 8.58286 22.3284 8.36408C22.4918 8.24309 22.5774 8.18189 22.5761 8.17837C22.571 8.15516 22.4127 8.04331 22.1585 7.84282L22.0436 7.6951C21.8265 7.0838 23.4125 6.58505 24.3128 6.83899C24.5593 6.90934 24.8696 6.9832 25.093 7.08872C25.5885 7.31945 25.955 7.60506 26.5386 7.62757C27.0711 7.64726 27.7555 7.00923 28.5805 6.81367C29.5523 6.58505 31.0233 7.01978 30.8292 7.66977L30.713 7.8175C30.4602 8.01798 30.3018 8.12983 30.2967 8.15305C30.2967 8.15656 30.3797 8.21776 30.5445 8.33876C30.8369 8.55683 30.8688 8.75591 30.6377 9.00915C30.5355 9.1203 30.3018 9.22511 30.1192 9.29053C29.2024 9.61412 27.813 9.28491 27.1362 8.79389C26.9523 8.66094 26.688 8.58919 26.4109 8.59833Z" fill="#00AE4D"/>
<path fill-rule="evenodd" clip-rule="evenodd" d="M26.4109 5.62061C26.1542 5.62905 25.7864 5.73879 25.6894 5.80351C24.9934 6.26849 23.6692 6.66172 22.7549 6.33813C22.5697 6.27271 22.336 6.1679 22.2352 6.05675C22.0028 5.80351 22.0347 5.60514 22.3284 5.38706C22.4918 5.26537 22.5774 5.20417 22.5761 5.20065C22.571 5.17743 22.4127 5.06559 22.1585 4.8651L22.0436 4.71738C21.8265 4.10607 23.4125 3.60732 24.3128 3.86197C24.5593 3.93162 24.8696 4.00548 25.093 4.111C25.5885 4.34173 25.955 4.62804 26.5386 4.64984C27.0711 4.66954 27.7555 4.03151 28.5805 3.83595C29.5523 3.60732 31.0233 4.04206 30.8292 4.69205L30.713 4.83978C30.4602 5.04026 30.3018 5.15211 30.2967 5.17532C30.2967 5.17884 30.3797 5.24004 30.5445 5.36104C30.8369 5.57911 30.8688 5.77819 30.6377 6.03143C30.5355 6.14257 30.3018 6.24739 30.1192 6.31281C29.2024 6.6364 27.813 6.30718 27.1362 5.81617C26.9523 5.68322 26.688 5.61147 26.4109 5.62061Z" fill="#00AE4D"/>
<path fill-rule="evenodd" clip-rule="evenodd" d="M26.4157 2.91088C26.2293 2.91651 25.9611 2.9967 25.8909 3.04454C25.3827 3.3829 24.4173 3.66991 23.7494 3.43425C23.6153 3.38642 23.4468 3.30974 23.3727 3.22884C23.2029 3.04454 23.2271 2.89963 23.4404 2.74065C23.5591 2.65201 23.6204 2.60699 23.6204 2.60488C23.6153 2.588 23.5004 2.5064 23.3178 2.36008L23.2335 2.25245C23.0752 1.80716 24.2295 1.44348 24.8859 1.62919C25.066 1.67984 25.292 1.734 25.4567 1.81068C25.8168 1.9781 26.0837 2.18703 26.5089 2.20321C26.8972 2.21798 27.3965 1.753 27.9992 1.61019C28.7054 1.44348 29.778 1.76073 29.6363 2.23416L29.552 2.34179C29.3668 2.48811 29.2519 2.56971 29.2481 2.58589C29.2468 2.5887 29.3094 2.63372 29.4281 2.72165C29.6427 2.88063 29.6656 3.02554 29.4971 3.21055C29.423 3.29075 29.2519 3.36813 29.1178 3.41526C28.45 3.65162 27.4373 3.41174 26.9444 3.05368C26.8116 2.95661 26.6188 2.90455 26.4157 2.91088Z" fill="#00AE4D"/>
<path fill-rule="evenodd" clip-rule="evenodd" d="M26.4109 17.5674C26.1542 17.5758 25.7864 17.6855 25.6894 17.7503C24.9934 18.2152 23.6692 18.6085 22.7549 18.2849C22.5697 18.2195 22.336 18.1146 22.2352 18.0035C22.0028 17.7503 22.0347 17.5512 22.3284 17.3331C22.4918 17.2121 22.5774 17.1509 22.5761 17.1474C22.571 17.1242 22.4127 17.0123 22.1585 16.8118L22.0436 16.6641C21.8265 16.0528 23.4125 15.5541 24.3128 15.808C24.5593 15.8784 24.8696 15.9522 25.093 16.0577C25.5885 16.2885 25.955 16.5748 26.5386 16.5966C27.0711 16.6163 27.7555 15.9783 28.5805 15.7827C29.5523 15.5541 31.0233 15.9888 30.8292 16.6388L30.713 16.7865C30.4602 16.987 30.3018 17.0989 30.2967 17.1221C30.2967 17.1256 30.3797 17.1868 30.5445 17.3078C30.8369 17.5259 30.8688 17.7249 30.6377 17.9782C30.5355 18.0893 30.3018 18.1941 30.1192 18.2596C29.2024 18.5838 27.813 18.2539 27.1362 17.7629C26.9523 17.63 26.688 17.5582 26.4109 17.5674Z" fill="#00AE4D"/>
<path d="M26.4414 0.980609L26.5372 18.6275" stroke="#00AE4D" stroke-width="3.68934" stroke-miterlimit="2.613"/>
<path fill-rule="evenodd" clip-rule="evenodd" d="M42.2656 35.8853V29.1223H46.4682L50.2557 32.15V29.1223H54.1556V35.8853L50.3068 35.8572L46.8193 33.1805L46.7172 35.8853" fill="#00AE4D"/>
<path d="M36.1758 35.8853H40.3322V29.1226H36.1758V35.8853Z" fill="#00AE4D"/>
<path fill-rule="evenodd" clip-rule="evenodd" d="M10.082 29.123H14.5208V32.4862C14.5208 32.8879 14.1058 34.0676 15.8246 34.0957C17.1118 34.1168 16.9905 32.9864 16.9905 32.4862V29.123H21.3846V32.9463C21.3846 34.0015 20.9261 34.7724 20.0131 35.2642C19.0962 35.7545 17.6507 36 15.6752 36C13.7125 36 12.2899 35.7573 11.4075 35.274C10.5239 34.7886 10.082 34.0141 10.082 32.9463" fill="#00AE4D"/>
<path fill-rule="evenodd" clip-rule="evenodd" d="M9.47518 34.1464V35.8938H0V29.123H4.36471V34.1464" fill="#00AE4D"/>
<path fill-rule="evenodd" clip-rule="evenodd" d="M27.8915 30.945V31.9361H29.1761C30.1172 31.9361 30.3714 31.6231 30.3714 31.455C30.3714 31.0526 29.8133 30.945 29.4392 30.945H27.8915ZM23.6289 35.8846V29.123H29.7316C31.2205 29.123 32.3009 29.2862 32.9751 29.6112C34.948 30.5651 35.2481 32.0248 33.3518 33.0912C32.6469 33.4886 31.7658 33.6877 30.9256 33.6877H27.8749V35.8846" fill="#00AE4D"/>
</svg>
