<svg width="235" height="36" viewBox="0 0 235 36" fill="none" xmlns="http://www.w3.org/2000/svg">
<path d="M35.2226 18.1922C35.2226 28.027 27.3377 36 17.611 36C7.88425 36 0 28.0293 0 18.1922C0 8.355 7.88485 0.38496 17.611 0.38496C27.3372 0.38496 35.2226 8.3574 35.2226 18.1922ZM54.5427 18.1922C54.5427 27.4505 50.5999 34.955 45.7369 34.955C40.8738 34.955 36.9311 27.448 36.9311 18.1922C36.9311 8.93635 40.8738 1.42933 45.7369 1.42933C50.5999 1.42933 54.5427 8.93635 54.5427 18.1922ZM62.4448 18.1922C62.4448 26.487 61.0579 33.211 59.3477 33.211C57.6375 33.211 56.2506 26.4847 56.2506 18.1922C56.2506 9.89965 57.6375 3.17335 59.3482 3.17335C61.0592 3.17335 62.4448 9.89785 62.4448 18.1922ZM111.05 1.929L111.099 1.91819V1.53683H101.083L91.7834 23.4873L82.4837 1.53683H71.6907V1.91819L71.7392 1.929C73.5672 2.34339 74.4955 2.96138 74.4955 5.19005V31.2815C74.4955 33.51 73.5637 34.128 71.7355 34.5425L71.6872 34.5532V34.9357H79.0098V34.5545L78.9615 34.5438C77.1333 34.1292 76.2052 33.5112 76.2052 31.2825V6.70345L88.1516 34.9357H88.8293L101.124 5.91612V31.927C100.967 33.6872 100.048 34.2307 98.3921 34.606L98.343 34.6175V34.9958H111.099V34.6175L111.05 34.606C109.393 34.2307 108.451 33.6872 108.294 31.927L108.286 5.19005H108.294C108.294 2.96138 109.222 2.34339 111.05 1.929ZM116.876 19.2131C117.085 14.5252 118.761 11.1416 121.574 11.0834C122.442 11.0977 123.17 11.3836 123.735 11.9338C124.937 13.1054 125.503 15.5539 125.415 19.2131H116.876ZM116.75 20.5344H131.7V20.4713C131.658 16.8866 130.624 14.0981 128.63 12.1836C126.907 10.529 124.355 9.61858 121.675 9.61858H121.615C120.224 9.61858 118.518 9.9573 117.304 10.5711C115.922 11.2137 114.703 12.1746 113.689 13.4358C112.056 15.4675 111.067 18.2132 110.827 21.2989C110.819 21.3914 110.812 21.4838 110.806 21.5763C110.799 21.6688 110.795 21.7517 110.791 21.84C110.77 22.2738 110.762 22.7083 110.769 23.1426C110.931 30.1312 114.69 35.7165 121.367 35.7165C127.228 35.7165 130.641 31.414 131.492 25.6392L131.062 25.4872C129.567 28.591 126.882 30.4718 123.826 30.2425C119.654 29.929 116.458 25.6813 116.748 20.5356L116.75 20.5344ZM148.604 30.0053C148.113 31.1733 147.09 31.816 145.719 31.816C144.348 31.816 143.094 30.8705 142.204 29.153C141.247 27.3092 140.744 24.7029 140.744 21.6154C140.744 15.1894 142.734 11.0329 145.814 11.0329C147.104 11.0329 148.119 11.6755 148.604 12.7968V30.0053ZM158.521 34.5863C156.693 34.152 155.765 33.5052 155.765 31.163V0L144.658 3.28627V3.68865L144.726 3.68325C146.259 3.55892 147.298 3.77153 147.901 4.33125C148.374 4.76965 148.604 5.44228 148.604 6.38877V10.6611C147.509 9.9591 146.207 9.61738 144.626 9.61738C141.42 9.61738 138.491 10.9729 136.378 13.4346C134.176 16.0001 133.011 19.5062 133.011 23.5726C133.011 30.8352 136.571 35.7165 141.869 35.7165C144.969 35.7165 147.462 34.011 148.604 31.1343V34.9958H158.57V34.596L158.521 34.5863ZM168.047 4.23815C168.047 1.97044 166.345 0.260042 164.086 0.260042C161.838 0.260042 160.079 2.00768 160.079 4.23815C160.079 6.46865 161.84 8.21628 164.086 8.21628C166.345 8.21628 168.047 6.50588 168.047 4.23815ZM170.669 34.5863C168.841 34.152 167.913 33.5052 167.913 31.163H167.905V9.69125L157.938 12.5649V12.9553L157.998 12.9607C160.154 13.1535 160.745 13.8994 160.745 16.4301V34.9958H170.72V34.596L170.669 34.5863ZM196.207 34.5863C194.379 34.152 193.451 33.5052 193.451 31.163V9.69125L183.962 12.47V12.8616L184.018 12.8676C185.781 13.0538 186.29 13.8423 186.29 16.3845V29.9573C185.703 31.1252 184.6 31.819 183.264 31.8657C181.097 31.8657 179.904 30.3963 179.904 27.728V9.69185L169.938 12.5655V12.9553L169.997 12.9607C172.154 13.1529 172.745 13.8988 172.745 16.4301V27.917C172.739 28.719 172.809 29.5195 172.952 30.3085L173.132 31.0923C173.975 34.1287 176.186 35.7165 179.65 35.7165C182.584 35.7165 185.155 33.8927 186.288 31.0387V35.0025H196.254V34.6025L196.207 34.5863ZM234.925 34.9958V34.5952L234.876 34.584C232.892 34.1245 232.12 33.2585 232.12 31.4953V16.8896C232.12 12.3355 229.573 9.61738 225.307 9.61738C222.197 9.61738 219.575 11.4221 218.565 14.2333C217.763 11.2545 215.455 9.61738 212.043 9.61738C209.046 9.61738 206.697 11.2059 205.689 13.8892V9.69305L195.723 12.449V12.8418L195.783 12.8472C197.913 13.037 198.529 13.8045 198.529 16.2704V34.9958H207.828V34.596L207.779 34.584C206.197 34.2103 205.686 33.5293 205.686 31.7817V15.0405C206.105 14.0585 206.949 12.8952 208.617 12.8952C210.688 12.8952 211.738 14.3366 211.738 17.176V34.9958H221.04V34.596L220.991 34.584C219.408 34.2103 218.898 33.5293 218.898 31.7817V16.8878C218.902 16.3309 218.858 15.7747 218.766 15.2254C219.21 14.1582 220.102 12.8952 221.838 12.8952C223.939 12.8952 224.96 14.2952 224.96 17.176V34.9958H234.925Z" fill="black"/>
</svg>
