<svg width="100" height="36" viewBox="0 0 100 36" fill="none" xmlns="http://www.w3.org/2000/svg">
<path fill-rule="evenodd" clip-rule="evenodd" d="M87.384 10.3107C94.7137 10.3107 99.5693 15.4202 99.5693 23.1317C99.5693 30.843 94.7137 36 87.384 36C79.7738 36 74.6847 30.843 74.6847 23.1317C74.6847 15.4202 79.7738 10.3107 87.384 10.3107ZM48.2645 10.8282V35.4825L42.7857 34.353V11.9104L48.2645 10.8282ZM70.2027 10.2556V16.0416L67.0456 16.6282C64.3329 17.1504 62.5882 18.5651 62.5882 21.6956V35.4825L57.1094 34.353V20.8557C57.1094 14.1568 61.0224 12.1641 67.0456 10.7732L70.2027 10.2556ZM11.9792 10.3107C14.1293 10.3107 16.766 11.5162 18.2526 13.6763C19.7448 11.7091 22.2392 10.4183 25.3004 10.3764C29.1541 10.3238 33.9408 12.7573 33.9408 20.0501V35.4825L28.462 34.353V20.0501C28.462 17.6034 26.6977 15.8625 24.0975 15.8625C21.4973 15.8625 19.733 17.6034 19.733 20.0501V35.4825L14.2542 34.353V20.0501C14.2542 17.6034 12.4899 15.8625 9.88984 15.8625C7.24318 15.8625 5.47884 17.6034 5.47884 20.0501V35.4825L0 34.353V11.9104L5.47884 10.8282V13.3689C7.01101 11.4869 9.33263 10.3107 11.9792 10.3107ZM87.384 15.5148C83.1351 15.5148 80.2872 18.5426 80.2872 23.1317C80.2872 27.7208 83.1351 30.7957 87.384 30.7957C91.3516 30.7957 93.9663 27.7208 93.9663 23.1317C93.9663 18.5426 91.3516 15.5148 87.384 15.5148ZM45.6413 0C47.6351 0 48.9555 1.38961 48.9555 3.48705C48.9555 5.58435 47.6351 6.9869 45.6413 6.9869C43.5715 6.9869 42.1877 5.58435 42.1877 3.48705C42.1877 1.38961 43.5715 0 45.6413 0Z" fill="black"/>
</svg>
