<svg width="104" height="36" viewBox="0 0 104 36" fill="none" xmlns="http://www.w3.org/2000/svg">
<mask id="mask0_909_801" style="mask-type:luminance" maskUnits="userSpaceOnUse" x="0" y="0" width="104" height="36">
<path d="M103.803 0H0V36H103.803V0Z" fill="white"/>
</mask>
<g mask="url(#mask0_909_801)">
<path d="M70.5705 27.0345C69.7416 28.219 68.5534 29.1082 67.1798 29.5723C65.8061 30.036 64.3192 30.05 62.9371 29.612C61.555 29.174 60.3502 28.307 59.4988 27.1383C58.6475 25.9692 58.1948 24.56 58.2066 23.1165C58.2187 21.673 58.6945 20.2712 59.5649 19.1164C60.4353 17.9616 61.6544 17.1145 63.0436 16.6991C64.4328 16.2838 65.9192 16.3219 67.285 16.8081C68.6506 17.2943 69.8242 18.2029 70.6336 19.4009L75.6522 16.452C74.191 14.1576 72.021 12.397 69.4685 11.4345C66.916 10.472 64.1185 10.3596 61.4964 11.1142C58.8743 11.8688 56.5687 13.4497 54.9263 15.6194C53.2839 17.7891 52.3932 20.4305 52.3879 23.1469C52.3824 25.8635 53.2626 28.5082 54.8964 30.6845C56.5303 32.8605 58.8294 34.4505 61.4487 35.2152C64.0678 35.9802 66.8655 35.8787 69.422 34.9265C71.9783 33.974 74.155 32.2218 75.6256 29.9333L70.5723 27.0345H70.5705ZM84.3985 0H78.576V34.7573H84.3953V23.1715C84.3953 21.379 85.111 19.6599 86.3846 18.3924C87.658 17.1249 89.3855 16.4129 91.1867 16.4129C92.9878 16.4129 94.7151 17.1249 95.9888 18.3924C97.2624 19.6599 97.9778 21.379 97.9778 23.1715V34.7573H103.799V22.0445C103.798 19.8085 103.138 17.6218 101.9 15.7555C100.663 13.8892 98.902 12.4253 96.8366 11.5451C94.7712 10.665 92.4914 10.4073 90.2803 10.8041C88.0692 11.2008 86.0236 12.2345 84.397 13.7771V0H84.3985ZM43.6541 0H37.8332V27.0327C37.8329 28.7012 38.3155 30.3342 39.2228 31.7372C40.1302 33.14 41.4244 34.253 42.9505 34.9435C44.4766 35.634 46.1702 35.8727 47.829 35.6307C49.4877 35.389 51.0414 34.6772 52.3045 33.5802L49.4922 28.8312C49.2202 29.1737 48.8735 29.4502 48.4786 29.6402C48.0834 29.8302 47.6504 29.929 47.2118 29.9285H46.5636C45.7922 29.928 45.0524 29.623 44.5067 29.08C43.9611 28.537 43.6544 27.8007 43.6541 27.0327V17.3786H49.4734V11.5857H43.6541V0ZM31.0468 0C30.1892 0 29.3667 0.339047 28.7603 0.942555C28.1536 1.54607 27.813 2.3646 27.813 3.21808C27.813 4.07158 28.1536 4.8901 28.7603 5.49363C29.3667 6.09713 30.1892 6.43617 31.0468 6.43617C31.9044 6.43617 32.7269 6.09713 33.3333 5.49363C33.9397 4.8901 34.2803 4.07158 34.2803 3.21808C34.2803 2.3646 33.9397 1.54607 33.3333 0.942555C32.7269 0.339047 31.9044 0 31.0468 0ZM33.9563 34.7573V11.5857H28.137V34.7573H33.9563Z" fill="black"/>
<path fill-rule="evenodd" clip-rule="evenodd" d="M0 34.7573H5.81928V27.9985H11.1557C13.003 27.9985 14.8322 27.6365 16.5389 26.933C18.2456 26.2295 19.7963 25.1982 21.1026 23.8983C22.4088 22.5984 23.4449 21.0551 24.1519 19.3566C24.8588 17.6581 25.2228 15.8377 25.2228 13.9993C25.2228 12.1609 24.8588 10.3405 24.1519 8.642C23.4449 6.94353 22.4088 5.40025 21.1026 4.1003C19.7963 2.80035 18.2456 1.76917 16.5389 1.06563C14.8322 0.362102 13.003 -3.87417e-08 11.1557 0H0V34.7573ZM5.81928 5.7913H11.1557C13.3427 5.7913 15.4401 6.6559 16.9866 8.19493C18.533 9.73392 19.4018 11.8212 19.4018 13.9978C19.4018 16.1742 18.533 18.2616 16.9866 19.8006C15.4401 21.3396 13.3427 22.2042 11.1557 22.2042H5.82086V5.7913H5.81928Z" fill="black"/>
</g>
</svg>
