<svg width="114" height="36" viewBox="0 0 114 36" fill="none" xmlns="http://www.w3.org/2000/svg">
<mask id="mask0_909_826" style="mask-type:luminance" maskUnits="userSpaceOnUse" x="0" y="0" width="114" height="36">
<path d="M114 0H0V36H114V0Z" fill="white"/>
</mask>
<g mask="url(#mask0_909_826)">
<path d="M109.26 33.0412V15.3613H111.26C111.537 15.3864 111.817 15.3533 112.081 15.264C112.345 15.1748 112.587 15.0315 112.792 14.8432C112.997 14.6549 113.161 14.4259 113.273 14.1707C113.384 13.9155 113.441 13.6398 113.44 13.3613V13.3013C113.473 13.0307 113.451 12.7561 113.374 12.4944C113.297 12.2328 113.168 11.9896 112.994 11.7798C112.82 11.57 112.604 11.398 112.361 11.2745C112.118 11.1509 111.852 11.0784 111.58 11.0613H109.26V7.76135C109.263 7.1453 109.034 6.55075 108.619 6.09525C108.204 5.63975 107.634 5.35645 107.02 5.30135C106.39 5.26282 105.77 5.47425 105.294 5.88982C104.819 6.30537 104.526 6.89157 104.48 7.52135V11.1013H102.48C102.203 11.0763 101.923 11.1094 101.659 11.1986C101.396 11.2879 101.153 11.4312 100.948 11.6195C100.743 11.8077 100.579 12.0368 100.468 12.292C100.356 12.5472 100.299 12.8228 100.3 13.1013V13.2413C100.267 13.512 100.289 13.7866 100.366 14.0483C100.443 14.3099 100.572 14.5531 100.746 14.7629C100.921 14.9727 101.136 15.1447 101.379 15.2682C101.622 15.3918 101.888 15.4643 102.16 15.4813H104.42V33.1012C104.42 33.7325 104.671 34.338 105.117 34.7842C105.564 35.2305 106.169 35.4813 106.8 35.4813C107.428 35.514 108.044 35.297 108.512 34.8773C108.981 34.4575 109.264 33.8692 109.3 33.2412C109.308 33.1722 109.294 33.1022 109.26 33.0412Z" fill="black"/>
<path d="M94.5203 11.1206C96.862 11.1206 98.7603 9.2223 98.7603 6.88062C98.7603 4.53892 96.862 2.64062 94.5203 2.64062C92.1785 2.64062 90.2803 4.53892 90.2803 6.88062C90.2803 9.2223 92.1785 11.1206 94.5203 11.1206Z" fill="black"/>
<path d="M96.8801 15.6183C96.8801 14.9871 96.6294 14.3817 96.1831 13.9354C95.7366 13.489 95.1314 13.2383 94.5001 13.2383C93.8689 13.2383 93.2636 13.489 92.8171 13.9354C92.3709 14.3817 92.1201 14.9871 92.1201 15.6183V33.0383C92.1201 33.6695 92.3709 34.2748 92.8171 34.7213C93.2636 35.1675 93.8689 35.4183 94.5001 35.4183C95.1314 35.4183 95.7366 35.1675 96.1831 34.7213C96.6294 34.2748 96.8801 33.6695 96.8801 33.0383V15.6183Z" fill="black"/>
<path d="M61.68 2.38C61.68 1.74879 61.4293 1.14342 60.983 0.697085C60.5365 0.25075 59.9313 0 59.3 0C58.6688 0 58.0635 0.25075 57.617 0.697085C57.1708 1.14342 56.92 1.74879 56.92 2.38V13.02C56.1355 12.2318 55.1995 11.6108 54.168 11.1949C53.1368 10.7789 52.0318 10.5766 50.92 10.6C44.72 10.6 39.54 16.3 39.54 23.3C39.54 30.3 44.56 36 50.84 36C51.9858 36.028 53.1255 35.8247 54.1908 35.402C55.256 34.9793 56.2253 34.346 57.04 33.54C57.1248 33.84 57.2688 34.1203 57.4633 34.3638C57.658 34.6075 57.8993 34.8098 58.1733 34.9588C58.447 35.108 58.748 35.2008 59.0583 35.2318C59.3685 35.263 59.682 35.2318 59.98 35.14C60.4415 35.001 60.8503 34.7265 61.1535 34.352C61.4568 33.9775 61.6403 33.5203 61.68 33.04V2.38ZM50.82 31.28C47.16 31.28 44.18 27.74 44.18 23.28C44.18 18.82 47.14 15.28 50.82 15.28C54.5 15.28 57.44 18.84 57.44 23.28C57.44 27.72 54.5 31.18 50.84 31.18L50.82 31.28Z" fill="black"/>
<path d="M86.5599 2.38C86.5599 1.74879 86.3092 1.14342 85.8629 0.697085C85.4164 0.25075 84.8112 1.52178e-09 84.1799 1.52178e-09C83.8684 -1.11884e-05 83.5597 0.0616885 83.2722 0.181538C82.9844 0.301387 82.7234 0.477015 82.5039 0.698285C82.2847 0.919553 82.1112 1.18208 81.9937 1.47073C81.8764 1.75937 81.8172 2.0684 81.8199 2.38V13.02C81.0327 12.2355 80.0962 11.617 79.0654 11.2013C78.0347 10.7856 76.9312 10.5812 75.8199 10.6C69.6199 10.6 64.4399 16.3 64.4399 23.3C64.4399 30.3 69.4399 36 75.7199 36C76.8789 36.039 78.0339 35.841 79.1137 35.418C80.1937 34.995 81.1757 34.3558 81.9999 33.54C82.0847 33.84 82.2287 34.1203 82.4232 34.3638C82.6179 34.6075 82.8592 34.8098 83.1332 34.9588C83.4069 35.108 83.7079 35.2008 84.0182 35.2318C84.3284 35.263 84.6419 35.2318 84.9399 35.14C85.4027 35.0035 85.8132 34.7298 86.1169 34.3545C86.4204 33.9795 86.6029 33.521 86.6399 33.04L86.5599 2.38ZM75.6999 31.28C72.0399 31.28 69.0799 27.74 69.0799 23.28C69.0799 18.82 72.0199 15.28 75.6999 15.28C79.3799 15.28 82.3199 18.84 82.3199 23.28C82.3199 27.72 79.3799 31.18 75.7199 31.18L75.6999 31.28Z" fill="black"/>
<path d="M34.5401 24.8816C35.3276 24.9366 36.1049 24.6768 36.7011 24.1594C37.2971 23.6419 37.6639 22.909 37.7201 22.1216V21.8216C37.7041 21.2501 37.6371 20.6812 37.5201 20.1216C37.0364 17.5197 35.6819 15.1598 33.6791 13.4297C31.6764 11.6996 29.1446 10.7022 26.5001 10.6016C20.3001 10.6016 15.1201 16.3016 15.1201 23.3016C15.1201 30.3015 20.2201 36.0015 26.5001 36.0015C28.1431 36.0625 29.7796 35.765 31.2959 35.1295C32.8121 34.494 34.1716 33.5358 35.2801 32.3215C35.4986 32.0828 35.6676 31.8033 35.7779 31.499C35.8881 31.1948 35.9371 30.8718 35.9221 30.5483C35.9074 30.225 35.8289 29.908 35.6911 29.615C35.5536 29.3223 35.3596 29.0593 35.1201 28.8415L34.9001 28.6615C34.4111 28.3575 33.8341 28.2255 33.2616 28.2873C32.6889 28.3488 32.1534 28.6003 31.7401 29.0015C30.3374 30.3808 28.4664 31.1805 26.5001 31.2415C24.8423 31.1135 23.2825 30.406 22.094 29.243C20.9055 28.0803 20.1643 26.5363 20.0001 24.8816H34.5401ZM26.5401 15.3616C28.0004 15.4619 29.3899 16.0295 30.5026 16.9803C31.6156 17.9311 32.3931 19.2148 32.7201 20.6416H20.2801C20.6082 19.2117 21.3886 17.9258 22.5055 16.9746C23.6224 16.0234 25.0164 15.4578 26.4801 15.3616H26.5401Z" fill="black"/>
<path d="M15.3602 13.0586C15.3627 12.4914 15.1626 11.942 14.7959 11.5093C14.4292 11.0766 13.9201 10.7891 13.3602 10.6986C11.782 10.4188 10.158 10.5599 8.65166 11.1077C7.14538 11.6554 5.81006 12.5904 4.78018 13.8186V13.4986C4.72558 12.9024 4.45018 12.3482 4.00801 11.9447C3.56583 11.5412 2.98881 11.3174 2.39018 11.3174C1.79155 11.3174 1.21453 11.5412 0.772354 11.9447C0.330179 12.3482 0.0547714 12.9024 0.000181193 13.4986V33.0385C-0.00733396 33.658 0.219166 34.2575 0.634429 34.7173C1.04969 35.177 1.62313 35.4633 2.24018 35.5185C2.86518 35.5573 3.48018 35.3478 3.95188 34.936C4.42361 34.5243 4.71401 33.943 4.76018 33.3185C4.77011 33.2255 4.77011 33.1318 4.76018 33.0385V23.0386C4.70623 22.0859 4.84113 21.1319 5.15713 20.2316C5.47316 19.3312 5.96403 18.5022 6.60153 17.7922C7.23906 17.0821 8.01066 16.5052 8.87193 16.0944C9.73321 15.6836 10.6672 15.4471 11.6202 15.3986C11.9799 15.3786 12.3405 15.3786 12.7002 15.3986H13.1802C13.771 15.3534 14.3231 15.0877 14.727 14.6541C15.1309 14.2206 15.3569 13.6511 15.3602 13.0586Z" fill="black"/>
</g>
</svg>
