<svg width="180" height="180" viewBox="0 0 180 180" fill="none" xmlns="http://www.w3.org/2000/svg">
<path d="M83.9398 118.177C83.9398 111.577 82.2148 106.035 78.7648 101.55C76.3198 98.46 73.0023 96.43 68.8123 95.46C64.6873 94.5 60.7873 94.4325 57.2623 95.25C56.0623 88.125 58.0123 80.58 62.9623 72.585C67.9223 64.595 74.3173 58.5875 82.1473 54.5625L70.2898 37.5C64.2898 40.47 58.5898 44.235 53.3398 48.7875C48.0148 53.34 43.2898 58.575 39.0898 64.4925C34.8898 70.41 31.7398 77.0925 29.7148 84.6675C27.6898 92.2425 27.1273 99.9675 28.0948 107.917C29.3548 118.417 32.7448 126.818 38.2648 133.043C43.7798 139.348 50.6498 142.5 58.8748 142.5C66.1123 142.5 72.1198 140.325 76.8748 135.915C81.5798 131.595 83.9298 125.675 83.9248 118.155L83.9398 118.177ZM152.37 118.177C152.37 111.577 150.645 106.035 147.195 101.55C144.745 98.4 141.427 96.3575 137.242 95.4225C133.042 94.4975 129.192 94.4425 125.692 95.2575C124.492 88.2075 126.367 80.6325 131.332 72.6075C136.282 64.6575 142.672 58.6575 150.502 54.6075L138.675 37.5C132.67 40.47 127.02 44.2325 121.725 48.7875C116.352 53.408 111.58 58.6842 107.52 64.4925C103.35 70.4175 100.245 77.0925 98.2198 84.6675C96.1628 92.2366 95.6099 100.136 96.5923 107.917C97.8373 118.417 101.212 126.818 106.717 133.043C112.217 139.303 119.075 142.432 127.29 142.432C134.54 142.442 140.545 140.25 145.305 135.855C150.01 131.535 152.365 125.615 152.37 118.095V118.177Z" fill="#E1EBFF" fill-opacity="0.32"/>
</svg>
