<svg width="36" height="36" viewBox="0 0 36 36" fill="none" xmlns="http://www.w3.org/2000/svg">
<path d="M3.75 9L12 6L20.25 9L16.5 11.25V13.5C16.5 13.5 15.4995 12.75 12 12.75C8.5005 12.75 7.5 13.5 7.5 13.5V11.25L3.75 9ZM3.75 9V15" stroke="white" stroke-width="2" stroke-linecap="round" stroke-linejoin="round"/>
<path d="M16.5 12.75V14.0835C16.5 16.6605 14.4855 18.75 12 18.75C9.5145 18.75 7.5 16.6605 7.5 14.0835V12.75M22.977 16.545C22.977 16.545 23.7045 16.0155 26.25 16.0155C28.7955 16.0155 29.523 16.5435 29.523 16.5435M22.977 16.545V15L20.25 13.5L26.25 11.25L32.25 13.5L29.523 15V16.5435M22.977 16.545V16.977C22.977 17.8451 23.3218 18.6776 23.9356 19.2914C24.5494 19.9052 25.3819 20.25 26.25 20.25C27.1181 20.25 27.9506 19.9052 28.5644 19.2914C29.1782 18.6776 29.523 17.8451 29.523 16.977V16.5435M24 30H29.5575C30.717 30 31.638 29.436 32.466 28.647C34.161 27.033 31.3785 25.743 30.318 25.1115C29.3749 24.5548 28.3276 24.1975 27.2409 24.0615C26.1542 23.9255 25.0512 24.0139 24 24.321M6.5775 23.889C5.163 24.6795 1.4535 26.292 3.7125 28.3095C4.8165 29.295 6.045 30 7.5915 30H16.4085C17.9535 30 19.1835 29.295 20.2875 28.3095C22.5465 26.292 18.837 24.6795 17.4225 23.889C14.1045 22.0365 9.8955 22.0365 6.5775 23.889Z" stroke="white" stroke-width="2" stroke-linecap="round" stroke-linejoin="round"/>
</svg>
