<svg width="24" height="24" viewBox="0 0 24 24" fill="none" xmlns="http://www.w3.org/2000/svg">
<path d="M11.6688 5.21215C11.6982 5.14907 11.7449 5.09568 11.8035 5.05826C11.8622 5.02085 11.9303 5.00098 11.9998 5.00098C12.0694 5.00098 12.1375 5.02085 12.1962 5.05826C12.2548 5.09568 12.3015 5.14907 12.3308 5.21215L13.1448 6.88015C13.1988 6.99015 13.2998 7.06715 13.4178 7.08715L15.1858 7.38115C15.4858 7.43115 15.6058 7.81514 15.3908 8.03914L14.1248 9.36515C14.0832 9.40941 14.0522 9.46259 14.0342 9.52064C14.0161 9.57868 14.0116 9.64007 14.0208 9.70015L14.2998 11.5501C14.3468 11.8641 14.0338 12.1011 13.7638 11.9571L12.1688 11.1081C12.1168 11.0805 12.0588 11.066 11.9998 11.066C11.9409 11.066 11.8829 11.0805 11.8308 11.1081L10.2358 11.9571C9.96584 12.1011 9.65284 11.8641 9.69984 11.5501L9.97884 9.70015C9.9881 9.64007 9.98354 9.57868 9.96552 9.52064C9.9475 9.46259 9.91649 9.40941 9.87484 9.36515L8.60884 8.04015C8.39484 7.81615 8.51384 7.43215 8.81384 7.38215L10.5818 7.08815C10.6407 7.07821 10.6962 7.05419 10.7437 7.01815C10.7913 6.9821 10.8294 6.9351 10.8548 6.88115L11.6688 5.21215Z" stroke="white" stroke-width="1.5" stroke-linecap="round" stroke-linejoin="round"/>
<path d="M19 9C19 9.91925 18.8189 10.8295 18.4672 11.6788C18.1154 12.5281 17.5998 13.2997 16.9497 13.9497C16.2997 14.5998 15.5281 15.1154 14.6788 15.4672C13.8295 15.8189 12.9193 16 12 16C11.0807 16 10.1705 15.8189 9.32122 15.4672C8.47194 15.1154 7.70026 14.5998 7.05025 13.9497C6.40024 13.2997 5.88463 12.5281 5.53284 11.6788C5.18106 10.8295 5 9.91925 5 9C5 7.14348 5.7375 5.36301 7.05025 4.05025C8.36301 2.7375 10.1435 2 12 2C13.8565 2 15.637 2.7375 16.9497 4.05025C18.2625 5.36301 19 7.14348 19 9Z" stroke="white" stroke-width="1.5" stroke-linecap="round" stroke-linejoin="round"/>
<path d="M13.0003 16.342L14.6263 20.652C14.9543 21.519 15.1183 21.954 15.4033 22C15.6893 21.958 16.0393 21.48 16.3813 20.617C16.6263 19.999 16.7483 19.69 17.0013 19.523C17.0786 19.4723 17.1623 19.4323 17.2523 19.403C17.5443 19.311 17.8793 19.401 18.5503 19.583C19.2673 19.777 19.7653 19.723 19.9623 19.583C20.0203 19.542 19.9623 19.58 19.9623 19.58C20.0783 19.374 19.9223 19.054 19.6093 18.413L17.4563 14M11.0003 16.342L9.3743 20.65C9.0463 21.518 8.7223 21.954 8.4373 22C8.1513 21.958 7.9803 21.526 7.6373 20.663C7.3933 20.045 7.2523 19.689 6.9993 19.523C6.92163 19.4715 6.83715 19.4311 6.7483 19.403C6.4563 19.31 6.1213 19.401 5.4503 19.582C4.7333 19.776 4.2353 19.719 4.0383 19.579C3.9223 19.373 4.0783 19.053 4.3913 18.412L6.5443 14" stroke="white" stroke-width="1.5" stroke-linecap="round" stroke-linejoin="round"/>
</svg>
