<svg width="84" height="84" viewBox="0 0 84 84" fill="none" xmlns="http://www.w3.org/2000/svg">
<path d="M39.1726 55.1495C39.1726 52.0695 38.3676 49.483 36.7576 47.39C35.6166 45.948 34.0685 45.0007 32.1131 44.548C30.1881 44.1 28.3681 44.0685 26.7231 44.45C26.1631 41.125 27.0731 37.604 29.3831 33.873C31.6978 30.1443 34.6821 27.3408 38.3361 25.4625L32.8026 17.5C30.0026 18.886 27.3426 20.643 24.8926 22.7675C22.4076 24.892 20.2026 27.335 18.2426 30.0965C16.2826 32.858 14.8126 35.9765 13.8676 39.5115C12.9226 43.0465 12.6601 46.6515 13.1116 50.3615C13.6996 55.2615 15.2816 59.1815 17.8576 62.0865C20.4313 65.0288 23.6373 66.5 27.4756 66.5C30.8531 66.5 33.6566 65.485 35.8756 63.427C38.0713 61.411 39.168 58.6483 39.1656 55.139L39.1726 55.1495ZM71.1066 55.1495C71.1066 52.0695 70.3016 49.483 68.6916 47.39C67.5483 45.92 66.0001 44.9668 64.0471 44.5305C62.0871 44.0988 60.2905 44.0732 58.6571 44.4535C58.0971 41.1635 58.9721 37.6285 61.2891 33.8835C63.5991 30.1735 66.5811 27.3735 70.2351 25.4835L64.7156 17.5C61.9133 18.886 59.2766 20.6418 56.8056 22.7675C54.2982 24.9237 52.0712 27.386 50.1766 30.0965C48.2306 32.8615 46.7816 35.9765 45.8366 39.5115C44.8767 43.0438 44.6187 46.73 45.0771 50.3615C45.6581 55.2615 47.2331 59.1815 49.8021 62.0865C52.3688 65.0078 55.569 66.4685 59.4026 66.4685C62.786 66.4732 65.5883 65.45 67.8096 63.399C70.0053 61.383 71.1043 58.6203 71.1066 55.111V55.1495Z" fill="#B2B2B2" fill-opacity="0.36"/>
</svg>
