<svg width="24" height="24" viewBox="0 0 24 24" fill="none" xmlns="http://www.w3.org/2000/svg">
<path d="M13.9989 10.0002L10.9989 13.0002M20.2869 3.03122C20.3818 2.99847 20.484 2.99309 20.5818 3.01567C20.6796 3.03825 20.7691 3.0879 20.84 3.15893C20.9109 3.22996 20.9604 3.31952 20.9829 3.41736C21.0053 3.5152 20.9998 3.61738 20.9669 3.71222L15.0429 20.6422C15.0074 20.7434 14.9424 20.8316 14.8562 20.8954C14.77 20.9592 14.6666 20.9956 14.5595 20.9999C14.4523 21.0042 14.3464 20.9763 14.2553 20.9196C14.1643 20.863 14.0924 20.7802 14.0489 20.6822L10.8299 13.4402C10.7761 13.3195 10.6796 13.223 10.5589 13.1692L3.31689 9.94922C3.21918 9.9056 3.1368 9.83368 3.08039 9.74275C3.02398 9.65183 2.99613 9.54608 3.00043 9.43917C3.00474 9.33225 3.04101 9.22909 3.10455 9.14299C3.16809 9.0569 3.25599 8.99184 3.35689 8.95622L20.2869 3.03122Z" stroke="white" stroke-width="2" stroke-linecap="round" stroke-linejoin="round"/>
</svg>
