<svg width="64" height="64" viewBox="0 0 64 64" fill="none" xmlns="http://www.w3.org/2000/svg">
<path d="M32.0007 5.3335C33.0015 5.3335 33.9882 5.38772 34.9607 5.49616C35.3087 5.53468 35.6458 5.64139 35.9527 5.81019C36.2595 5.97898 36.5301 6.20657 36.749 6.47994C36.9679 6.75332 37.1308 7.06713 37.2285 7.40347C37.3261 7.7398 37.3565 8.09207 37.318 8.44016C37.2795 8.78825 37.1728 9.12535 37.004 9.4322C36.8352 9.73905 36.6076 10.0097 36.3342 10.2286C36.0608 10.4475 35.747 10.6104 35.4107 10.708C35.0743 10.8056 34.7221 10.836 34.374 10.7975C29.9794 10.3059 25.5407 11.192 21.6718 13.3333C17.8029 15.4746 14.6949 18.7652 12.7779 22.75C10.8609 26.7348 10.2295 31.2169 10.971 35.5762C11.7126 39.9356 13.7905 43.9567 16.9173 47.0835C20.0441 50.2103 24.0653 52.2882 28.4246 53.0298C32.7839 53.7714 37.266 53.14 41.2508 51.2229C45.2356 49.3059 48.5262 46.198 50.6675 42.329C52.8088 38.4601 53.6949 34.0214 53.2033 29.6268C53.1648 29.2787 53.1952 28.9265 53.2928 28.5901C53.3905 28.2538 53.5534 27.94 53.7723 27.6666C54.2144 27.1145 54.8577 26.7606 55.5606 26.6828C56.2636 26.605 56.9688 26.8097 57.5209 27.2518C57.7942 27.4707 58.0218 27.7413 58.1906 28.0481C58.3594 28.355 58.4661 28.6921 58.5047 29.0402C58.6113 30.0126 58.6655 30.9993 58.6673 32.0002C58.6673 46.7282 46.7287 58.6668 32.0007 58.6668C17.2727 58.6668 5.33398 46.7282 5.33398 32.0002C5.33398 17.2722 17.2727 5.3335 32.0007 5.3335ZM31.9153 21.0055C32.0911 21.6901 31.9878 22.4165 31.6283 23.025C31.2688 23.6335 30.6824 24.0744 29.998 24.2508C28.1176 24.7434 26.4807 25.9033 25.3928 27.5141C24.3048 29.1248 23.84 31.0764 24.0852 33.0047C24.3304 34.933 25.2688 36.7061 26.7253 37.9933C28.1818 39.2806 30.0569 39.9939 32.0007 40.0002C33.7748 40.0009 35.4989 39.4119 36.9017 38.3258C38.3045 37.2396 39.3064 35.718 39.75 34.0002C39.939 33.3291 40.3833 32.7588 40.9877 32.4113C41.5921 32.0638 42.3086 31.9669 42.9836 32.1412C43.6586 32.3155 44.2385 32.7473 44.5991 33.344C44.9597 33.9407 45.0722 34.6548 44.9127 35.3335C44.0946 38.4693 42.1629 41.2001 39.4784 43.0156C36.7939 44.8311 33.5403 45.6072 30.3253 45.1988C27.1104 44.7905 24.1541 43.2257 22.0087 40.7968C19.8633 38.3678 18.6755 35.2409 18.6673 32.0002C18.6669 29.0439 19.6489 26.1713 21.4591 23.834C23.2693 21.4967 25.8049 19.8272 28.6673 19.0882C29.0065 19.0007 29.3595 18.981 29.7063 19.03C30.0531 19.0791 30.3869 19.196 30.6885 19.374C30.9901 19.5521 31.2537 19.7878 31.4642 20.0677C31.6747 20.3477 31.828 20.6663 31.9153 21.0055ZM49.3447 5.67216C49.8314 5.87397 50.2474 6.21546 50.5403 6.65352C50.8331 7.09158 50.9896 7.60657 50.99 8.1335V13.0135H55.8673C56.3947 13.0136 56.9101 13.1701 57.3485 13.4631C57.787 13.7561 58.1287 14.1726 58.3305 14.6598C58.5322 15.147 58.5851 15.683 58.4822 16.2002C58.3794 16.7175 58.1255 17.1926 57.7527 17.5655L48.3207 26.9868C47.8207 27.487 47.1425 27.768 46.4353 27.7682H40.0007L35.126 32.6455C34.6256 33.1459 33.947 33.427 33.2393 33.427C32.5317 33.427 31.853 33.1459 31.3527 32.6455C30.8523 32.1451 30.5712 31.4665 30.5712 30.7588C30.5712 30.0512 30.8523 29.3725 31.3527 28.8722L36.23 24.0002V17.5628C36.2301 16.8556 36.5112 16.1775 37.0113 15.6775L46.438 6.24816C46.8109 5.87501 47.2861 5.62085 47.8035 5.51785C48.3209 5.41484 48.8573 5.46762 49.3447 5.6695M45.6567 14.5682L41.5633 18.6668V22.4375H45.334L49.43 18.3442H48.3233C47.6161 18.3442 46.9378 18.0632 46.4377 17.5631C45.9376 17.063 45.6567 16.3847 45.6567 15.6775V14.5682Z" fill="#333333"/>
</svg>
