<svg width="64" height="64" viewBox="0 0 64 64" fill="none" xmlns="http://www.w3.org/2000/svg">
<path d="M32 54.6668C45.2547 54.6668 56 43.5708 56 36.0002C56 28.4295 45.2547 17.3335 32 17.3335C18.7453 17.3335 8 28.4375 8 36.0002C8 43.5628 18.7453 54.6668 32 54.6668Z" stroke="white" stroke-width="2.5" stroke-linejoin="round"/>
<path d="M32 44C34.1217 44 36.1566 43.1571 37.6569 41.6569C39.1571 40.1566 40 38.1217 40 36C40 33.8783 39.1571 31.8434 37.6569 30.3431C36.1566 28.8429 34.1217 28 32 28C29.8783 28 27.8434 28.8429 26.3431 30.3431C24.8429 31.8434 24 33.8783 24 36C24 38.1217 24.8429 40.1566 26.3431 41.6569C27.8434 43.1571 29.8783 44 32 44Z" stroke="white" stroke-width="2.5" stroke-linejoin="round"/>
<path d="M17.6855 15.0215L21.1442 19.8482M47.5002 15.6135L44.0402 20.4402M32.0122 9.3335V17.3335" stroke="white" stroke-width="2.5" stroke-linecap="round"/>
</svg>
