<svg width="48" height="48" viewBox="0 0 48 48" fill="none" xmlns="http://www.w3.org/2000/svg">
<path d="M24 39.2221C32.8364 39.2221 40 31.8248 40 26.7778C40 21.7307 32.8364 14.3335 24 14.3335C15.1636 14.3335 8 21.7361 8 26.7778C8 31.8195 15.1636 39.2221 24 39.2221Z" stroke="#0B2239" stroke-width="2.5" stroke-linejoin="round"/>
<path d="M24.0013 32.1104C25.4158 32.1104 26.7723 31.5485 27.7725 30.5483C28.7727 29.5481 29.3346 28.1916 29.3346 26.7771C29.3346 25.3626 28.7727 24.0061 27.7725 23.0059C26.7723 22.0057 25.4158 21.4438 24.0013 21.4438C22.5868 21.4438 21.2303 22.0057 20.2301 23.0059C19.2299 24.0061 18.668 25.3626 18.668 26.7771C18.668 28.1916 19.2299 29.5481 20.2301 30.5483C21.2303 31.5485 22.5868 32.1104 24.0013 32.1104Z" stroke="#0B2239" stroke-width="2.5" stroke-linejoin="round"/>
<path d="M14.457 12.792L16.7628 16.0097M34.3335 13.1866L32.0268 16.4044M24.0081 9V14.3333" stroke="#0B2239" stroke-width="2.5" stroke-linecap="round"/>
</svg>
