<svg width="34" height="28" viewBox="0 0 34 28" fill="none" xmlns="http://www.w3.org/2000/svg">
<path d="M15.0149 21.514C15.0149 19.754 14.5549 18.276 13.6349 17.08C12.9829 16.256 12.0983 15.7147 10.9809 15.456C9.88094 15.2 8.84094 15.182 7.90094 15.4C7.58094 13.5 8.10094 11.488 9.42094 9.356C10.7436 7.22533 12.4489 5.62333 14.5369 4.55L11.3749 0C9.77493 0.792 8.25494 1.796 6.85494 3.01C5.43494 4.224 4.17493 5.62 3.05493 7.198C1.93493 8.776 1.09494 10.558 0.554935 12.578C0.014935 14.598 -0.135065 16.658 0.122935 18.778C0.458935 21.578 1.36294 23.818 2.83494 25.478C4.3056 27.1593 6.1376 28 8.33094 28C10.2609 28 11.8629 27.42 13.1309 26.244C14.3856 25.092 15.0123 23.5133 15.0109 21.508L15.0149 21.514ZM33.2629 21.514C33.2629 19.754 32.8029 18.276 31.8829 17.08C31.2296 16.24 30.3449 15.6953 29.2289 15.446C28.1089 15.1993 27.0823 15.1847 26.1489 15.402C25.8289 13.522 26.3289 11.502 27.6529 9.362C28.9729 7.242 30.6769 5.642 32.7649 4.562L29.6109 0C28.0096 0.792 26.5029 1.79533 25.0909 3.01C23.6581 4.24214 22.3855 5.64912 21.3029 7.198C20.1909 8.778 19.3629 10.558 18.8229 12.578C18.2744 14.5964 18.127 16.7028 18.3889 18.778C18.7209 21.578 19.6209 23.818 21.0889 25.478C22.5556 27.1473 24.3843 27.982 26.5749 27.982C28.5083 27.9847 30.1096 27.4 31.3789 26.228C32.6336 25.076 33.2616 23.4973 33.2629 21.492V21.514Z" fill="#E1EBFF" fill-opacity="0.64"/>
</svg>
