<svg width="48" height="48" viewBox="0 0 48 48" fill="none" xmlns="http://www.w3.org/2000/svg">
<path d="M24 17.8804V36.0004M34 17.8804V36.0004M14 17.8804V36.0004M24.894 6.21236L40.422 14.0284C42.31 14.9784 41.638 17.8424 39.528 17.8424H8.472C6.362 17.8424 5.69 14.9784 7.578 14.0284L23.106 6.21236C23.3833 6.07273 23.6895 6 24 6C24.3105 6 24.6167 6.07273 24.894 6.21236ZM39 42.0004H9C8.20435 42.0004 7.44129 41.6843 6.87868 41.1217C6.31607 40.5591 6 39.796 6 39.0004C6 38.2047 6.31607 37.4416 6.87868 36.879C7.44129 36.3164 8.20435 36.0004 9 36.0004H39C39.7956 36.0004 40.5587 36.3164 41.1213 36.879C41.6839 37.4416 42 38.2047 42 39.0004C42 39.796 41.6839 40.5591 41.1213 41.1217C40.5587 41.6843 39.7956 42.0004 39 42.0004Z" stroke="#0288D1" stroke-width="2.5" stroke-linecap="round" stroke-linejoin="round"/>
</svg>
