<svg width="48" height="48" viewBox="0 0 48 48" fill="none" xmlns="http://www.w3.org/2000/svg">
<path d="M4.5 44H43.5M8 44V13.956C8 10.47 8 8.728 8.654 7.396C9.21973 6.23683 10.1375 5.28619 11.276 4.68C12.56 4 14.24 4 17.6 4H18.4C21.76 4 23.44 4 24.724 4.68C25.8628 5.28672 26.7806 6.23809 27.346 7.398C28 8.728 28 10.47 28 13.956V44M20 12H16M20 20H16M20 28H16M39.6 44V22.888C39.6 18.278 38.004 16.592 33.75 16.592H28" stroke="#0288D1" stroke-width="2.5" stroke-linecap="round" stroke-linejoin="round"/>
</svg>
