<svg width="20" height="20" viewBox="0 0 20 20" fill="none" xmlns="http://www.w3.org/2000/svg">
<path d="M6.92319 5.5V4.9C6.92319 3.5725 6.92319 2.5 9.38486 2.5H10.6149C13.0765 2.5 13.0765 3.5725 13.0765 4.9V5.5M6.92319 17.5H13.0765C16.1682 17.5 16.7224 16.2917 16.884 14.8225L17.4607 8.8225C17.669 6.9925 17.1299 5.5 13.8457 5.5H6.15402C2.86986 5.5 2.33152 6.9925 2.53902 8.8225L3.11569 14.8225C3.27736 16.2917 3.83152 17.5 6.92319 17.5Z" stroke="#333333" stroke-width="1.5" stroke-linecap="round" stroke-linejoin="round"/>
<path d="M8.17698 11.1095C6.22424 10.8941 4.34796 10.2292 2.69531 9.16699M11.862 11.1095C13.8147 10.8941 15.691 10.2292 17.3436 9.16699M11.667 11.2503C11.667 11.6924 11.4914 12.1163 11.1788 12.4288C10.8663 12.7414 10.4423 12.917 10.0003 12.917C9.55829 12.917 9.13436 12.7414 8.8218 12.4288C8.50924 12.1163 8.33365 11.6924 8.33365 11.2503C8.33365 10.8083 8.50924 10.3844 8.8218 10.0718C9.13436 9.75925 9.55829 9.58366 10.0003 9.58366C10.4423 9.58366 10.8663 9.75925 11.1788 10.0718C11.4914 10.3844 11.667 10.8083 11.667 11.2503Z" stroke="#333333" stroke-width="1.5" stroke-linecap="round" stroke-linejoin="round"/>
</svg>
