<svg width="48" height="48" viewBox="0 0 48 48" fill="none" xmlns="http://www.w3.org/2000/svg">
<path d="M22 20.484L24.068 22.846C24.258 23.064 24.6 23.046 24.768 22.814L28.968 17M33 42C33.7956 42 34.5587 41.6839 35.1213 41.1213C35.6839 40.5587 36 39.7956 36 39C36 38.2044 35.6839 37.4413 35.1213 36.8787C34.5587 36.3161 33.7956 36 33 36C32.2044 36 31.4413 36.3161 30.8787 36.8787C30.3161 37.4413 30 38.2044 30 39C30 39.7956 30.3161 40.5587 30.8787 41.1213C31.4413 41.6839 32.2044 42 33 42ZM17 42C17.7956 42 18.5587 41.6839 19.1213 41.1213C19.6839 40.5587 20 39.7956 20 39C20 38.2044 19.6839 37.4413 19.1213 36.8787C18.5587 36.3161 17.7956 36 17 36C16.2044 36 15.4413 36.3161 14.8787 36.8787C14.3161 37.4413 14 38.2044 14 39C14 39.7956 14.3161 40.5587 14.8787 41.1213C15.4413 41.6839 16.2044 42 17 42Z" stroke="#0288D1" stroke-width="2.5" stroke-linecap="round" stroke-linejoin="round"/>
<path d="M7.42 10.8H37.848C40.604 10.8 42.594 13.34 41.838 15.896L38.53 27.096C38.02 28.816 36.392 30 34.54 30H16.224C14.37 30 12.74 28.814 12.232 27.096L7.42 10.8ZM7.42 10.8L6 6" stroke="#0288D1" stroke-width="2.5" stroke-linecap="round" stroke-linejoin="round"/>
</svg>
