<svg width="20" height="20" viewBox="0 0 20 20" fill="none" xmlns="http://www.w3.org/2000/svg">
<path d="M12.5 3.125V6.54312L10.625 7.65625V5.76187L9.6875 6.3475L7.5 7.65625V5.76187L6.5625 6.3475L3.4375 8.2225L3.125 8.39813V16.875H16.875V3.125H12.5ZM13.75 4.375H15.625V15.625H4.375V9.08187L6.25 7.96875V9.86312L7.1875 9.2775L9.375 7.96875V9.86312L10.3125 9.2775L13.4375 7.4025L13.75 7.22687V4.375ZM5.625 10.625V11.875H6.875V10.625H5.625ZM8.125 10.625V11.875H9.375V10.625H8.125ZM10.625 10.625V11.875H11.875V10.625H10.625ZM13.125 10.625V11.875H14.375V10.625H13.125ZM5.625 13.125V14.375H6.875V13.125H5.625ZM8.125 13.125V14.375H9.375V13.125H8.125ZM10.625 13.125V14.375H11.875V13.125H10.625ZM13.125 13.125V14.375H14.375V13.125H13.125Z" fill="#333333"/>
</svg>
