<svg width="20" height="20" viewBox="0 0 20 20" fill="none" xmlns="http://www.w3.org/2000/svg">
<path d="M10.4665 17.35C10.3303 17.4472 10.1671 17.4995 9.99982 17.4995C9.83249 17.4995 9.66935 17.4472 9.53315 17.35C5.50898 14.4817 1.23815 8.58167 5.55565 4.31834C6.74053 3.15177 8.33704 2.49855 9.99982 2.5C11.6665 2.5 13.2657 3.15417 14.444 4.3175C18.7615 8.58084 14.4907 14.48 10.4665 17.35Z" stroke="#333333" stroke-width="1.5" stroke-linecap="round" stroke-linejoin="round"/>
<path d="M9.99967 10.0003C10.4417 10.0003 10.8656 9.82473 11.1782 9.51217C11.4907 9.19961 11.6663 8.77569 11.6663 8.33366C11.6663 7.89163 11.4907 7.46771 11.1782 7.15515C10.8656 6.84259 10.4417 6.66699 9.99967 6.66699C9.55765 6.66699 9.13372 6.84259 8.82116 7.15515C8.5086 7.46771 8.33301 7.89163 8.33301 8.33366C8.33301 8.77569 8.5086 9.19961 8.82116 9.51217C9.13372 9.82473 9.55765 10.0003 9.99967 10.0003Z" stroke="#333333" stroke-width="1.5" stroke-linecap="round" stroke-linejoin="round"/>
</svg>
