<svg width="48" height="48" viewBox="0 0 48 48" fill="none" xmlns="http://www.w3.org/2000/svg">
<path d="M42.6149 14.604C44.5719 14.766 46.0099 16.414 45.9329 18.377C45.7159 23.911 44.9979 28.424 44.2329 31.807C43.4129 35.436 41.1529 38.281 37.9909 39.677C38.7179 40.269 39.6209 41.237 39.8889 42.535C40.1319 43.715 39.0089 44.578 37.8059 44.655C35.4999 44.8 31.0709 45 23.9979 45C16.9239 45 12.4979 44.801 10.1909 44.655C8.98988 44.578 7.86688 43.716 8.10888 42.537C8.40088 41.117 9.45488 40.091 10.2059 39.521C6.88588 37.908 4.55888 34.754 3.72088 30.825C2.84106 26.7251 2.29329 22.5609 2.08288 18.373C2.0299 17.4378 2.34589 16.5191 2.96294 15.8144C3.57999 15.1096 4.44887 14.675 5.38288 14.604C8.69988 14.33 14.6379 14 23.9999 14C33.3619 14 39.2989 14.33 42.6149 14.604Z" stroke="#0288D1" stroke-width="2.5" stroke-linecap="round" stroke-linejoin="round"/>
<path d="M24.6348 14.001L26.5798 5.30796C26.8718 4.00296 27.9988 3.06596 29.3248 3.24196C30.0848 3.34196 31.0108 3.51196 32.0648 3.79496C33.1188 4.07696 34.0048 4.39396 34.7138 4.68596C35.9498 5.19596 36.4568 6.57196 36.0578 7.84796L34.0848 14.148" stroke="#0288D1" stroke-width="2.5" stroke-linecap="round"/>
<path d="M21.088 36.124C21.115 37.021 21.658 37.799 22.548 37.914C22.941 37.964 23.423 38 24 38C24.577 38 25.059 37.964 25.453 37.914C26.343 37.799 26.885 37.021 26.913 36.124C26.94 35.212 26.97 33.85 26.987 31.987C28.85 31.97 30.212 31.94 31.124 31.912C32.021 31.885 32.799 31.342 32.914 30.452C32.964 30.059 33 29.577 33 29C33 28.423 32.964 27.941 32.914 27.547C32.799 26.657 32.021 26.115 31.124 26.087C29.7453 26.0484 28.3662 26.0237 26.987 26.013C26.9762 24.6338 26.9512 23.2547 26.912 21.876C26.885 20.979 26.342 20.201 25.452 20.086C25.06 20.036 24.578 20 24 20C23.422 20 22.941 20.036 22.547 20.086C21.657 20.201 21.115 20.979 21.087 21.876C21.0484 23.2547 21.0237 24.6338 21.013 26.013C19.15 26.03 17.788 26.06 16.876 26.088C15.979 26.115 15.201 26.658 15.086 27.548C15.036 27.941 15 28.423 15 29C15 29.577 15.036 30.059 15.086 30.453C15.201 31.343 15.979 31.885 16.876 31.913C17.788 31.94 19.15 31.97 21.013 31.987C21.03 33.85 21.06 35.212 21.088 36.124Z" stroke="#0288D1" stroke-width="2.5" stroke-linecap="round" stroke-linejoin="round"/>
</svg>
