<svg width="24" height="24" viewBox="0 0 24 24" fill="none" xmlns="http://www.w3.org/2000/svg">
<path d="M19.7836 9.89181C19.7836 4.43895 15.3447 0 9.89181 0C4.43895 0 0 4.43895 0 9.89181C0 15.3447 4.43895 19.7836 9.89181 19.7836C12.1793 19.7836 14.2689 19.0046 15.9505 17.694L22.2566 24L24 22.2566L17.694 15.9505C19.0436 14.2188 19.7787 12.0873 19.7836 9.89181ZM2.47295 9.89181C2.47295 5.79907 5.79907 2.47295 9.89181 2.47295C13.9845 2.47295 17.3107 5.79907 17.3107 9.89181C17.3107 13.9845 13.9845 17.3107 9.89181 17.3107C5.79907 17.3107 2.47295 13.9845 2.47295 9.89181Z" fill="white"/>
</svg>
