<svg width="48" height="48" viewBox="0 0 48 48" fill="none" xmlns="http://www.w3.org/2000/svg">
<rect width="48" height="48" rx="24" fill="#039BE6"/>
<path d="M31.7836 21.8918C31.7836 16.4389 27.3447 12 21.8918 12C16.4389 12 12 16.4389 12 21.8918C12 27.3447 16.4389 31.7836 21.8918 31.7836C24.1793 31.7836 26.2689 31.0046 27.9505 29.694L34.2566 36L36 34.2566L29.694 27.9505C31.0436 26.2188 31.7787 24.0873 31.7836 21.8918ZM14.473 21.8918C14.473 17.7991 17.7991 14.473 21.8918 14.473C25.9845 14.473 29.3107 17.7991 29.3107 21.8918C29.3107 25.9845 25.9845 29.3107 21.8918 29.3107C17.7991 29.3107 14.473 25.9845 14.473 21.8918Z" fill="white"/>
</svg>
