<svg width="48" height="48" viewBox="0 0 48 48" fill="none" xmlns="http://www.w3.org/2000/svg">
<path d="M16.8 36.47C20.1047 38.336 24.0125 38.822 27.6736 37.8223C31.3347 36.8225 34.4532 34.4179 36.3508 31.1312C38.2485 27.8446 38.772 23.9416 37.8074 20.2711C36.8429 16.6005 34.4683 13.4591 31.2 11.53M16.8 36.47C13.4928 34.5603 11.0797 31.4152 10.0914 27.7264C9.10313 24.0376 9.62057 20.1073 11.53 16.8M16.8 36.47L15 39.59M31.2 11.53C27.8927 9.62062 23.9624 9.10317 20.2736 10.0915C16.5848 11.0798 13.4396 13.4929 11.53 16.8M31.2 11.53L33 8.41M11.53 16.8L8.40995 15M29 27L39.588 33M24 42V38.4M24 18V6M33 39.588L31.202 36.472M15.002 8.412L16.798 11.528M41.998 24H38.402M6.00195 24H9.59795M39.588 15L36.472 16.798M19 27L8.41195 33" stroke="#0288D1" stroke-width="2.5" stroke-linecap="round" stroke-linejoin="round"/>
<path d="M29 24C29 22.6739 28.4732 21.4021 27.5355 20.4645C26.5979 19.5268 25.3261 19 24 19C22.6739 19 21.4021 19.5268 20.4645 20.4645C19.5268 21.4021 19 22.6739 19 24C19 25.3261 19.5268 26.5979 20.4645 27.5355C21.4021 28.4732 22.6739 29 24 29C25.3261 29 26.5979 28.4732 27.5355 27.5355C28.4732 26.5979 29 25.3261 29 24Z" stroke="#0288D1" stroke-width="2.5" stroke-linecap="round" stroke-linejoin="round"/>
</svg>
