<svg width="40" height="40" viewBox="0 0 40 40" fill="none" xmlns="http://www.w3.org/2000/svg">
<path d="M18.2557 18.5448C16.7174 18.5448 15.2137 18.0887 13.9346 17.234C12.6556 16.3794 11.6587 15.1647 11.07 13.7435C10.4813 12.3223 10.3273 10.7584 10.6274 9.24967C10.9275 7.74093 11.6683 6.35506 12.756 5.26732C13.8437 4.17958 15.2296 3.43882 16.7384 3.13871C18.2471 2.8386 19.8109 2.99263 21.2322 3.58131C22.6534 4.16999 23.8681 5.16689 24.7227 6.44594C25.5773 7.72499 26.0335 9.22874 26.0335 10.767C26.0335 12.8298 25.2141 14.8081 23.7554 16.2668C22.2968 17.7254 20.3185 18.5448 18.2557 18.5448ZM18.2557 5.30037C17.1569 5.30037 16.0828 5.6262 15.1692 6.23665C14.2556 6.8471 13.5435 7.71476 13.1231 8.72991C12.7026 9.74505 12.5926 10.8621 12.8069 11.9398C13.0213 13.0174 13.5504 14.0073 14.3274 14.7843C15.1043 15.5613 16.0942 16.0904 17.1719 16.3047C18.2496 16.5191 19.3666 16.4091 20.3817 15.9886C21.3969 15.5681 22.2645 14.856 22.875 13.9424C23.4855 13.0288 23.8113 11.9547 23.8113 10.8559C23.8113 10.1264 23.6676 9.40394 23.3884 8.72991C23.1092 8.05588 22.7 7.44344 22.1841 6.92756C21.6682 6.41168 21.0558 6.00246 20.3817 5.72326C19.7077 5.44407 18.9853 5.30037 18.2557 5.30037ZM24.4446 19.8893C18.4318 18.5354 12.1411 19.1871 6.5335 21.7448C5.76227 22.1132 5.11157 22.6931 4.65717 23.417C4.20276 24.1409 3.96336 24.979 3.96683 25.8337V32.4448C3.96683 32.5907 3.99557 32.7352 4.05141 32.87C4.10725 33.0048 4.18909 33.1273 4.29227 33.2305C4.39545 33.3337 4.51794 33.4155 4.65274 33.4714C4.78755 33.5272 4.93203 33.5559 5.07795 33.5559C5.22386 33.5559 5.36834 33.5272 5.50315 33.4714C5.63796 33.4155 5.76044 33.3337 5.86362 33.2305C5.9668 33.1273 6.04864 33.0048 6.10448 32.87C6.16032 32.7352 6.18906 32.5907 6.18906 32.4448V25.8337C6.17938 25.4012 6.29619 24.9752 6.52514 24.6081C6.7541 24.2409 7.08524 23.9486 7.47795 23.767C10.8559 22.2069 14.5349 21.4066 18.2557 21.4226C20.3405 21.4202 22.4181 21.6663 24.4446 22.1559V19.8893ZM24.6002 30.4559H31.4224V32.0115H24.6002V30.4559Z" fill="#0277BD"/>
<path d="M36.8551 23.8558H31.1107V26.078H35.744V35.378H19.9996V26.078H26.9996V26.5447C26.9996 26.8393 27.1166 27.122 27.325 27.3303C27.5334 27.5387 27.816 27.6558 28.1107 27.6558C28.4054 27.6558 28.688 27.5387 28.8964 27.3303C29.1047 27.122 29.2218 26.8393 29.2218 26.5447V22.2224C29.2218 21.9278 29.1047 21.6451 28.8964 21.4368C28.688 21.2284 28.4054 21.1113 28.1107 21.1113C27.816 21.1113 27.5334 21.2284 27.325 21.4368C27.1166 21.6451 26.9996 21.9278 26.9996 22.2224V23.8558H18.8885C18.5938 23.8558 18.3112 23.9728 18.1028 24.1812C17.8944 24.3896 17.7773 24.6722 17.7773 24.9669V36.4891C17.7773 36.7838 17.8944 37.0664 18.1028 37.2748C18.3112 37.4832 18.5938 37.6002 18.8885 37.6002H36.8551C37.1498 37.6002 37.4324 37.4832 37.6408 37.2748C37.8492 37.0664 37.9662 36.7838 37.9662 36.4891V24.9669C37.9662 24.6722 37.8492 24.3896 37.6408 24.1812C37.4324 23.9728 37.1498 23.8558 36.8551 23.8558Z" fill="#0277BD"/>
</svg>
