<svg width="40" height="40" viewBox="0 0 40 40" fill="none" xmlns="http://www.w3.org/2000/svg">
<path d="M20.0006 26.6662V19.9996M9.86722 9.86624C13.5972 6.13791 15.4622 4.27458 17.6439 3.65958C19.1848 3.22415 20.8163 3.22415 22.3572 3.65958C24.5389 4.27458 26.4039 6.13791 30.1322 9.86791C33.8606 13.5979 35.7256 15.4612 36.3406 17.6429C36.776 19.1839 36.776 20.8153 36.3406 22.3562C35.7256 24.5379 33.8622 26.4029 30.1322 30.1312C26.4022 33.8596 24.5389 35.7246 22.3572 36.3396C20.8163 36.775 19.1848 36.775 17.6439 36.3396C15.4622 35.7246 13.5972 33.8612 9.86889 30.1312C6.14055 26.4012 4.27555 24.5379 3.66055 22.3562C3.22513 20.8153 3.22513 19.1839 3.66055 17.6429C4.27555 15.4612 6.13889 13.5962 9.86722 9.86624Z" stroke="#0277BD" stroke-width="2.5" stroke-linecap="round" stroke-linejoin="round"/>
<path d="M20.209 13.7497H20.0007M20.4173 13.7497C20.4173 13.6392 20.3734 13.5332 20.2953 13.455C20.2171 13.3769 20.1112 13.333 20.0007 13.333C19.8901 13.333 19.7842 13.3769 19.706 13.455C19.6279 13.5332 19.584 13.6392 19.584 13.7497C19.584 13.8602 19.6279 13.9662 19.706 14.0443C19.7842 14.1224 19.8901 14.1663 20.0007 14.1663C20.1112 14.1663 20.2171 14.1224 20.2953 14.0443C20.3734 13.9662 20.4173 13.8602 20.4173 13.7497Z" stroke="#0277BD" stroke-width="2.5" stroke-linecap="round" stroke-linejoin="round"/>
</svg>
