<svg width="56" height="56" viewBox="0 0 56 56" fill="none" xmlns="http://www.w3.org/2000/svg">
<path d="M39.6673 28H35.0007L30.334 39.6667L25.6673 16.3334L21.0007 28H16.334" stroke="#0288D1" stroke-width="3.5" stroke-linecap="round" stroke-linejoin="round"/>
<path d="M7 28C7 18.0997 7 13.1507 10.0753 10.0753C13.1507 7 18.102 7 28 7C37.9003 7 42.8493 7 45.9247 10.0753C49 13.1507 49 18.102 49 28C49 37.9003 49 42.8493 45.9247 45.9247C42.8493 49 37.898 49 28 49C18.0997 49 13.1507 49 10.0753 45.9247C7 42.8493 7 37.898 7 28Z" stroke="#0288D1" stroke-width="3.5" stroke-linecap="round" stroke-linejoin="round"/>
</svg>
