<svg width="56" height="56" viewBox="0 0 56 56" fill="none" xmlns="http://www.w3.org/2000/svg">
<g clip-path="url(#clip0_244_2121)">
<path d="M23.9355 26.2313L26.3482 28.987C26.5699 29.2413 26.9689 29.2203 27.1649 28.9496L32.0649 22.1666" stroke="#0277BD" stroke-width="3.5" stroke-linecap="round" stroke-linejoin="round"/>
<g filter="url(#filter0_d_244_2121)">
<path d="M26.7557 48.58C27.1132 48.8521 27.5501 48.9994 27.9994 48.9994C28.4487 48.9994 28.8856 48.8521 29.2431 48.58C33.0581 45.717 44.3327 36.3673 44.3327 25.704V14.2006C44.3351 13.9039 44.2274 13.6168 44.0305 13.3949C43.8335 13.1729 43.5613 13.0319 43.2664 12.999C38.5942 12.5206 34.1163 10.8793 30.2417 8.22496L28.8184 7.25196C28.5773 7.08642 28.2918 6.9978 27.9994 6.9978C27.707 6.9978 27.4214 7.08642 27.1804 7.25196L25.7571 8.22496C21.8825 10.8793 17.4046 12.5206 12.7324 12.999C12.4375 13.0319 12.1652 13.1729 11.9683 13.3949C11.7713 13.6168 11.6636 13.9039 11.6661 14.2006V25.704C11.6661 36.3673 22.9407 45.717 26.7557 48.5753" stroke="#0277BD" stroke-width="3.5" stroke-linecap="round" stroke-linejoin="round" shape-rendering="crispEdges"/>
</g>
</g>
<defs>
<filter id="filter0_d_244_2121" x="3.91602" y="3.2478" width="48.166" height="57.5016" filterUnits="userSpaceOnUse" color-interpolation-filters="sRGB">
<feFlood flood-opacity="0" result="BackgroundImageFix"/>
<feColorMatrix in="SourceAlpha" type="matrix" values="0 0 0 0 0 0 0 0 0 0 0 0 0 0 0 0 0 0 127 0" result="hardAlpha"/>
<feOffset dy="4"/>
<feGaussianBlur stdDeviation="3"/>
<feComposite in2="hardAlpha" operator="out"/>
<feColorMatrix type="matrix" values="0 0 0 0 0 0 0 0 0 0 0 0 0 0 0 0 0 0 0.08 0"/>
<feBlend mode="normal" in2="BackgroundImageFix" result="effect1_dropShadow_244_2121"/>
<feBlend mode="normal" in="SourceGraphic" in2="effect1_dropShadow_244_2121" result="shape"/>
</filter>
<clipPath id="clip0_244_2121">
<rect width="56" height="56" fill="white"/>
</clipPath>
</defs>
</svg>
