<svg width="49" height="53" viewBox="0 0 49 53" fill="none" xmlns="http://www.w3.org/2000/svg">
<g filter="url(#filter0_d_252_2894)">
<path d="M22.8397 45.3322C23.1972 45.6043 23.6341 45.7516 24.0834 45.7516C24.5327 45.7516 24.9695 45.6043 25.327 45.3322C29.142 42.4692 40.4167 33.1195 40.4167 22.4562V10.9528C40.4191 10.6561 40.3114 10.369 40.1145 10.1471C39.9175 9.92511 39.6453 9.78405 39.3504 9.75116C34.6782 9.27281 30.2003 7.6315 26.3257 4.97716L24.9024 4.00416C24.6613 3.83861 24.3758 3.75 24.0834 3.75C23.791 3.75 23.5054 3.83861 23.2644 4.00416L21.841 4.97716C17.9664 7.6315 13.4886 9.27281 8.81637 9.75116C8.52146 9.78405 8.24922 9.92511 8.05227 10.1471C7.85531 10.369 7.74763 10.6561 7.75004 10.9528V22.4562C7.75004 33.1195 19.0247 42.4692 22.8397 45.3275" stroke="#0277BD" stroke-width="3.5" stroke-linecap="round" stroke-linejoin="round" shape-rendering="crispEdges"/>
</g>
<defs>
<filter id="filter0_d_252_2894" x="0" y="0" width="48.166" height="57.5016" filterUnits="userSpaceOnUse" color-interpolation-filters="sRGB">
<feFlood flood-opacity="0" result="BackgroundImageFix"/>
<feColorMatrix in="SourceAlpha" type="matrix" values="0 0 0 0 0 0 0 0 0 0 0 0 0 0 0 0 0 0 127 0" result="hardAlpha"/>
<feOffset dy="4"/>
<feGaussianBlur stdDeviation="3"/>
<feComposite in2="hardAlpha" operator="out"/>
<feColorMatrix type="matrix" values="0 0 0 0 0 0 0 0 0 0 0 0 0 0 0 0 0 0 0.08 0"/>
<feBlend mode="normal" in2="BackgroundImageFix" result="effect1_dropShadow_252_2894"/>
<feBlend mode="normal" in="SourceGraphic" in2="effect1_dropShadow_252_2894" result="shape"/>
</filter>
</defs>
</svg>
