<svg width="34" height="34" viewBox="0 0 34 34" fill="none" xmlns="http://www.w3.org/2000/svg">
<path d="M22.25 12.5007V4.75C22.25 3.82174 21.8813 2.9315 21.2249 2.27513C20.5685 1.61875 19.6783 1.25 18.75 1.25H15.25C14.3217 1.25 13.4315 1.61875 12.7751 2.27513C12.1187 2.9315 11.75 3.82174 11.75 4.75V19.2505M22.25 12.5007V32.75M22.25 12.5007H29.25C30.1783 12.5007 31.0685 12.8695 31.7249 13.5259C32.3813 14.1823 32.75 15.0725 32.75 16.0007V29.25C32.75 30.1783 32.3813 31.0685 31.7249 31.7249C31.0685 32.3813 30.1783 32.75 29.25 32.75H22.25M11.75 19.2505V32.75M11.75 19.2505H4.75C3.82174 19.2505 2.9315 19.6192 2.27513 20.2756C1.61875 20.932 1.25 21.8222 1.25 22.7505V29.25C1.25 30.1783 1.61875 31.0685 2.27513 31.7249C2.9315 32.3813 3.82174 32.75 4.75 32.75H11.75M22.25 32.75H11.75" stroke="#0288D1" stroke-width="2.5" stroke-linecap="round" stroke-linejoin="round"/>
</svg>
