<svg width="34" height="30" viewBox="0 0 34 30" fill="none" xmlns="http://www.w3.org/2000/svg">
<path d="M32.75 28.375C32.75 24.7175 29.8275 19.506 25.75 18.3527M22.25 28.375C22.25 23.7357 17.5495 17.875 11.75 17.875C5.9505 17.875 1.25 23.7357 1.25 28.375M22.25 11.75C23.6424 11.75 24.9777 11.1969 25.9623 10.2123C26.9469 9.22775 27.5 7.89239 27.5 6.5C27.5 5.10761 26.9469 3.77226 25.9623 2.78769C24.9777 1.80312 23.6424 1.25 22.25 1.25M17 6.5C17 7.89239 16.4469 9.22775 15.4623 10.2123C14.4777 11.1969 13.1424 11.75 11.75 11.75C10.3576 11.75 9.02226 11.1969 8.03769 10.2123C7.05312 9.22775 6.5 7.89239 6.5 6.5C6.5 5.10761 7.05312 3.77226 8.03769 2.78769C9.02226 1.80312 10.3576 1.25 11.75 1.25C13.1424 1.25 14.4777 1.80312 15.4623 2.78769C16.4469 3.77226 17 5.10761 17 6.5Z" stroke="#0288D1" stroke-width="2.5" stroke-linecap="round" stroke-linejoin="round"/>
</svg>
