<svg width="34" height="34" viewBox="0 0 34 34" fill="none" xmlns="http://www.w3.org/2000/svg">
<path d="M17 11.6453V27.5003M25.75 11.6453V27.5003M8.25 11.6453V27.5003M17.7822 1.43581L31.3693 8.27481C33.0213 9.10606 32.4332 11.6121 30.587 11.6121H3.413C1.56675 11.6121 0.97875 9.10606 2.63075 8.27481L16.2178 1.43581C16.4604 1.31364 16.7283 1.25 17 1.25C17.2717 1.25 17.5396 1.31364 17.7822 1.43581ZM30.125 32.7503H3.875C3.17881 32.7503 2.51113 32.4738 2.01884 31.9815C1.52656 31.4892 1.25 30.8215 1.25 30.1253C1.25 29.4291 1.52656 28.7614 2.01884 28.2692C2.51113 27.7769 3.17881 27.5003 3.875 27.5003H30.125C30.8212 27.5003 31.4889 27.7769 31.9812 28.2692C32.4734 28.7614 32.75 29.4291 32.75 30.1253C32.75 30.8215 32.4734 31.4892 31.9812 31.9815C31.4889 32.4738 30.8212 32.7503 30.125 32.7503Z" stroke="#0288D1" stroke-width="2.5" stroke-linecap="round" stroke-linejoin="round"/>
</svg>
