<svg width="34" height="34" viewBox="0 0 34 34" fill="none" xmlns="http://www.w3.org/2000/svg">
<path d="M10.6982 27.9113C13.5899 29.544 17.0092 29.9693 20.2127 29.0945C23.4162 28.2197 26.1448 26.1157 27.8053 23.2398C29.4657 20.364 29.9238 16.9489 29.0798 13.7372C28.2358 10.5254 26.158 7.77674 23.2983 6.08875M10.6982 27.9113C7.80452 26.2403 5.69306 23.4883 4.82829 20.2606C3.96353 17.0329 4.41629 13.5939 6.087 10.7M10.6982 27.9113L9.12325 30.6413M23.2983 6.08875C20.4044 4.41804 16.9654 3.96528 13.7377 4.83004C10.51 5.69481 7.75797 7.80627 6.087 10.7M23.2983 6.08875L24.8733 3.35875M6.087 10.7L3.357 9.125M21.3733 19.625L30.6378 24.875M16.9983 32.75V29.6M16.9983 11.75V1.25M24.8733 30.6395L23.3 27.913M9.125 3.3605L10.6965 6.087M32.7465 17H29.6M1.25 17H4.3965M30.6378 9.125L27.9113 10.6983M12.6233 19.625L3.35875 24.875" stroke="#0288D1" stroke-width="2.5" stroke-linecap="round" stroke-linejoin="round"/>
</svg>
