<svg width="37" height="38" viewBox="0 0 37 38" fill="none" xmlns="http://www.w3.org/2000/svg">
<path d="M1.25 36.25H35.375M4.3125 36.25V9.9615C4.3125 6.91125 4.3125 5.387 4.88475 4.2215C5.37977 3.20723 6.18278 2.37542 7.179 1.845C8.3025 1.25 9.7725 1.25 12.7125 1.25H13.4125C16.3525 1.25 17.8225 1.25 18.946 1.845C19.9425 2.37588 20.7455 3.20833 21.2403 4.22325C21.8125 5.387 21.8125 6.91125 21.8125 9.9615V36.25M14.8125 8.25H11.3125M14.8125 15.25H11.3125M14.8125 22.25H11.3125M31.9625 36.25V17.777C31.9625 13.7433 30.566 12.268 26.8438 12.268H21.8125" stroke="#0288D1" stroke-width="2.5" stroke-linecap="round" stroke-linejoin="round"/>
</svg>
