<svg width="39" height="40" viewBox="0 0 39 40" fill="none" xmlns="http://www.w3.org/2000/svg">
<g filter="url(#filter0_d_514_4691)">
<path d="M18.5673 34.4366C18.8354 34.6407 19.1631 34.7512 19.5 34.7512C19.837 34.7512 20.1647 34.6407 20.4328 34.4366C23.294 32.2894 31.75 25.2771 31.75 17.2796V8.65212C31.7518 8.42957 31.6711 8.21426 31.5234 8.04779C31.3756 7.88133 31.1715 7.77554 30.9503 7.75087C27.4461 7.39211 24.0877 6.16113 21.1818 4.17037L20.1143 3.44062C19.9335 3.31646 19.7193 3.25 19.5 3.25C19.2807 3.25 19.0666 3.31646 18.8858 3.44062L17.8183 4.17037C14.9123 6.16113 11.5539 7.39211 8.04978 7.75087C7.8286 7.77554 7.62442 7.88133 7.4767 8.04779C7.32899 8.21426 7.24822 8.42957 7.25003 8.65212V17.2796C7.25003 25.2771 15.706 32.2894 18.5673 34.4331" stroke="#0277BD" stroke-width="2.5" stroke-linecap="round" stroke-linejoin="round" shape-rendering="crispEdges"/>
</g>
<defs>
<filter id="filter0_d_514_4691" x="0" y="0" width="39" height="46.001" filterUnits="userSpaceOnUse" color-interpolation-filters="sRGB">
<feFlood flood-opacity="0" result="BackgroundImageFix"/>
<feColorMatrix in="SourceAlpha" type="matrix" values="0 0 0 0 0 0 0 0 0 0 0 0 0 0 0 0 0 0 127 0" result="hardAlpha"/>
<feOffset dy="4"/>
<feGaussianBlur stdDeviation="3"/>
<feComposite in2="hardAlpha" operator="out"/>
<feColorMatrix type="matrix" values="0 0 0 0 0 0 0 0 0 0 0 0 0 0 0 0 0 0 0.08 0"/>
<feBlend mode="normal" in2="BackgroundImageFix" result="effect1_dropShadow_514_4691"/>
<feBlend mode="normal" in="SourceGraphic" in2="effect1_dropShadow_514_4691" result="shape"/>
</filter>
</defs>
</svg>
