<svg width="34" height="27" viewBox="0 0 34 27" fill="none" xmlns="http://www.w3.org/2000/svg">
<path d="M12.1122 21.2962C12.1122 23.755 10.1663 25.75 7.767 25.75C5.36775 25.75 3.42175 23.755 3.42175 21.2945M12.1122 21.2962C12.1122 18.8375 10.1663 16.8408 7.767 16.8408C5.36775 16.8408 3.42175 18.8358 3.42175 21.2945M12.1122 21.2962L21.8878 21.2945M3.42175 21.2945H1.25V3C1.25 2.53587 1.43437 2.09075 1.76256 1.76256C2.09075 1.43437 2.53587 1.25 3 1.25H20.1378C20.6019 1.25 21.047 1.43437 21.3752 1.76256C21.7034 2.09075 21.8878 2.53587 21.8878 3V6.8185M21.8878 21.2945H22.9745M21.8878 21.2945V6.8185M21.8878 6.8185H25.8445C26.3112 6.81855 26.7732 6.91193 27.2032 7.09316C27.6333 7.27438 28.0228 7.53978 28.3488 7.87375L32.75 12.387V21.2945H31.6632M31.6632 21.2945C31.6632 23.755 29.719 25.75 27.3197 25.75C24.9187 25.75 22.9745 23.755 22.9745 21.2945M31.6632 21.2945C31.6632 18.8358 29.719 16.8408 27.3197 16.8408C24.9187 16.8408 22.9745 18.8358 22.9745 21.2945" stroke="#0288D1" stroke-width="2.5" stroke-linecap="round" stroke-linejoin="round"/>
</svg>
